{
.appVersion = "116";
DisplayStrings = (
"¿",
"",
"/backslash"
);
date = "2021-08-31 21:01:12 +0000";
designer = kinopio;
familyName = "OsakaMono-Kinopio";
featurePrefixes = (
{
automatic = 1;
code = "languagesystem DFLT dflt;\012";
name = Languagesystems;
}
);
features = (
{
automatic = 1;
code = "feature ordn;\012";
name = aalt;
},
{
automatic = 1;
code = "sub N o period by numero;\012";
name = ordn;
}
);
fontMaster = (
{
alignmentZones = (
"{162, 5}",
"{116, 4}",
"{0, -5}",
"{-45, -3}"
);
ascender = 219;
capHeight = 162;
descender = -49;
horizontalStems = (
81,
121,
171
);
id = "0835C59E-AAFD-4756-A43C-35DA64A2CD7E";
verticalStems = (
21
);
weightValue = 400;
widthValue = 5;
xHeight = 116;
}
);
glyphs = (
{
glyphname = A;
layers = (
{
hints = (
{
horizontal = 1;
place = "{36, 16}";
type = Stem;
},
{
horizontal = 1;
place = "{129, 33}";
type = Stem;
},
{
place = "{3, 122}";
type = Stem;
},
{
horizontal = 1;
place = "{0, 52}";
type = Stem;
}
);
layerId = "0835C59E-AAFD-4756-A43C-35DA64A2CD7E";
paths = (
{
closed = 1;
nodes = (
"91 36 LINE",
"91 36 OFFCURVE",
"102 0 OFFCURVE",
"102 0 CURVE SMOOTH",
"102 0 OFFCURVE",
"125 0 OFFCURVE",
"125 0 CURVE SMOOTH",
"125 0 OFFCURVE",
"75 162 OFFCURVE",
"75 162 CURVE SMOOTH",
"75 162 OFFCURVE",
"53 162 OFFCURVE",
"53 162 CURVE SMOOTH",
"53 162 OFFCURVE",
"3 0 OFFCURVE",
"3 0 CURVE SMOOTH",
"3 0 OFFCURVE",
"24 0 OFFCURVE",
"24 0 CURVE SMOOTH",
"24 0 OFFCURVE",
"35 36 OFFCURVE",
"35 36 CURVE"
);
},
{
closed = 1;
nodes = (
"59 113 LINE",
"59 113 OFFCURVE",
"63 129 OFFCURVE",
"63 129 CURVE SMOOTH",
"63 129 OFFCURVE",
"67 113 OFFCURVE",
"67 113 CURVE SMOOTH",
"67 113 OFFCURVE",
"87 52 OFFCURVE",
"87 52 CURVE SMOOTH",
"87 52 OFFCURVE",
"40 52 OFFCURVE",
"40 52 CURVE"
);
}
);
width = 128;
}
);
note = A;
unicode = 0041;
},
{
glyphname = Aacute;
layers = (
{
hints = (
{
horizontal = 1;
place = "{36, 16}";
type = Stem;
},
{
horizontal = 1;
place = "{129, 33}";
type = Stem;
},
{
horizontal = 1;
place = "{172, 34}";
type = Stem;
},
{
place = "{3, 122}";
type = Stem;
},
{
horizontal = 1;
place = "{0, 52}";
type = Stem;
}
);
layerId = "0835C59E-AAFD-4756-A43C-35DA64A2CD7E";
paths = (
{
closed = 1;
nodes = (
"64 206 LINE SMOOTH",
"64 206 OFFCURVE",
"33 172 OFFCURVE",
"33 172 CURVE SMOOTH",
"33 172 OFFCURVE",
"51 172 OFFCURVE",
"51 172 CURVE SMOOTH",
"51 172 OFFCURVE",
"87 206 OFFCURVE",
"87 206 CURVE SMOOTH"
);
},
{
closed = 1;
nodes = (
"91 36 LINE",
"91 36 OFFCURVE",
"102 0 OFFCURVE",
"102 0 CURVE SMOOTH",
"102 0 OFFCURVE",
"125 0 OFFCURVE",
"125 0 CURVE SMOOTH",
"125 0 OFFCURVE",
"75 162 OFFCURVE",
"75 162 CURVE SMOOTH",
"75 162 OFFCURVE",
"53 162 OFFCURVE",
"53 162 CURVE SMOOTH",
"53 162 OFFCURVE",
"3 0 OFFCURVE",
"3 0 CURVE SMOOTH",
"3 0 OFFCURVE",
"24 0 OFFCURVE",
"24 0 CURVE SMOOTH",
"24 0 OFFCURVE",
"35 36 OFFCURVE",
"35 36 CURVE"
);
},
{
closed = 1;
nodes = (
"59 113 LINE",
"59 113 OFFCURVE",
"63 129 OFFCURVE",
"63 129 CURVE SMOOTH",
"63 129 OFFCURVE",
"67 113 OFFCURVE",
"67 113 CURVE SMOOTH",
"67 113 OFFCURVE",
"87 52 OFFCURVE",
"87 52 CURVE SMOOTH",
"87 52 OFFCURVE",
"40 52 OFFCURVE",
"40 52 CURVE"
);
}
);
width = 128;
}
);
note = Aacute;
unicode = 00C1;
},
{
glyphname = Acircumflex;
layers = (
{
hints = (
{
horizontal = 1;
place = "{36, 16}";
type = Stem;
},
{
horizontal = 1;
place = "{129, 33}";
type = Stem;
},
{
place = "{3, 122}";
type = Stem;
},
{
horizontal = 1;
place = "{0, 52}";
type = Stem;
}
);
layerId = "0835C59E-AAFD-4756-A43C-35DA64A2CD7E";
paths = (
{
closed = 1;
nodes = (
"56 198 OFFCURVE",
"24 164 OFFCURVE",
"24 164 CURVE SMOOTH",
"24 164 OFFCURVE",
"41 164 OFFCURVE",
"41 164 CURVE",
"64 184 LINE",
"88 164 LINE",
"88 164 OFFCURVE",
"105 164 OFFCURVE",
"105 164 CURVE SMOOTH",
"105 164 OFFCURVE",
"73 198 OFFCURVE",
"73 198 CURVE SMOOTH",
"73 198 OFFCURVE",
"56 198 OFFCURVE",
"56 198 CURVE SMOOTH"
);
},
{
closed = 1;
nodes = (
"91 36 LINE",
"91 36 OFFCURVE",
"102 0 OFFCURVE",
"102 0 CURVE SMOOTH",
"102 0 OFFCURVE",
"125 0 OFFCURVE",
"125 0 CURVE SMOOTH",
"125 0 OFFCURVE",
"75 162 OFFCURVE",
"75 162 CURVE SMOOTH",
"75 162 OFFCURVE",
"53 162 OFFCURVE",
"53 162 CURVE SMOOTH",
"53 162 OFFCURVE",
"3 0 OFFCURVE",
"3 0 CURVE SMOOTH",
"3 0 OFFCURVE",
"24 0 OFFCURVE",
"24 0 CURVE SMOOTH",
"24 0 OFFCURVE",
"35 36 OFFCURVE",
"35 36 CURVE"
);
},
{
closed = 1;
nodes = (
"59 113 LINE",
"59 113 OFFCURVE",
"63 129 OFFCURVE",
"63 129 CURVE SMOOTH",
"63 129 OFFCURVE",
"67 113 OFFCURVE",
"67 113 CURVE SMOOTH",
"67 113 OFFCURVE",
"87 52 OFFCURVE",
"87 52 CURVE SMOOTH",
"87 52 OFFCURVE",
"40 52 OFFCURVE",
"40 52 CURVE"
);
}
);
width = 128;
}
);
note = Acircumflex;
unicode = 00C2;
},
{
glyphname = Adieresis;
layers = (
{
hints = (
{
horizontal = 1;
place = "{36, 16}";
type = Stem;
},
{
horizontal = 1;
place = "{129, 33}";
type = Stem;
},
{
horizontal = 1;
place = "{234, 22}";
type = Stem;
},
{
place = "{21, 22}";
type = Stem;
},
{
place = "{86, 21}";
type = Stem;
},
{
horizontal = 1;
place = "{0, 52}";
type = Stem;
},
{
place = "{3, 122}";
type = Stem;
}
);
layerId = "0835C59E-AAFD-4756-A43C-35DA64A2CD7E";
paths = (
{
closed = 1;
nodes = (
"49 182 OFFCURVE",
"53 186 OFFCURVE",
"53 186 CURVE",
"53 199 LINE",
"53 199 OFFCURVE",
"49 204 OFFCURVE",
"49 204 CURVE SMOOTH",
"49 204 OFFCURVE",
"35 204 OFFCURVE",
"35 204 CURVE SMOOTH",
"35 204 OFFCURVE",
"31 200 OFFCURVE",
"31 200 CURVE SMOOTH",
"31 200 OFFCURVE",
"31 187 OFFCURVE",
"31 187 CURVE SMOOTH",
"31 187 OFFCURVE",
"36 182 OFFCURVE",
"36 182 CURVE SMOOTH",
"36 182 OFFCURVE",
"49 182 OFFCURVE",
"49 182 CURVE SMOOTH"
);
},
{
closed = 1;
nodes = (
"80 182 OFFCURVE",
"93 182 OFFCURVE",
"93 182 CURVE SMOOTH",
"93 182 OFFCURVE",
"97 186 OFFCURVE",
"97 186 CURVE",
"97 199 LINE",
"97 199 OFFCURVE",
"93 204 OFFCURVE",
"93 204 CURVE SMOOTH",
"93 204 OFFCURVE",
"79 204 OFFCURVE",
"79 204 CURVE SMOOTH",
"79 204 OFFCURVE",
"76 200 OFFCURVE",
"76 200 CURVE SMOOTH",
"76 200 OFFCURVE",
"76 186 OFFCURVE",
"76 186 CURVE SMOOTH",
"76 186 OFFCURVE",
"80 182 OFFCURVE",
"80 182 CURVE SMOOTH"
);
},
{
closed = 1;
nodes = (
"91 36 LINE",
"91 36 OFFCURVE",
"102 0 OFFCURVE",
"102 0 CURVE SMOOTH",
"102 0 OFFCURVE",
"125 0 OFFCURVE",
"125 0 CURVE SMOOTH",
"125 0 OFFCURVE",
"75 162 OFFCURVE",
"75 162 CURVE SMOOTH",
"75 162 OFFCURVE",
"53 162 OFFCURVE",
"53 162 CURVE SMOOTH",
"53 162 OFFCURVE",
"3 0 OFFCURVE",
"3 0 CURVE SMOOTH",
"3 0 OFFCURVE",
"24 0 OFFCURVE",
"24 0 CURVE SMOOTH",
"24 0 OFFCURVE",
"35 36 OFFCURVE",
"35 36 CURVE"
);
},
{
closed = 1;
nodes = (
"59 113 LINE",
"59 113 OFFCURVE",
"63 129 OFFCURVE",
"63 129 CURVE SMOOTH",
"63 129 OFFCURVE",
"67 113 OFFCURVE",
"67 113 CURVE SMOOTH",
"67 113 OFFCURVE",
"87 52 OFFCURVE",
"87 52 CURVE SMOOTH",
"87 52 OFFCURVE",
"40 52 OFFCURVE",
"40 52 CURVE"
);
}
);
width = 128;
}
);
note = Adieresis;
unicode = 00C4;
},
{
glyphname = Agrave;
layers = (
{
hints = (
{
horizontal = 1;
place = "{36, 16}";
type = Stem;
},
{
horizontal = 1;
place = "{129, 33}";
type = Stem;
},
{
horizontal = 1;
place = "{172, 34}";
type = Stem;
},
{
place = "{3, 122}";
type = Stem;
},
{
horizontal = 1;
place = "{0, 52}";
type = Stem;
}
);
layerId = "0835C59E-AAFD-4756-A43C-35DA64A2CD7E";
paths = (
{
closed = 1;
nodes = (
"33 206 LINE SMOOTH",
"33 206 OFFCURVE",
"69 172 OFFCURVE",
"69 172 CURVE SMOOTH",
"69 172 OFFCURVE",
"87 172 OFFCURVE",
"87 172 CURVE SMOOTH",
"87 172 OFFCURVE",
"56 206 OFFCURVE",
"56 206 CURVE SMOOTH"
);
},
{
closed = 1;
nodes = (
"91 36 LINE",
"91 36 OFFCURVE",
"102 0 OFFCURVE",
"102 0 CURVE SMOOTH",
"102 0 OFFCURVE",
"125 0 OFFCURVE",
"125 0 CURVE SMOOTH",
"125 0 OFFCURVE",
"75 162 OFFCURVE",
"75 162 CURVE SMOOTH",
"75 162 OFFCURVE",
"53 162 OFFCURVE",
"53 162 CURVE SMOOTH",
"53 162 OFFCURVE",
"3 0 OFFCURVE",
"3 0 CURVE SMOOTH",
"3 0 OFFCURVE",
"24 0 OFFCURVE",
"24 0 CURVE SMOOTH",
"24 0 OFFCURVE",
"35 36 OFFCURVE",
"35 36 CURVE"
);
},
{
closed = 1;
nodes = (
"59 113 LINE",
"59 113 OFFCURVE",
"63 129 OFFCURVE",
"63 129 CURVE SMOOTH",
"63 129 OFFCURVE",
"67 113 OFFCURVE",
"67 113 CURVE SMOOTH",
"67 113 OFFCURVE",
"87 52 OFFCURVE",
"87 52 CURVE SMOOTH",
"87 52 OFFCURVE",
"40 52 OFFCURVE",
"40 52 CURVE"
);
}
);
width = 128;
}
);
note = Agrave;
unicode = 00C0;
},
{
glyphname = Amacron;
layers = (
{
hints = (
{
horizontal = 1;
place = "{36, 16}";
type = Stem;
},
{
horizontal = 1;
place = "{129, 33}";
type = Stem;
},
{
place = "{3, 122}";
type = Stem;
},
{
horizontal = 1;
place = "{0, 52}";
type = Stem;
}
);
layerId = "0835C59E-AAFD-4756-A43C-35DA64A2CD7E";
paths = (
{
closed = 1;
nodes = (
"37 177 LINE",
"91 177 LINE",
"91 191 LINE",
"37 191 LINE"
);
},
{
closed = 1;
nodes = (
"91 36 LINE",
"91 36 OFFCURVE",
"102 0 OFFCURVE",
"102 0 CURVE SMOOTH",
"102 0 OFFCURVE",
"125 0 OFFCURVE",
"125 0 CURVE SMOOTH",
"125 0 OFFCURVE",
"75 162 OFFCURVE",
"75 162 CURVE SMOOTH",
"75 162 OFFCURVE",
"53 162 OFFCURVE",
"53 162 CURVE SMOOTH",
"53 162 OFFCURVE",
"3 0 OFFCURVE",
"3 0 CURVE SMOOTH",
"3 0 OFFCURVE",
"24 0 OFFCURVE",
"24 0 CURVE SMOOTH",
"24 0 OFFCURVE",
"35 36 OFFCURVE",
"35 36 CURVE"
);
},
{
closed = 1;
nodes = (
"59 113 LINE",
"59 113 OFFCURVE",
"63 129 OFFCURVE",
"63 129 CURVE SMOOTH",
"63 129 OFFCURVE",
"67 113 OFFCURVE",
"67 113 CURVE SMOOTH",
"67 113 OFFCURVE",
"87 52 OFFCURVE",
"87 52 CURVE SMOOTH",
"87 52 OFFCURVE",
"40 52 OFFCURVE",
"40 52 CURVE"
);
}
);
width = 128;
}
);
note = Amacron;
unicode = 0100;
},
{
glyphname = Aring;
layers = (
{
hints = (
{
horizontal = 1;
place = "{36, 16}";
type = Stem;
},
{
horizontal = 1;
place = "{129, 33}";
type = Stem;
},
{
place = "{3, 122}";
type = Stem;
},
{
horizontal = 1;
place = "{0, 52}";
type = Stem;
}
);
layerId = "0835C59E-AAFD-4756-A43C-35DA64A2CD7E";
paths = (
{
closed = 1;
nodes = (
"91 36 LINE",
"91 36 OFFCURVE",
"102 0 OFFCURVE",
"102 0 CURVE SMOOTH",
"102 0 OFFCURVE",
"125 0 OFFCURVE",
"125 0 CURVE SMOOTH",
"125 0 OFFCURVE",
"80 147 OFFCURVE",
"75 161 CURVE",
"82 158 OFFCURVE",
"85 164 OFFCURVE",
"85 172 CURVE SMOOTH",
"85 185 OFFCURVE",
"77 193 OFFCURVE",
"64 193 CURVE SMOOTH",
"51 193 OFFCURVE",
"43 185 OFFCURVE",
"43 172 CURVE SMOOTH",
"43 164 OFFCURVE",
"46 158 OFFCURVE",
"51 154 CURVE",
"48 147 OFFCURVE",
"3 0 OFFCURVE",
"3 0 CURVE SMOOTH",
"3 0 OFFCURVE",
"24 0 OFFCURVE",
"24 0 CURVE SMOOTH",
"24 0 OFFCURVE",
"35 36 OFFCURVE",
"35 36 CURVE"
);
},
{
closed = 1;
nodes = (
"54 178 OFFCURVE",
"58 182 OFFCURVE",
"64 182 CURVE SMOOTH",
"70 182 OFFCURVE",
"74 178 OFFCURVE",
"74 172 CURVE SMOOTH",
"74 166 OFFCURVE",
"70 162 OFFCURVE",
"64 162 CURVE SMOOTH",
"58 162 OFFCURVE",
"54 166 OFFCURVE",
"54 172 CURVE SMOOTH"
);
},
{
closed = 1;
nodes = (
"59 113 LINE",
"59 113 OFFCURVE",
"63 129 OFFCURVE",
"63 129 CURVE SMOOTH",
"63 129 OFFCURVE",
"67 113 OFFCURVE",
"67 113 CURVE SMOOTH",
"67 113 OFFCURVE",
"87 52 OFFCURVE",
"87 52 CURVE SMOOTH",
"87 52 OFFCURVE",
"40 52 OFFCURVE",
"40 52 CURVE"
);
}
);
width = 128;
}
);
note = Aring;
unicode = 00C5;
},
{
glyphname = Atilde;
layers = (
{
hints = (
{
horizontal = 1;
place = "{36, 16}";
type = Stem;
},
{
horizontal = 1;
place = "{129, 33}";
type = Stem;
},
{
place = "{3, 122}";
type = Stem;
},
{
horizontal = 1;
place = "{0, 52}";
type = Stem;
}
);
layerId = "0835C59E-AAFD-4756-A43C-35DA64A2CD7E";
paths = (
{
closed = 1;
nodes = (
"55 187 OFFCURVE",
"66 170 OFFCURVE",
"77 170 CURVE SMOOTH",
"91 170 OFFCURVE",
"104 183 OFFCURVE",
"104 199 CURVE",
"91 199 LINE",
"90 195 OFFCURVE",
"89 185 OFFCURVE",
"77 185 CURVE SMOOTH",
"68 185 OFFCURVE",
"64 199 OFFCURVE",
"47 199 CURVE SMOOTH",
"33 199 OFFCURVE",
"25 185 OFFCURVE",
"25 169 CURVE",
"25 169 OFFCURVE",
"38 169 OFFCURVE",
"38 169 CURVE",
"39 175 OFFCURVE",
"40 181 OFFCURVE",
"47 184 CURVE"
);
},
{
closed = 1;
nodes = (
"91 36 LINE",
"91 36 OFFCURVE",
"102 0 OFFCURVE",
"102 0 CURVE SMOOTH",
"102 0 OFFCURVE",
"125 0 OFFCURVE",
"125 0 CURVE SMOOTH",
"125 0 OFFCURVE",
"75 162 OFFCURVE",
"75 162 CURVE SMOOTH",
"75 162 OFFCURVE",
"53 162 OFFCURVE",
"53 162 CURVE SMOOTH",
"53 162 OFFCURVE",
"3 0 OFFCURVE",
"3 0 CURVE SMOOTH",
"3 0 OFFCURVE",
"24 0 OFFCURVE",
"24 0 CURVE SMOOTH",
"24 0 OFFCURVE",
"35 36 OFFCURVE",
"35 36 CURVE"
);
},
{
closed = 1;
nodes = (
"59 113 LINE",
"59 113 OFFCURVE",
"63 129 OFFCURVE",
"63 129 CURVE SMOOTH",
"63 129 OFFCURVE",
"67 113 OFFCURVE",
"67 113 CURVE SMOOTH",
"67 113 OFFCURVE",
"87 52 OFFCURVE",
"87 52 CURVE SMOOTH",
"87 52 OFFCURVE",
"40 52 OFFCURVE",
"40 52 CURVE"
);
}
);
width = 128;
}
);
note = Atilde;
unicode = 00C3;
},
{
glyphname = AE;
layers = (
{
hints = (
{
horizontal = 1;
place = "{0, 18}";
type = Stem;
},
{
horizontal = 1;
place = "{36, 16}";
type = Stem;
},
{
horizontal = 1;
place = "{74, 17}";
type = Stem;
},
{
horizontal = 1;
place = "{129, 33}";
type = Stem;
},
{
place = "{-56, 184}";
type = Stem;
},
{
place = "{90, 21}";
type = Stem;
},
{
horizontal = 1;
place = "{0, 52}";
type = Stem;
},
{
horizontal = 1;
place = "{145, 17}";
type = Stem;
},
{
place = "{111, 58}";
type = Stem;
}
);
layerId = "0835C59E-AAFD-4756-A43C-35DA64A2CD7E";
paths = (
{
closed = 1;
nodes = (
"111 18 LINE SMOOTH",
"111 18 OFFCURVE",
"111 74 OFFCURVE",
"111 74 CURVE SMOOTH",
"111 74 OFFCURVE",
"169 74 OFFCURVE",
"169 74 CURVE SMOOTH",
"169 74 OFFCURVE",
"169 91 OFFCURVE",
"169 91 CURVE SMOOTH",
"169 91 OFFCURVE",
"111 91 OFFCURVE",
"111 91 CURVE SMOOTH",
"111 91 OFFCURVE",
"111 145 OFFCURVE",
"111 145 CURVE SMOOTH",
"111 145 OFFCURVE",
"176 145 OFFCURVE",
"176 145 CURVE SMOOTH",
"176 145 OFFCURVE",
"176 162 OFFCURVE",
"176 162 CURVE SMOOTH",
"77 162 LINE SMOOTH",
"77 162 OFFCURVE",
"6 0 OFFCURVE",
"6 0 CURVE",
"27 0 LINE",
"27 0 OFFCURVE",
"41 36 OFFCURVE",
"41 36 CURVE",
"90 36 LINE",
"90 36 OFFCURVE",
"90 0 OFFCURVE",
"90 0 CURVE SMOOTH",
"90 0 OFFCURVE",
"177 0 OFFCURVE",
"177 0 CURVE SMOOTH",
"177 0 OFFCURVE",
"177 18 OFFCURVE",
"177 18 CURVE SMOOTH"
);
},
{
closed = 1;
nodes = (
"90 145 LINE",
"90 145 OFFCURVE",
"90 52 OFFCURVE",
"90 52 CURVE SMOOTH",
"90 52 OFFCURVE",
"48 52 OFFCURVE",
"48 52 CURVE"
);
}
);
width = 183;
}
);
note = AE;
unicode = 00C6;
},
{
glyphname = B;
layers = (
{
hints = (
{
horizontal = 1;
place = "{0, 16}";
type = Stem;
},
{
horizontal = 1;
place = "{73, 16}";
type = Stem;
},
{
horizontal = 1;
place = "{145, 17}";
type = Stem;
},
{
place = "{18, 21}";
type = Stem;
},
{
place = "{91, 21}";
type = Stem;
},
{
place = "{87, 20}";
type = Stem;
}
);
layerId = "0835C59E-AAFD-4756-A43C-35DA64A2CD7E";
paths = (
{
closed = 1;
nodes = (
"76 0 OFFCURVE",
"90 4 OFFCURVE",
"99 12 CURVE",
"108 19 OFFCURVE",
"112 29 OFFCURVE",
"112 42 CURVE SMOOTH",
"112 60 OFFCURVE",
"101 74 OFFCURVE",
"80 83 CURVE",
"98 93 OFFCURVE",
"107 107 OFFCURVE",
"107 125 CURVE SMOOTH",
"107 136 OFFCURVE",
"103 146 OFFCURVE",
"96 153 CURVE",
"88 159 OFFCURVE",
"72 162 OFFCURVE",
"49 162 CURVE SMOOTH",
"49 162 OFFCURVE",
"18 162 OFFCURVE",
"18 162 CURVE SMOOTH",
"18 162 OFFCURVE",
"18 0 OFFCURVE",
"18 0 CURVE SMOOTH",
"18 0 OFFCURVE",
"57 0 OFFCURVE",
"57 0 CURVE"
);
},
{
closed = 1;
nodes = (
"66 145 OFFCURVE",
"75 143 OFFCURVE",
"80 140 CURVE",
"85 136 OFFCURVE",
"87 130 OFFCURVE",
"87 123 CURVE SMOOTH",
"87 108 OFFCURVE",
"78 96 OFFCURVE",
"61 89 CURVE",
"61 89 OFFCURVE",
"39 89 OFFCURVE",
"39 89 CURVE",
"39 145 LINE",
"39 145 OFFCURVE",
"54 145 OFFCURVE",
"54 145 CURVE"
);
},
{
closed = 1;
nodes = (
"62 73 OFFCURVE",
"74 70 OFFCURVE",
"81 65 CURVE",
"88 59 OFFCURVE",
"91 52 OFFCURVE",
"91 43 CURVE SMOOTH",
"91 25 OFFCURVE",
"80 16 OFFCURVE",
"59 16 CURVE SMOOTH",
"59 16 OFFCURVE",
"39 16 OFFCURVE",
"39 16 CURVE",
"39 73 LINE",
"39 73 OFFCURVE",
"45 73 OFFCURVE",
"45 73 CURVE"
);
}
);
width = 128;
}
);
note = B;
unicode = 0042;
},
{
glyphname = C;
layers = (
{
hints = (
{
horizontal = 1;
place = "{-5, 16}";
type = Stem;
},
{
horizontal = 1;
place = "{150, 17}";
type = Stem;
},
{
place = "{12, 22}";
type = Stem;
}
);
layerId = "0835C59E-AAFD-4756-A43C-35DA64A2CD7E";
paths = (
{
closed = 1;
nodes = (
"94 -5 OFFCURVE",
"104 -3 OFFCURVE",
"113 2 CURVE",
"113 2 OFFCURVE",
"113 21 OFFCURVE",
"113 21 CURVE",
"102 14 OFFCURVE",
"91 11 OFFCURVE",
"80 11 CURVE SMOOTH",
"68 11 OFFCURVE",
"58 16 OFFCURVE",
"50 27 CURVE",
"39 40 OFFCURVE",
"34 58 OFFCURVE",
"34 81 CURVE SMOOTH",
"34 104 OFFCURVE",
"39 121 OFFCURVE",
"50 134 CURVE",
"58 145 OFFCURVE",
"68 150 OFFCURVE",
"80 150 CURVE SMOOTH",
"91 150 OFFCURVE",
"102 147 OFFCURVE",
"113 141 CURVE",
"113 141 OFFCURVE",
"113 160 OFFCURVE",
"113 160 CURVE",
"104 165 OFFCURVE",
"94 167 OFFCURVE",
"81 167 CURVE SMOOTH",
"33 167 OFFCURVE",
"12 124 OFFCURVE",
"12 81 CURVE SMOOTH",
"12 39 OFFCURVE",
"34 -5 OFFCURVE",
"81 -5 CURVE SMOOTH"
);
}
);
width = 128;
}
);
note = C;
unicode = 0043;
},
{
glyphname = Cacute;
layers = (
{
hints = (
{
horizontal = 1;
place = "{-5, 16}";
type = Stem;
},
{
horizontal = 1;
place = "{150, 17}";
type = Stem;
},
{
horizontal = 1;
place = "{242, 18}";
type = Stem;
},
{
place = "{12, 22}";
type = Stem;
},
{
place = "{100, 64}";
type = Stem;
},
{
place = "{151, 11}";
type = Stem;
}
);
layerId = "0835C59E-AAFD-4756-A43C-35DA64A2CD7E";
paths = (
{
closed = 1;
nodes = (
"68 214 LINE SMOOTH",
"68 214 OFFCURVE",
"37 180 OFFCURVE",
"37 180 CURVE SMOOTH",
"37 180 OFFCURVE",
"55 180 OFFCURVE",
"55 180 CURVE SMOOTH",
"55 180 OFFCURVE",
"91 214 OFFCURVE",
"91 214 CURVE SMOOTH"
);
},
{
closed = 1;
nodes = (
"94 -5 OFFCURVE",
"104 -3 OFFCURVE",
"113 2 CURVE",
"113 2 OFFCURVE",
"113 21 OFFCURVE",
"113 21 CURVE",
"102 14 OFFCURVE",
"91 11 OFFCURVE",
"80 11 CURVE SMOOTH",
"68 11 OFFCURVE",
"58 16 OFFCURVE",
"50 27 CURVE",
"39 40 OFFCURVE",
"34 58 OFFCURVE",
"34 81 CURVE SMOOTH",
"34 104 OFFCURVE",
"39 121 OFFCURVE",
"50 134 CURVE",
"58 145 OFFCURVE",
"68 150 OFFCURVE",
"80 150 CURVE SMOOTH",
"91 150 OFFCURVE",
"102 147 OFFCURVE",
"113 141 CURVE",
"113 141 OFFCURVE",
"113 160 OFFCURVE",
"113 160 CURVE",
"104 165 OFFCURVE",
"94 167 OFFCURVE",
"81 167 CURVE SMOOTH",
"33 167 OFFCURVE",
"12 124 OFFCURVE",
"12 81 CURVE SMOOTH",
"12 39 OFFCURVE",
"34 -5 OFFCURVE",
"81 -5 CURVE SMOOTH"
);
}
);
width = 128;
}
);
note = Cacute;
unicode = 0106;
},
{
glyphname = Ccaron;
layers = (
{
hints = (
{
horizontal = 1;
place = "{-5, 16}";
type = Stem;
},
{
horizontal = 1;
place = "{150, 17}";
type = Stem;
},
{
place = "{12, 22}";
type = Stem;
}
);
layerId = "0835C59E-AAFD-4756-A43C-35DA64A2CD7E";
paths = (
{
closed = 1;
nodes = (
"94 -5 OFFCURVE",
"104 -3 OFFCURVE",
"113 2 CURVE",
"113 2 OFFCURVE",
"113 21 OFFCURVE",
"113 21 CURVE",
"102 14 OFFCURVE",
"91 11 OFFCURVE",
"80 11 CURVE SMOOTH",
"68 11 OFFCURVE",
"58 16 OFFCURVE",
"50 27 CURVE",
"39 40 OFFCURVE",
"34 58 OFFCURVE",
"34 81 CURVE SMOOTH",
"34 104 OFFCURVE",
"39 121 OFFCURVE",
"50 134 CURVE",
"58 145 OFFCURVE",
"68 150 OFFCURVE",
"80 150 CURVE SMOOTH",
"91 150 OFFCURVE",
"102 147 OFFCURVE",
"113 141 CURVE",
"113 141 OFFCURVE",
"113 160 OFFCURVE",
"113 160 CURVE",
"101 167 OFFCURVE",
"89 167 OFFCURVE",
"76 167 CURVE",
"78 169 OFFCURVE",
"105 198 OFFCURVE",
"105 198 CURVE SMOOTH",
"105 198 OFFCURVE",
"88 198 OFFCURVE",
"88 198 CURVE",
"64 178 LINE",
"41 198 LINE",
"41 198 OFFCURVE",
"24 198 OFFCURVE",
"24 198 CURVE SMOOTH",
"24 198 OFFCURVE",
"56 164 OFFCURVE",
"56 164 CURVE SMOOTH",
"56 164 OFFCURVE",
"57 164 OFFCURVE",
"59 164 CURVE",
"27 154 OFFCURVE",
"12 117 OFFCURVE",
"12 81 CURVE SMOOTH",
"12 39 OFFCURVE",
"34 -5 OFFCURVE",
"81 -5 CURVE SMOOTH"
);
}
);
width = 128;
}
);
note = Ccaron;
unicode = 010C;
},
{
glyphname = Ccedilla;
layers = (
{
hints = (
{
horizontal = 1;
place = "{-5, 16}";
type = Stem;
},
{
horizontal = 1;
place = "{150, 17}";
type = Stem;
},
{
place = "{12, 22}";
type = Stem;
}
);
layerId = "0835C59E-AAFD-4756-A43C-35DA64A2CD7E";
paths = (
{
closed = 1;
nodes = (
"45 -42 LINE",
"84 -42 LINE",
"84 -5 LINE",
"96 -5 OFFCURVE",
"105 -3 OFFCURVE",
"113 2 CURVE",
"113 2 OFFCURVE",
"113 21 OFFCURVE",
"113 21 CURVE",
"102 14 OFFCURVE",
"91 11 OFFCURVE",
"80 11 CURVE SMOOTH",
"68 11 OFFCURVE",
"58 16 OFFCURVE",
"50 27 CURVE",
"39 40 OFFCURVE",
"34 58 OFFCURVE",
"34 81 CURVE SMOOTH",
"34 104 OFFCURVE",
"39 121 OFFCURVE",
"50 134 CURVE",
"58 145 OFFCURVE",
"68 150 OFFCURVE",
"80 150 CURVE SMOOTH",
"91 150 OFFCURVE",
"102 147 OFFCURVE",
"113 141 CURVE",
"113 141 OFFCURVE",
"113 160 OFFCURVE",
"113 160 CURVE",
"104 165 OFFCURVE",
"94 167 OFFCURVE",
"81 167 CURVE SMOOTH",
"33 167 OFFCURVE",
"12 124 OFFCURVE",
"12 81 CURVE SMOOTH",
"12 42 OFFCURVE",
"31 2 OFFCURVE",
"70 -4 CURVE",
"70 -28 LINE",
"45 -28 LINE"
);
}
);
width = 128;
}
);
note = Ccedilla;
unicode = 00C7;
},
{
glyphname = Ccircumflex;
layers = (
{
hints = (
{
horizontal = 1;
place = "{-5, 16}";
type = Stem;
},
{
horizontal = 1;
place = "{150, 17}";
type = Stem;
},
{
place = "{12, 22}";
type = Stem;
}
);
layerId = "0835C59E-AAFD-4756-A43C-35DA64A2CD7E";
paths = (
{
closed = 1;
nodes = (
"56 213 OFFCURVE",
"24 179 OFFCURVE",
"24 179 CURVE SMOOTH",
"24 179 OFFCURVE",
"41 179 OFFCURVE",
"41 179 CURVE",
"64 199 LINE",
"88 179 LINE",
"88 179 OFFCURVE",
"105 179 OFFCURVE",
"105 179 CURVE SMOOTH",
"105 179 OFFCURVE",
"73 213 OFFCURVE",
"73 213 CURVE SMOOTH",
"73 213 OFFCURVE",
"56 213 OFFCURVE",
"56 213 CURVE SMOOTH"
);
},
{
closed = 1;
nodes = (
"94 -5 OFFCURVE",
"104 -3 OFFCURVE",
"113 2 CURVE",
"113 2 OFFCURVE",
"113 21 OFFCURVE",
"113 21 CURVE",
"102 14 OFFCURVE",
"91 11 OFFCURVE",
"80 11 CURVE SMOOTH",
"68 11 OFFCURVE",
"58 16 OFFCURVE",
"50 27 CURVE",
"39 40 OFFCURVE",
"34 58 OFFCURVE",
"34 81 CURVE SMOOTH",
"34 104 OFFCURVE",
"39 121 OFFCURVE",
"50 134 CURVE",
"58 145 OFFCURVE",
"68 150 OFFCURVE",
"80 150 CURVE SMOOTH",
"91 150 OFFCURVE",
"102 147 OFFCURVE",
"113 141 CURVE",
"113 141 OFFCURVE",
"113 160 OFFCURVE",
"113 160 CURVE",
"104 165 OFFCURVE",
"94 167 OFFCURVE",
"81 167 CURVE SMOOTH",
"33 167 OFFCURVE",
"12 124 OFFCURVE",
"12 81 CURVE SMOOTH",
"12 39 OFFCURVE",
"34 -5 OFFCURVE",
"81 -5 CURVE SMOOTH"
);
}
);
width = 128;
}
);
note = Ccircumflex;
unicode = 0108;
},
{
glyphname = D;
layers = (
{
hints = (
{
horizontal = 1;
place = "{0, 18}";
type = Stem;
},
{
horizontal = 1;
place = "{145, 17}";
type = Stem;
},
{
place = "{16, 21}";
type = Stem;
},
{
place = "{99, 21}";
type = Stem;
}
);
layerId = "0835C59E-AAFD-4756-A43C-35DA64A2CD7E";
paths = (
{
closed = 1;
nodes = (
"104 0 OFFCURVE",
"120 34 OFFCURVE",
"120 80 CURVE SMOOTH",
"120 128 OFFCURVE",
"107 162 OFFCURVE",
"54 162 CURVE SMOOTH",
"54 162 OFFCURVE",
"16 162 OFFCURVE",
"16 162 CURVE SMOOTH",
"16 162 OFFCURVE",
"16 0 OFFCURVE",
"16 0 CURVE SMOOTH",
"16 0 OFFCURVE",
"54 0 OFFCURVE",
"54 0 CURVE"
);
},
{
closed = 1;
nodes = (
"68 145 OFFCURVE",
"80 141 OFFCURVE",
"88 132 CURVE",
"95 123 OFFCURVE",
"99 107 OFFCURVE",
"99 84 CURVE SMOOTH",
"99 59 OFFCURVE",
"95 41 OFFCURVE",
"88 32 CURVE",
"80 23 OFFCURVE",
"68 18 OFFCURVE",
"51 18 CURVE SMOOTH",
"51 18 OFFCURVE",
"37 18 OFFCURVE",
"37 18 CURVE",
"37 145 LINE",
"37 145 OFFCURVE",
"53 145 OFFCURVE",
"53 145 CURVE"
);
}
);
width = 128;
}
);
note = D;
unicode = 0044;
},
{
glyphname = Dcaron;
layers = (
{
hints = (
{
horizontal = 1;
place = "{0, 18}";
type = Stem;
},
{
horizontal = 1;
place = "{145, 17}";
type = Stem;
},
{
place = "{16, 21}";
type = Stem;
},
{
place = "{99, 21}";
type = Stem;
}
);
layerId = "0835C59E-AAFD-4756-A43C-35DA64A2CD7E";
paths = (
{
closed = 1;
nodes = (
"56 174 OFFCURVE",
"73 174 OFFCURVE",
"73 174 CURVE SMOOTH",
"73 174 OFFCURVE",
"105 208 OFFCURVE",
"105 208 CURVE SMOOTH",
"88 208 LINE",
"64 188 LINE",
"41 208 LINE",
"41 208 OFFCURVE",
"24 208 OFFCURVE",
"24 208 CURVE SMOOTH",
"24 208 OFFCURVE",
"56 174 OFFCURVE",
"56 174 CURVE SMOOTH"
);
},
{
closed = 1;
nodes = (
"104 0 OFFCURVE",
"120 34 OFFCURVE",
"120 80 CURVE SMOOTH",
"120 128 OFFCURVE",
"107 162 OFFCURVE",
"54 162 CURVE SMOOTH",
"54 162 OFFCURVE",
"16 162 OFFCURVE",
"16 162 CURVE SMOOTH",
"16 162 OFFCURVE",
"16 0 OFFCURVE",
"16 0 CURVE SMOOTH",
"16 0 OFFCURVE",
"54 0 OFFCURVE",
"54 0 CURVE"
);
},
{
closed = 1;
nodes = (
"68 145 OFFCURVE",
"80 141 OFFCURVE",
"88 132 CURVE",
"95 123 OFFCURVE",
"99 107 OFFCURVE",
"99 84 CURVE SMOOTH",
"99 59 OFFCURVE",
"95 41 OFFCURVE",
"88 32 CURVE",
"80 23 OFFCURVE",
"68 18 OFFCURVE",
"51 18 CURVE SMOOTH",
"51 18 OFFCURVE",
"37 18 OFFCURVE",
"37 18 CURVE",
"37 145 LINE",
"37 145 OFFCURVE",
"53 145 OFFCURVE",
"53 145 CURVE"
);
}
);
width = 128;
}
);
note = Dcaron;
unicode = 010E;
},
{
glyphname = E;
layers = (
{
hints = (
{
horizontal = 1;
place = "{0, 18}";
type = Stem;
},
{
horizontal = 1;
place = "{74, 17}";
type = Stem;
},
{
horizontal = 1;
place = "{145, 17}";
type = Stem;
},
{
place = "{21, 21}";
type = Stem;
},
{
place = "{42, 58}";
type = Stem;
}
);
layerId = "0835C59E-AAFD-4756-A43C-35DA64A2CD7E";
paths = (
{
closed = 1;
nodes = (
"42 18 LINE SMOOTH",
"42 18 OFFCURVE",
"42 74 OFFCURVE",
"42 74 CURVE SMOOTH",
"42 74 OFFCURVE",
"100 74 OFFCURVE",
"100 74 CURVE SMOOTH",
"100 74 OFFCURVE",
"100 91 OFFCURVE",
"100 91 CURVE SMOOTH",
"100 91 OFFCURVE",
"42 91 OFFCURVE",
"42 91 CURVE SMOOTH",
"42 91 OFFCURVE",
"42 145 OFFCURVE",
"42 145 CURVE SMOOTH",
"42 145 OFFCURVE",
"107 145 OFFCURVE",
"107 145 CURVE SMOOTH",
"107 145 OFFCURVE",
"107 162 OFFCURVE",
"107 162 CURVE SMOOTH",
"107 162 OFFCURVE",
"21 162 OFFCURVE",
"21 162 CURVE SMOOTH",
"21 162 OFFCURVE",
"21 0 OFFCURVE",
"21 0 CURVE SMOOTH",
"21 0 OFFCURVE",
"108 0 OFFCURVE",
"108 0 CURVE SMOOTH",
"108 0 OFFCURVE",
"108 18 OFFCURVE",
"108 18 CURVE SMOOTH"
);
}
);
width = 128;
}
);
note = E;
unicode = 0045;
},
{
glyphname = Eacute;
layers = (
{
hints = (
{
horizontal = 1;
place = "{0, 18}";
type = Stem;
},
{
horizontal = 1;
place = "{74, 17}";
type = Stem;
},
{
horizontal = 1;
place = "{145, 60}";
type = Stem;
},
{
place = "{21, 21}";
type = Stem;
},
{
horizontal = 1;
place = "{145, 17}";
type = Stem;
},
{
place = "{42, 58}";
type = Stem;
}
);
layerId = "0835C59E-AAFD-4756-A43C-35DA64A2CD7E";
paths = (
{
closed = 1;
nodes = (
"69 205 LINE SMOOTH",
"69 205 OFFCURVE",
"38 171 OFFCURVE",
"38 171 CURVE SMOOTH",
"38 171 OFFCURVE",
"56 171 OFFCURVE",
"56 171 CURVE SMOOTH",
"56 171 OFFCURVE",
"92 205 OFFCURVE",
"92 205 CURVE SMOOTH"
);
},
{
closed = 1;
nodes = (
"42 18 LINE SMOOTH",
"42 18 OFFCURVE",
"42 74 OFFCURVE",
"42 74 CURVE SMOOTH",
"42 74 OFFCURVE",
"100 74 OFFCURVE",
"100 74 CURVE SMOOTH",
"100 74 OFFCURVE",
"100 91 OFFCURVE",
"100 91 CURVE SMOOTH",
"100 91 OFFCURVE",
"42 91 OFFCURVE",
"42 91 CURVE SMOOTH",
"42 91 OFFCURVE",
"42 145 OFFCURVE",
"42 145 CURVE SMOOTH",
"42 145 OFFCURVE",
"107 145 OFFCURVE",
"107 145 CURVE SMOOTH",
"107 145 OFFCURVE",
"107 162 OFFCURVE",
"107 162 CURVE SMOOTH",
"107 162 OFFCURVE",
"21 162 OFFCURVE",
"21 162 CURVE SMOOTH",
"21 162 OFFCURVE",
"21 0 OFFCURVE",
"21 0 CURVE SMOOTH",
"21 0 OFFCURVE",
"108 0 OFFCURVE",
"108 0 CURVE SMOOTH",
"108 0 OFFCURVE",
"108 18 OFFCURVE",
"108 18 CURVE SMOOTH"
);
}
);
width = 125;
}
);
note = Eacute;
unicode = 00C9;
},
{
glyphname = Ecaron;
layers = (
{
hints = (
{
horizontal = 1;
place = "{0, 18}";
type = Stem;
},
{
horizontal = 1;
place = "{74, 17}";
type = Stem;
},
{
horizontal = 1;
place = "{145, 17}";
type = Stem;
},
{
place = "{21, 21}";
type = Stem;
},
{
place = "{42, 58}";
type = Stem;
}
);
layerId = "0835C59E-AAFD-4756-A43C-35DA64A2CD7E";
paths = (
{
closed = 1;
nodes = (
"56 170 OFFCURVE",
"73 170 OFFCURVE",
"73 170 CURVE SMOOTH",
"73 170 OFFCURVE",
"105 204 OFFCURVE",
"105 204 CURVE SMOOTH",
"88 204 LINE",
"64 184 LINE",
"41 204 LINE",
"41 204 OFFCURVE",
"24 204 OFFCURVE",
"24 204 CURVE SMOOTH",
"24 204 OFFCURVE",
"56 170 OFFCURVE",
"56 170 CURVE SMOOTH"
);
},
{
closed = 1;
nodes = (
"42 18 LINE SMOOTH",
"42 18 OFFCURVE",
"42 74 OFFCURVE",
"42 74 CURVE SMOOTH",
"42 74 OFFCURVE",
"100 74 OFFCURVE",
"100 74 CURVE SMOOTH",
"100 74 OFFCURVE",
"100 91 OFFCURVE",
"100 91 CURVE SMOOTH",
"100 91 OFFCURVE",
"42 91 OFFCURVE",
"42 91 CURVE SMOOTH",
"42 91 OFFCURVE",
"42 145 OFFCURVE",
"42 145 CURVE SMOOTH",
"42 145 OFFCURVE",
"107 145 OFFCURVE",
"107 145 CURVE SMOOTH",
"107 145 OFFCURVE",
"107 162 OFFCURVE",
"107 162 CURVE SMOOTH",
"107 162 OFFCURVE",
"21 162 OFFCURVE",
"21 162 CURVE SMOOTH",
"21 162 OFFCURVE",
"21 0 OFFCURVE",
"21 0 CURVE SMOOTH",
"21 0 OFFCURVE",
"108 0 OFFCURVE",
"108 0 CURVE SMOOTH",
"108 0 OFFCURVE",
"108 18 OFFCURVE",
"108 18 CURVE SMOOTH"
);
}
);
width = 128;
}
);
note = Ecaron;
unicode = 011A;
},
{
glyphname = Ecircumflex;
layers = (
{
hints = (
{
horizontal = 1;
place = "{0, 18}";
type = Stem;
},
{
horizontal = 1;
place = "{74, 17}";
type = Stem;
},
{
horizontal = 1;
place = "{145, 17}";
type = Stem;
},
{
place = "{21, 21}";
type = Stem;
},
{
place = "{42, 58}";
type = Stem;
}
);
layerId = "0835C59E-AAFD-4756-A43C-35DA64A2CD7E";
paths = (
{
closed = 1;
nodes = (
"56 209 OFFCURVE",
"24 175 OFFCURVE",
"24 175 CURVE SMOOTH",
"24 175 OFFCURVE",
"41 175 OFFCURVE",
"41 175 CURVE",
"64 195 LINE",
"88 175 LINE",
"88 175 OFFCURVE",
"105 175 OFFCURVE",
"105 175 CURVE SMOOTH",
"105 175 OFFCURVE",
"73 209 OFFCURVE",
"73 209 CURVE SMOOTH",
"73 209 OFFCURVE",
"56 209 OFFCURVE",
"56 209 CURVE SMOOTH"
);
},
{
closed = 1;
nodes = (
"42 18 LINE SMOOTH",
"42 18 OFFCURVE",
"42 74 OFFCURVE",
"42 74 CURVE SMOOTH",
"42 74 OFFCURVE",
"100 74 OFFCURVE",
"100 74 CURVE SMOOTH",
"100 74 OFFCURVE",
"100 91 OFFCURVE",
"100 91 CURVE SMOOTH",
"100 91 OFFCURVE",
"42 91 OFFCURVE",
"42 91 CURVE SMOOTH",
"42 91 OFFCURVE",
"42 145 OFFCURVE",
"42 145 CURVE SMOOTH",
"42 145 OFFCURVE",
"107 145 OFFCURVE",
"107 145 CURVE SMOOTH",
"107 145 OFFCURVE",
"107 162 OFFCURVE",
"107 162 CURVE SMOOTH",
"107 162 OFFCURVE",
"21 162 OFFCURVE",
"21 162 CURVE SMOOTH",
"21 162 OFFCURVE",
"21 0 OFFCURVE",
"21 0 CURVE SMOOTH",
"21 0 OFFCURVE",
"108 0 OFFCURVE",
"108 0 CURVE SMOOTH",
"108 0 OFFCURVE",
"108 18 OFFCURVE",
"108 18 CURVE SMOOTH"
);
}
);
width = 128;
}
);
note = Ecircumflex;
unicode = 00CA;
},
{
glyphname = Edieresis;
layers = (
{
hints = (
{
horizontal = 1;
place = "{0, 18}";
type = Stem;
},
{
horizontal = 1;
place = "{74, 17}";
type = Stem;
},
{
horizontal = 1;
place = "{145, 17}";
type = Stem;
},
{
horizontal = 1;
place = "{234, 22}";
type = Stem;
},
{
place = "{21, 21}";
type = Stem;
},
{
place = "{86, 21}";
type = Stem;
},
{
place = "{42, 58}";
type = Stem;
}
);
layerId = "0835C59E-AAFD-4756-A43C-35DA64A2CD7E";
paths = (
{
closed = 1;
nodes = (
"49 182 OFFCURVE",
"53 186 OFFCURVE",
"53 186 CURVE",
"53 199 LINE",
"53 199 OFFCURVE",
"49 204 OFFCURVE",
"49 204 CURVE SMOOTH",
"49 204 OFFCURVE",
"35 204 OFFCURVE",
"35 204 CURVE SMOOTH",
"35 204 OFFCURVE",
"31 200 OFFCURVE",
"31 200 CURVE SMOOTH",
"31 200 OFFCURVE",
"31 187 OFFCURVE",
"31 187 CURVE SMOOTH",
"31 187 OFFCURVE",
"36 182 OFFCURVE",
"36 182 CURVE SMOOTH",
"36 182 OFFCURVE",
"49 182 OFFCURVE",
"49 182 CURVE SMOOTH"
);
},
{
closed = 1;
nodes = (
"80 182 OFFCURVE",
"93 182 OFFCURVE",
"93 182 CURVE SMOOTH",
"93 182 OFFCURVE",
"97 186 OFFCURVE",
"97 186 CURVE",
"97 199 LINE",
"97 199 OFFCURVE",
"93 204 OFFCURVE",
"93 204 CURVE SMOOTH",
"93 204 OFFCURVE",
"79 204 OFFCURVE",
"79 204 CURVE SMOOTH",
"79 204 OFFCURVE",
"76 200 OFFCURVE",
"76 200 CURVE SMOOTH",
"76 200 OFFCURVE",
"76 186 OFFCURVE",
"76 186 CURVE SMOOTH",
"76 186 OFFCURVE",
"80 182 OFFCURVE",
"80 182 CURVE SMOOTH"
);
},
{
closed = 1;
nodes = (
"42 18 LINE SMOOTH",
"42 18 OFFCURVE",
"42 74 OFFCURVE",
"42 74 CURVE SMOOTH",
"42 74 OFFCURVE",
"100 74 OFFCURVE",
"100 74 CURVE SMOOTH",
"100 74 OFFCURVE",
"100 91 OFFCURVE",
"100 91 CURVE SMOOTH",
"100 91 OFFCURVE",
"42 91 OFFCURVE",
"42 91 CURVE SMOOTH",
"42 91 OFFCURVE",
"42 145 OFFCURVE",
"42 145 CURVE SMOOTH",
"42 145 OFFCURVE",
"107 145 OFFCURVE",
"107 145 CURVE SMOOTH",
"107 145 OFFCURVE",
"107 162 OFFCURVE",
"107 162 CURVE SMOOTH",
"107 162 OFFCURVE",
"21 162 OFFCURVE",
"21 162 CURVE SMOOTH",
"21 162 OFFCURVE",
"21 0 OFFCURVE",
"21 0 CURVE SMOOTH",
"21 0 OFFCURVE",
"108 0 OFFCURVE",
"108 0 CURVE SMOOTH",
"108 0 OFFCURVE",
"108 18 OFFCURVE",
"108 18 CURVE SMOOTH"
);
}
);
width = 128;
}
);
note = Edieresis;
unicode = 00CB;
},
{
glyphname = Egrave;
layers = (
{
hints = (
{
horizontal = 1;
place = "{0, 18}";
type = Stem;
},
{
horizontal = 1;
place = "{74, 17}";
type = Stem;
},
{
horizontal = 1;
place = "{145, 60}";
type = Stem;
},
{
place = "{21, 21}";
type = Stem;
},
{
place = "{92, 15}";
type = Stem;
},
{
horizontal = 1;
place = "{145, 17}";
type = Stem;
},
{
place = "{42, 58}";
type = Stem;
}
);
layerId = "0835C59E-AAFD-4756-A43C-35DA64A2CD7E";
paths = (
{
closed = 1;
nodes = (
"38 205 LINE SMOOTH",
"38 205 OFFCURVE",
"74 171 OFFCURVE",
"74 171 CURVE SMOOTH",
"74 171 OFFCURVE",
"92 171 OFFCURVE",
"92 171 CURVE SMOOTH",
"92 171 OFFCURVE",
"61 205 OFFCURVE",
"61 205 CURVE SMOOTH"
);
},
{
closed = 1;
nodes = (
"42 18 LINE SMOOTH",
"42 18 OFFCURVE",
"42 74 OFFCURVE",
"42 74 CURVE SMOOTH",
"42 74 OFFCURVE",
"100 74 OFFCURVE",
"100 74 CURVE SMOOTH",
"100 74 OFFCURVE",
"100 91 OFFCURVE",
"100 91 CURVE SMOOTH",
"100 91 OFFCURVE",
"42 91 OFFCURVE",
"42 91 CURVE SMOOTH",
"42 91 OFFCURVE",
"42 145 OFFCURVE",
"42 145 CURVE SMOOTH",
"42 145 OFFCURVE",
"107 145 OFFCURVE",
"107 145 CURVE SMOOTH",
"107 145 OFFCURVE",
"107 162 OFFCURVE",
"107 162 CURVE SMOOTH",
"107 162 OFFCURVE",
"21 162 OFFCURVE",
"21 162 CURVE SMOOTH",
"21 162 OFFCURVE",
"21 0 OFFCURVE",
"21 0 CURVE SMOOTH",
"21 0 OFFCURVE",
"108 0 OFFCURVE",
"108 0 CURVE SMOOTH",
"108 0 OFFCURVE",
"108 18 OFFCURVE",
"108 18 CURVE SMOOTH"
);
}
);
width = 125;
}
);
note = Egrave;
unicode = 00C8;
},
{
glyphname = Emacron;
layers = (
{
hints = (
{
horizontal = 1;
place = "{0, 18}";
type = Stem;
},
{
horizontal = 1;
place = "{74, 17}";
type = Stem;
},
{
horizontal = 1;
place = "{145, 17}";
type = Stem;
},
{
place = "{21, 21}";
type = Stem;
},
{
place = "{42, 58}";
type = Stem;
}
);
layerId = "0835C59E-AAFD-4756-A43C-35DA64A2CD7E";
paths = (
{
closed = 1;
nodes = (
"37 177 LINE",
"91 177 LINE",
"91 191 LINE",
"37 191 LINE"
);
},
{
closed = 1;
nodes = (
"42 18 LINE SMOOTH",
"42 18 OFFCURVE",
"42 74 OFFCURVE",
"42 74 CURVE SMOOTH",
"42 74 OFFCURVE",
"100 74 OFFCURVE",
"100 74 CURVE SMOOTH",
"100 74 OFFCURVE",
"100 91 OFFCURVE",
"100 91 CURVE SMOOTH",
"100 91 OFFCURVE",
"42 91 OFFCURVE",
"42 91 CURVE SMOOTH",
"42 91 OFFCURVE",
"42 145 OFFCURVE",
"42 145 CURVE SMOOTH",
"42 145 OFFCURVE",
"107 145 OFFCURVE",
"107 145 CURVE SMOOTH",
"107 145 OFFCURVE",
"107 162 OFFCURVE",
"107 162 CURVE SMOOTH",
"107 162 OFFCURVE",
"21 162 OFFCURVE",
"21 162 CURVE SMOOTH",
"21 162 OFFCURVE",
"21 0 OFFCURVE",
"21 0 CURVE SMOOTH",
"21 0 OFFCURVE",
"108 0 OFFCURVE",
"108 0 CURVE SMOOTH",
"108 0 OFFCURVE",
"108 18 OFFCURVE",
"108 18 CURVE SMOOTH"
);
}
);
width = 128;
}
);
note = Emacron;
unicode = 0112;
},
{
glyphname = F;
layers = (
{
hints = (
{
horizontal = 1;
place = "{0, 21}";
target = up;
type = BottomGhost;
},
{
horizontal = 1;
place = "{74, 17}";
type = Stem;
},
{
horizontal = 1;
place = "{145, 17}";
type = Stem;
},
{
place = "{24, 21}";
type = Stem;
},
{
place = "{45, 61}";
type = Stem;
}
);
layerId = "0835C59E-AAFD-4756-A43C-35DA64A2CD7E";
paths = (
{
closed = 1;
nodes = (
"45 0 OFFCURVE",
"45 74 OFFCURVE",
"45 74 CURVE",
"106 74 LINE",
"106 74 OFFCURVE",
"106 91 OFFCURVE",
"106 91 CURVE SMOOTH",
"106 91 OFFCURVE",
"45 91 OFFCURVE",
"45 91 CURVE SMOOTH",
"45 91 OFFCURVE",
"45 145 OFFCURVE",
"45 145 CURVE SMOOTH",
"45 145 OFFCURVE",
"112 145 OFFCURVE",
"112 145 CURVE SMOOTH",
"112 145 OFFCURVE",
"112 162 OFFCURVE",
"112 162 CURVE SMOOTH",
"112 162 OFFCURVE",
"24 162 OFFCURVE",
"24 162 CURVE SMOOTH",
"24 162 OFFCURVE",
"24 0 OFFCURVE",
"24 0 CURVE SMOOTH",
"24 0 OFFCURVE",
"45 0 OFFCURVE",
"45 0 CURVE SMOOTH"
);
}
);
width = 128;
}
);
note = F;
unicode = 0046;
},
{
glyphname = G;
layers = (
{
hints = (
{
horizontal = 1;
place = "{-5, 17}";
type = Stem;
},
{
horizontal = 1;
place = "{64, 16}";
type = Stem;
},
{
horizontal = 1;
place = "{150, 17}";
type = Stem;
},
{
place = "{12, 22}";
type = Stem;
},
{
place = "{92, 21}";
type = Stem;
},
{
horizontal = 1;
place = "{0, 21}";
target = up;
type = BottomGhost;
}
);
layerId = "0835C59E-AAFD-4756-A43C-35DA64A2CD7E";
paths = (
{
closed = 1;
nodes = (
"86 -5 OFFCURVE",
"96 -3 OFFCURVE",
"113 0 CURVE",
"113 0 OFFCURVE",
"113 80 OFFCURVE",
"113 80 CURVE SMOOTH",
"113 80 OFFCURVE",
"76 80 OFFCURVE",
"76 80 CURVE SMOOTH",
"76 80 OFFCURVE",
"76 64 OFFCURVE",
"76 64 CURVE SMOOTH",
"76 64 OFFCURVE",
"92 64 OFFCURVE",
"92 64 CURVE SMOOTH",
"92 64 OFFCURVE",
"92 12 OFFCURVE",
"92 12 CURVE SMOOTH",
"47 12 OFFCURVE",
"34 40 OFFCURVE",
"34 81 CURVE SMOOTH",
"34 104 OFFCURVE",
"39 121 OFFCURVE",
"50 134 CURVE",
"58 145 OFFCURVE",
"68 150 OFFCURVE",
"80 150 CURVE SMOOTH",
"91 150 OFFCURVE",
"102 147 OFFCURVE",
"113 141 CURVE",
"113 141 OFFCURVE",
"113 160 OFFCURVE",
"113 160 CURVE",
"104 165 OFFCURVE",
"94 167 OFFCURVE",
"81 167 CURVE SMOOTH",
"33 167 OFFCURVE",
"12 124 OFFCURVE",
"12 81 CURVE SMOOTH",
"12 38 OFFCURVE",
"34 -5 OFFCURVE",
"82 -5 CURVE SMOOTH"
);
}
);
width = 128;
}
);
note = G;
unicode = 0047;
},
{
glyphname = Gcircumflex;
layers = (
{
hints = (
{
horizontal = 1;
place = "{-5, 17}";
type = Stem;
},
{
horizontal = 1;
place = "{64, 16}";
type = Stem;
},
{
horizontal = 1;
place = "{150, 17}";
type = Stem;
},
{
place = "{12, 22}";
type = Stem;
},
{
place = "{92, 21}";
type = Stem;
},
{
horizontal = 1;
place = "{0, 21}";
target = up;
type = BottomGhost;
}
);
layerId = "0835C59E-AAFD-4756-A43C-35DA64A2CD7E";
paths = (
{
closed = 1;
nodes = (
"56 213 OFFCURVE",
"24 179 OFFCURVE",
"24 179 CURVE SMOOTH",
"24 179 OFFCURVE",
"41 179 OFFCURVE",
"41 179 CURVE",
"64 199 LINE",
"88 179 LINE",
"88 179 OFFCURVE",
"105 179 OFFCURVE",
"105 179 CURVE SMOOTH",
"105 179 OFFCURVE",
"73 213 OFFCURVE",
"73 213 CURVE SMOOTH",
"73 213 OFFCURVE",
"56 213 OFFCURVE",
"56 213 CURVE SMOOTH"
);
},
{
closed = 1;
nodes = (
"86 -5 OFFCURVE",
"96 -3 OFFCURVE",
"113 0 CURVE",
"113 0 OFFCURVE",
"113 80 OFFCURVE",
"113 80 CURVE SMOOTH",
"113 80 OFFCURVE",
"76 80 OFFCURVE",
"76 80 CURVE SMOOTH",
"76 80 OFFCURVE",
"76 64 OFFCURVE",
"76 64 CURVE SMOOTH",
"76 64 OFFCURVE",
"92 64 OFFCURVE",
"92 64 CURVE SMOOTH",
"92 64 OFFCURVE",
"92 12 OFFCURVE",
"92 12 CURVE SMOOTH",
"47 12 OFFCURVE",
"34 40 OFFCURVE",
"34 81 CURVE SMOOTH",
"34 104 OFFCURVE",
"39 121 OFFCURVE",
"50 134 CURVE",
"58 145 OFFCURVE",
"68 150 OFFCURVE",
"80 150 CURVE SMOOTH",
"91 150 OFFCURVE",
"102 147 OFFCURVE",
"113 141 CURVE",
"113 141 OFFCURVE",
"113 160 OFFCURVE",
"113 160 CURVE",
"104 165 OFFCURVE",
"94 167 OFFCURVE",
"81 167 CURVE SMOOTH",
"33 167 OFFCURVE",
"12 124 OFFCURVE",
"12 81 CURVE SMOOTH",
"12 38 OFFCURVE",
"34 -5 OFFCURVE",
"82 -5 CURVE SMOOTH"
);
}
);
width = 128;
}
);
note = Gcircumflex;
unicode = 011C;
},
{
glyphname = H;
layers = (
{
hints = (
{
horizontal = 1;
place = "{76, 16}";
type = Stem;
},
{
place = "{13, 21}";
type = Stem;
},
{
place = "{94, 21}";
type = Stem;
},
{
horizontal = 1;
place = "{0, 92}";
type = Stem;
},
{
horizontal = 1;
place = "{76, 86}";
type = Stem;
}
);
layerId = "0835C59E-AAFD-4756-A43C-35DA64A2CD7E";
paths = (
{
closed = 1;
nodes = (
"94 76 LINE",
"94 76 OFFCURVE",
"94 0 OFFCURVE",
"94 0 CURVE SMOOTH",
"94 0 OFFCURVE",
"115 0 OFFCURVE",
"115 0 CURVE SMOOTH",
"115 0 OFFCURVE",
"115 162 OFFCURVE",
"115 162 CURVE SMOOTH",
"115 162 OFFCURVE",
"94 162 OFFCURVE",
"94 162 CURVE SMOOTH",
"94 162 OFFCURVE",
"94 92 OFFCURVE",
"94 92 CURVE SMOOTH",
"94 92 OFFCURVE",
"34 92 OFFCURVE",
"34 92 CURVE SMOOTH",
"34 92 OFFCURVE",
"34 162 OFFCURVE",
"34 162 CURVE SMOOTH",
"34 162 OFFCURVE",
"13 162 OFFCURVE",
"13 162 CURVE SMOOTH",
"13 162 OFFCURVE",
"13 0 OFFCURVE",
"13 0 CURVE SMOOTH",
"13 0 OFFCURVE",
"34 0 OFFCURVE",
"34 0 CURVE SMOOTH",
"34 0 OFFCURVE",
"34 76 OFFCURVE",
"34 76 CURVE"
);
}
);
width = 128;
}
);
note = H;
unicode = 0048;
},
{
glyphname = Hcircumflex;
layers = (
{
hints = (
{
horizontal = 1;
place = "{76, 16}";
type = Stem;
},
{
place = "{13, 21}";
type = Stem;
},
{
place = "{94, 21}";
type = Stem;
},
{
horizontal = 1;
place = "{0, 92}";
type = Stem;
},
{
horizontal = 1;
place = "{76, 86}";
type = Stem;
}
);
layerId = "0835C59E-AAFD-4756-A43C-35DA64A2CD7E";
paths = (
{
closed = 1;
nodes = (
"56 208 OFFCURVE",
"24 174 OFFCURVE",
"24 174 CURVE SMOOTH",
"24 174 OFFCURVE",
"41 174 OFFCURVE",
"41 174 CURVE",
"64 194 LINE",
"88 174 LINE",
"88 174 OFFCURVE",
"105 174 OFFCURVE",
"105 174 CURVE SMOOTH",
"105 174 OFFCURVE",
"73 208 OFFCURVE",
"73 208 CURVE SMOOTH",
"73 208 OFFCURVE",
"56 208 OFFCURVE",
"56 208 CURVE SMOOTH"
);
},
{
closed = 1;
nodes = (
"94 76 LINE",
"94 76 OFFCURVE",
"94 0 OFFCURVE",
"94 0 CURVE SMOOTH",
"94 0 OFFCURVE",
"115 0 OFFCURVE",
"115 0 CURVE SMOOTH",
"115 0 OFFCURVE",
"115 162 OFFCURVE",
"115 162 CURVE SMOOTH",
"115 162 OFFCURVE",
"94 162 OFFCURVE",
"94 162 CURVE SMOOTH",
"94 162 OFFCURVE",
"94 92 OFFCURVE",
"94 92 CURVE SMOOTH",
"94 92 OFFCURVE",
"34 92 OFFCURVE",
"34 92 CURVE SMOOTH",
"34 92 OFFCURVE",
"34 162 OFFCURVE",
"34 162 CURVE SMOOTH",
"34 162 OFFCURVE",
"13 162 OFFCURVE",
"13 162 CURVE SMOOTH",
"13 162 OFFCURVE",
"13 0 OFFCURVE",
"13 0 CURVE SMOOTH",
"13 0 OFFCURVE",
"34 0 OFFCURVE",
"34 0 CURVE SMOOTH",
"34 0 OFFCURVE",
"34 76 OFFCURVE",
"34 76 CURVE"
);
}
);
width = 128;
}
);
note = Hcircumflex;
unicode = 0124;
},
{
glyphname = I;
layers = (
{
hints = (
{
horizontal = 1;
place = "{0, 16}";
type = Stem;
},
{
horizontal = 1;
place = "{145, 17}";
type = Stem;
},
{
place = "{53, 21}";
type = Stem;
},
{
place = "{74, 36}";
type = Stem;
}
);
layerId = "0835C59E-AAFD-4756-A43C-35DA64A2CD7E";
paths = (
{
closed = 1;
nodes = (
"53 145 OFFCURVE",
"53 16 OFFCURVE",
"53 16 CURVE SMOOTH",
"53 16 OFFCURVE",
"18 16 OFFCURVE",
"18 16 CURVE SMOOTH",
"18 16 OFFCURVE",
"18 0 OFFCURVE",
"18 0 CURVE SMOOTH",
"18 0 OFFCURVE",
"110 0 OFFCURVE",
"110 0 CURVE SMOOTH",
"110 0 OFFCURVE",
"110 16 OFFCURVE",
"110 16 CURVE SMOOTH",
"74 16 LINE SMOOTH",
"74 16 OFFCURVE",
"74 145 OFFCURVE",
"74 145 CURVE SMOOTH",
"74 145 OFFCURVE",
"110 145 OFFCURVE",
"110 145 CURVE SMOOTH",
"110 145 OFFCURVE",
"110 162 OFFCURVE",
"110 162 CURVE SMOOTH",
"110 162 OFFCURVE",
"18 162 OFFCURVE",
"18 162 CURVE SMOOTH",
"18 162 OFFCURVE",
"18 145 OFFCURVE",
"18 145 CURVE SMOOTH",
"18 145 OFFCURVE",
"53 145 OFFCURVE",
"53 145 CURVE SMOOTH"
);
}
);
width = 128;
}
);
note = I;
unicode = 0049;
},
{
glyphname = Iacute;
layers = (
{
hints = (
{
horizontal = 1;
place = "{0, 16}";
type = Stem;
},
{
horizontal = 1;
place = "{145, 17}";
type = Stem;
},
{
horizontal = 1;
place = "{242, 18}";
type = Stem;
},
{
place = "{53, 21}";
type = Stem;
},
{
place = "{100, 64}";
type = Stem;
},
{
place = "{74, 36}";
type = Stem;
},
{
place = "{151, 11}";
type = Stem;
}
);
layerId = "0835C59E-AAFD-4756-A43C-35DA64A2CD7E";
paths = (
{
closed = 1;
nodes = (
"68 214 LINE SMOOTH",
"68 214 OFFCURVE",
"37 180 OFFCURVE",
"37 180 CURVE SMOOTH",
"37 180 OFFCURVE",
"55 180 OFFCURVE",
"55 180 CURVE SMOOTH",
"55 180 OFFCURVE",
"91 214 OFFCURVE",
"91 214 CURVE SMOOTH"
);
},
{
closed = 1;
nodes = (
"53 145 OFFCURVE",
"53 16 OFFCURVE",
"53 16 CURVE SMOOTH",
"53 16 OFFCURVE",
"18 16 OFFCURVE",
"18 16 CURVE SMOOTH",
"18 16 OFFCURVE",
"18 0 OFFCURVE",
"18 0 CURVE SMOOTH",
"18 0 OFFCURVE",
"110 0 OFFCURVE",
"110 0 CURVE SMOOTH",
"110 0 OFFCURVE",
"110 16 OFFCURVE",
"110 16 CURVE SMOOTH",
"74 16 LINE SMOOTH",
"74 16 OFFCURVE",
"74 145 OFFCURVE",
"74 145 CURVE SMOOTH",
"74 145 OFFCURVE",
"110 145 OFFCURVE",
"110 145 CURVE SMOOTH",
"110 145 OFFCURVE",
"110 162 OFFCURVE",
"110 162 CURVE SMOOTH",
"110 162 OFFCURVE",
"18 162 OFFCURVE",
"18 162 CURVE SMOOTH",
"18 162 OFFCURVE",
"18 145 OFFCURVE",
"18 145 CURVE SMOOTH",
"18 145 OFFCURVE",
"53 145 OFFCURVE",
"53 145 CURVE SMOOTH"
);
}
);
width = 128;
}
);
note = Iacute;
unicode = 00CD;
},
{
glyphname = Icircumflex;
layers = (
{
hints = (
{
horizontal = 1;
place = "{0, 16}";
type = Stem;
},
{
horizontal = 1;
place = "{145, 17}";
type = Stem;
},
{
place = "{53, 21}";
type = Stem;
},
{
place = "{74, 36}";
type = Stem;
}
);
layerId = "0835C59E-AAFD-4756-A43C-35DA64A2CD7E";
paths = (
{
closed = 1;
nodes = (
"56 211 OFFCURVE",
"24 177 OFFCURVE",
"24 177 CURVE SMOOTH",
"24 177 OFFCURVE",
"41 177 OFFCURVE",
"41 177 CURVE",
"64 197 LINE",
"88 177 LINE",
"88 177 OFFCURVE",
"105 177 OFFCURVE",
"105 177 CURVE SMOOTH",
"105 177 OFFCURVE",
"73 211 OFFCURVE",
"73 211 CURVE SMOOTH",
"73 211 OFFCURVE",
"56 211 OFFCURVE",
"56 211 CURVE SMOOTH"
);
},
{
closed = 1;
nodes = (
"53 145 OFFCURVE",
"53 16 OFFCURVE",
"53 16 CURVE SMOOTH",
"53 16 OFFCURVE",
"18 16 OFFCURVE",
"18 16 CURVE SMOOTH",
"18 16 OFFCURVE",
"18 0 OFFCURVE",
"18 0 CURVE SMOOTH",
"18 0 OFFCURVE",
"110 0 OFFCURVE",
"110 0 CURVE SMOOTH",
"110 0 OFFCURVE",
"110 16 OFFCURVE",
"110 16 CURVE SMOOTH",
"74 16 LINE SMOOTH",
"74 16 OFFCURVE",
"74 145 OFFCURVE",
"74 145 CURVE SMOOTH",
"74 145 OFFCURVE",
"110 145 OFFCURVE",
"110 145 CURVE SMOOTH",
"110 145 OFFCURVE",
"110 162 OFFCURVE",
"110 162 CURVE SMOOTH",
"110 162 OFFCURVE",
"18 162 OFFCURVE",
"18 162 CURVE SMOOTH",
"18 162 OFFCURVE",
"18 145 OFFCURVE",
"18 145 CURVE SMOOTH",
"18 145 OFFCURVE",
"53 145 OFFCURVE",
"53 145 CURVE SMOOTH"
);
}
);
width = 128;
}
);
note = Icircumflex;
unicode = 00CE;
},
{
glyphname = Idieresis;
layers = (
{
hints = (
{
horizontal = 1;
place = "{0, 16}";
type = Stem;
},
{
horizontal = 1;
place = "{145, 17}";
type = Stem;
},
{
horizontal = 1;
place = "{234, 22}";
type = Stem;
},
{
place = "{21, 22}";
type = Stem;
},
{
place = "{53, 21}";
type = Stem;
},
{
place = "{86, 21}";
type = Stem;
},
{
place = "{74, 36}";
type = Stem;
}
);
layerId = "0835C59E-AAFD-4756-A43C-35DA64A2CD7E";
paths = (
{
closed = 1;
nodes = (
"49 182 OFFCURVE",
"53 186 OFFCURVE",
"53 186 CURVE",
"53 199 LINE",
"53 199 OFFCURVE",
"49 204 OFFCURVE",
"49 204 CURVE SMOOTH",
"49 204 OFFCURVE",
"35 204 OFFCURVE",
"35 204 CURVE SMOOTH",
"35 204 OFFCURVE",
"31 200 OFFCURVE",
"31 200 CURVE SMOOTH",
"31 200 OFFCURVE",
"31 187 OFFCURVE",
"31 187 CURVE SMOOTH",
"31 187 OFFCURVE",
"36 182 OFFCURVE",
"36 182 CURVE SMOOTH",
"36 182 OFFCURVE",
"49 182 OFFCURVE",
"49 182 CURVE SMOOTH"
);
},
{
closed = 1;
nodes = (
"80 182 OFFCURVE",
"93 182 OFFCURVE",
"93 182 CURVE SMOOTH",
"93 182 OFFCURVE",
"97 186 OFFCURVE",
"97 186 CURVE",
"97 199 LINE",
"97 199 OFFCURVE",
"93 204 OFFCURVE",
"93 204 CURVE SMOOTH",
"93 204 OFFCURVE",
"79 204 OFFCURVE",
"79 204 CURVE SMOOTH",
"79 204 OFFCURVE",
"76 200 OFFCURVE",
"76 200 CURVE SMOOTH",
"76 200 OFFCURVE",
"76 186 OFFCURVE",
"76 186 CURVE SMOOTH",
"76 186 OFFCURVE",
"80 182 OFFCURVE",
"80 182 CURVE SMOOTH"
);
},
{
closed = 1;
nodes = (
"53 145 OFFCURVE",
"53 16 OFFCURVE",
"53 16 CURVE SMOOTH",
"53 16 OFFCURVE",
"18 16 OFFCURVE",
"18 16 CURVE SMOOTH",
"18 16 OFFCURVE",
"18 0 OFFCURVE",
"18 0 CURVE SMOOTH",
"18 0 OFFCURVE",
"110 0 OFFCURVE",
"110 0 CURVE SMOOTH",
"110 0 OFFCURVE",
"110 16 OFFCURVE",
"110 16 CURVE SMOOTH",
"74 16 LINE SMOOTH",
"74 16 OFFCURVE",
"74 145 OFFCURVE",
"74 145 CURVE SMOOTH",
"74 145 OFFCURVE",
"110 145 OFFCURVE",
"110 145 CURVE SMOOTH",
"110 145 OFFCURVE",
"110 162 OFFCURVE",
"110 162 CURVE SMOOTH",
"110 162 OFFCURVE",
"18 162 OFFCURVE",
"18 162 CURVE SMOOTH",
"18 162 OFFCURVE",
"18 145 OFFCURVE",
"18 145 CURVE SMOOTH",
"18 145 OFFCURVE",
"53 145 OFFCURVE",
"53 145 CURVE SMOOTH"
);
}
);
width = 128;
}
);
note = Idieresis;
unicode = 00CF;
},
{
glyphname = Igrave;
layers = (
{
hints = (
{
horizontal = 1;
place = "{0, 16}";
type = Stem;
},
{
horizontal = 1;
place = "{145, 17}";
type = Stem;
},
{
horizontal = 1;
place = "{180, 34}";
type = Stem;
},
{
place = "{37, 54}";
type = Stem;
},
{
place = "{53, 21}";
type = Stem;
},
{
place = "{74, 36}";
type = Stem;
}
);
layerId = "0835C59E-AAFD-4756-A43C-35DA64A2CD7E";
paths = (
{
closed = 1;
nodes = (
"37 214 LINE SMOOTH",
"37 214 OFFCURVE",
"73 180 OFFCURVE",
"73 180 CURVE SMOOTH",
"73 180 OFFCURVE",
"91 180 OFFCURVE",
"91 180 CURVE SMOOTH",
"91 180 OFFCURVE",
"60 214 OFFCURVE",
"60 214 CURVE SMOOTH"
);
},
{
closed = 1;
nodes = (
"53 145 OFFCURVE",
"53 16 OFFCURVE",
"53 16 CURVE SMOOTH",
"53 16 OFFCURVE",
"18 16 OFFCURVE",
"18 16 CURVE SMOOTH",
"18 16 OFFCURVE",
"18 0 OFFCURVE",
"18 0 CURVE SMOOTH",
"18 0 OFFCURVE",
"110 0 OFFCURVE",
"110 0 CURVE SMOOTH",
"110 0 OFFCURVE",
"110 16 OFFCURVE",
"110 16 CURVE SMOOTH",
"74 16 LINE SMOOTH",
"74 16 OFFCURVE",
"74 145 OFFCURVE",
"74 145 CURVE SMOOTH",
"74 145 OFFCURVE",
"110 145 OFFCURVE",
"110 145 CURVE SMOOTH",
"110 145 OFFCURVE",
"110 162 OFFCURVE",
"110 162 CURVE SMOOTH",
"110 162 OFFCURVE",
"18 162 OFFCURVE",
"18 162 CURVE SMOOTH",
"18 162 OFFCURVE",
"18 145 OFFCURVE",
"18 145 CURVE SMOOTH",
"18 145 OFFCURVE",
"53 145 OFFCURVE",
"53 145 CURVE SMOOTH"
);
}
);
width = 128;
}
);
note = Igrave;
unicode = 00CC;
},
{
glyphname = J;
layers = (
{
hints = (
{
horizontal = 1;
place = "{-5, 16}";
type = Stem;
},
{
horizontal = 1;
place = "{145, 17}";
type = Stem;
},
{
place = "{79, 21}";
type = Stem;
}
);
layerId = "0835C59E-AAFD-4756-A43C-35DA64A2CD7E";
paths = (
{
closed = 1;
nodes = (
"24 -2 OFFCURVE",
"37 -5 OFFCURVE",
"50 -5 CURVE SMOOTH",
"89 -5 OFFCURVE",
"100 21 OFFCURVE",
"100 56 CURVE",
"100 56 OFFCURVE",
"100 162 OFFCURVE",
"100 162 CURVE SMOOTH",
"100 162 OFFCURVE",
"42 162 OFFCURVE",
"42 162 CURVE SMOOTH",
"42 162 OFFCURVE",
"42 145 OFFCURVE",
"42 145 CURVE SMOOTH",
"42 145 OFFCURVE",
"79 145 OFFCURVE",
"79 145 CURVE SMOOTH",
"79 145 OFFCURVE",
"79 56 OFFCURVE",
"79 56 CURVE",
"79 37 OFFCURVE",
"77 25 OFFCURVE",
"72 20 CURVE",
"67 14 OFFCURVE",
"59 11 OFFCURVE",
"49 11 CURVE SMOOTH",
"39 11 OFFCURVE",
"26 15 OFFCURVE",
"11 23 CURVE",
"11 23 OFFCURVE",
"11 4 OFFCURVE",
"11 4 CURVE"
);
}
);
width = 128;
}
);
note = J;
unicode = 004A;
},
{
glyphname = Jcircumflex;
layers = (
{
hints = (
{
horizontal = 1;
place = "{-5, 16}";
type = Stem;
},
{
horizontal = 1;
place = "{145, 17}";
type = Stem;
},
{
place = "{79, 21}";
type = Stem;
}
);
layerId = "0835C59E-AAFD-4756-A43C-35DA64A2CD7E";
paths = (
{
closed = 1;
nodes = (
"63 208 OFFCURVE",
"31 174 OFFCURVE",
"31 174 CURVE SMOOTH",
"31 174 OFFCURVE",
"48 174 OFFCURVE",
"48 174 CURVE",
"71 194 LINE",
"95 174 LINE",
"95 174 OFFCURVE",
"112 174 OFFCURVE",
"112 174 CURVE SMOOTH",
"112 174 OFFCURVE",
"80 208 OFFCURVE",
"80 208 CURVE SMOOTH",
"80 208 OFFCURVE",
"63 208 OFFCURVE",
"63 208 CURVE SMOOTH"
);
},
{
closed = 1;
nodes = (
"24 -2 OFFCURVE",
"37 -5 OFFCURVE",
"50 -5 CURVE SMOOTH",
"89 -5 OFFCURVE",
"100 21 OFFCURVE",
"100 56 CURVE",
"100 56 OFFCURVE",
"100 162 OFFCURVE",
"100 162 CURVE SMOOTH",
"100 162 OFFCURVE",
"42 162 OFFCURVE",
"42 162 CURVE SMOOTH",
"42 162 OFFCURVE",
"42 145 OFFCURVE",
"42 145 CURVE SMOOTH",
"42 145 OFFCURVE",
"79 145 OFFCURVE",
"79 145 CURVE SMOOTH",
"79 145 OFFCURVE",
"79 56 OFFCURVE",
"79 56 CURVE",
"79 37 OFFCURVE",
"77 25 OFFCURVE",
"72 20 CURVE",
"67 14 OFFCURVE",
"59 11 OFFCURVE",
"49 11 CURVE SMOOTH",
"39 11 OFFCURVE",
"26 15 OFFCURVE",
"11 23 CURVE",
"11 23 OFFCURVE",
"11 4 OFFCURVE",
"11 4 CURVE"
);
}
);
width = 128;
}
);
note = Jcircumflex;
unicode = 0134;
},
{
glyphname = K;
layers = (
{
hints = (
{
horizontal = 1;
place = "{0, 21}";
target = up;
type = BottomGhost;
},
{
horizontal = 1;
place = "{162, -20}";
target = down;
type = TopGhost;
},
{
place = "{16, 21}";
type = Stem;
}
);
layerId = "0835C59E-AAFD-4756-A43C-35DA64A2CD7E";
paths = (
{
closed = 1;
nodes = (
"37 0 OFFCURVE",
"37 82 OFFCURVE",
"37 82 CURVE",
"102 0 LINE",
"102 0 OFFCURVE",
"128 0 OFFCURVE",
"128 0 CURVE SMOOTH",
"128 0 OFFCURVE",
"62 85 OFFCURVE",
"62 85 CURVE SMOOTH",
"62 85 OFFCURVE",
"120 162 OFFCURVE",
"120 162 CURVE SMOOTH",
"120 162 OFFCURVE",
"97 162 OFFCURVE",
"97 162 CURVE SMOOTH",
"97 162 OFFCURVE",
"37 82 OFFCURVE",
"37 82 CURVE SMOOTH",
"37 82 OFFCURVE",
"37 162 OFFCURVE",
"37 162 CURVE SMOOTH",
"37 162 OFFCURVE",
"16 162 OFFCURVE",
"16 162 CURVE SMOOTH",
"16 162 OFFCURVE",
"16 0 OFFCURVE",
"16 0 CURVE SMOOTH",
"16 0 OFFCURVE",
"37 0 OFFCURVE",
"37 0 CURVE SMOOTH"
);
}
);
width = 128;
}
);
note = K;
unicode = 004B;
},
{
glyphname = L;
layers = (
{
hints = (
{
horizontal = 1;
place = "{0, 18}";
type = Stem;
},
{
horizontal = 1;
place = "{162, -20}";
target = down;
type = TopGhost;
},
{
place = "{23, 21}";
type = Stem;
}
);
layerId = "0835C59E-AAFD-4756-A43C-35DA64A2CD7E";
paths = (
{
closed = 1;
nodes = (
"110 0 OFFCURVE",
"110 18 OFFCURVE",
"110 18 CURVE SMOOTH",
"44 18 LINE SMOOTH",
"44 18 OFFCURVE",
"44 162 OFFCURVE",
"44 162 CURVE SMOOTH",
"44 162 OFFCURVE",
"23 162 OFFCURVE",
"23 162 CURVE SMOOTH",
"23 162 OFFCURVE",
"23 0 OFFCURVE",
"23 0 CURVE SMOOTH",
"23 0 OFFCURVE",
"110 0 OFFCURVE",
"110 0 CURVE SMOOTH"
);
}
);
width = 128;
}
);
note = L;
unicode = 004C;
},
{
glyphname = Lacute;
layers = (
{
hints = (
{
horizontal = 1;
place = "{0, 18}";
type = Stem;
},
{
horizontal = 1;
place = "{162, -20}";
target = down;
type = TopGhost;
},
{
horizontal = 1;
place = "{242, 18}";
type = Stem;
},
{
place = "{23, 21}";
type = Stem;
},
{
place = "{100, 64}";
type = Stem;
},
{
place = "{151, 11}";
type = Stem;
}
);
layerId = "0835C59E-AAFD-4756-A43C-35DA64A2CD7E";
paths = (
{
closed = 1;
nodes = (
"68 214 LINE SMOOTH",
"68 214 OFFCURVE",
"37 180 OFFCURVE",
"37 180 CURVE SMOOTH",
"37 180 OFFCURVE",
"55 180 OFFCURVE",
"55 180 CURVE SMOOTH",
"55 180 OFFCURVE",
"91 214 OFFCURVE",
"91 214 CURVE SMOOTH"
);
},
{
closed = 1;
nodes = (
"110 0 OFFCURVE",
"110 18 OFFCURVE",
"110 18 CURVE SMOOTH",
"44 18 LINE SMOOTH",
"44 18 OFFCURVE",
"44 162 OFFCURVE",
"44 162 CURVE SMOOTH",
"44 162 OFFCURVE",
"23 162 OFFCURVE",
"23 162 CURVE SMOOTH",
"23 162 OFFCURVE",
"23 0 OFFCURVE",
"23 0 CURVE SMOOTH",
"23 0 OFFCURVE",
"110 0 OFFCURVE",
"110 0 CURVE SMOOTH"
);
}
);
width = 128;
}
);
note = Lacute;
unicode = 0139;
},
{
glyphname = M;
layers = (
{
hints = (
{
horizontal = 1;
place = "{0, 21}";
target = up;
type = BottomGhost;
},
{
horizontal = 1;
place = "{103, 14}";
type = Stem;
},
{
horizontal = 1;
place = "{162, -20}";
target = down;
type = TopGhost;
},
{
place = "{6, 17}";
type = Stem;
},
{
place = "{103, 19}";
type = Stem;
},
{
horizontal = 1;
place = "{117, 45}";
type = Stem;
}
);
layerId = "0835C59E-AAFD-4756-A43C-35DA64A2CD7E";
paths = (
{
closed = 1;
nodes = (
"23 0 OFFCURVE",
"23 103 OFFCURVE",
"23 103 CURVE",
"22 117 LINE",
"23 117 LINE",
"23 117 OFFCURVE",
"27 103 OFFCURVE",
"27 103 CURVE SMOOTH",
"27 103 OFFCURVE",
"52 32 OFFCURVE",
"52 32 CURVE SMOOTH",
"52 32 OFFCURVE",
"73 32 OFFCURVE",
"73 32 CURVE SMOOTH",
"73 32 OFFCURVE",
"103 117 OFFCURVE",
"103 117 CURVE SMOOTH",
"103 117 OFFCURVE",
"103 0 OFFCURVE",
"103 0 CURVE SMOOTH",
"103 0 OFFCURVE",
"122 0 OFFCURVE",
"122 0 CURVE SMOOTH",
"122 0 OFFCURVE",
"122 162 OFFCURVE",
"122 162 CURVE SMOOTH",
"122 162 OFFCURVE",
"102 162 OFFCURVE",
"102 162 CURVE SMOOTH",
"102 162 OFFCURVE",
"64 55 OFFCURVE",
"64 55 CURVE SMOOTH",
"64 55 OFFCURVE",
"27 162 OFFCURVE",
"27 162 CURVE SMOOTH",
"27 162 OFFCURVE",
"6 162 OFFCURVE",
"6 162 CURVE SMOOTH",
"6 162 OFFCURVE",
"6 0 OFFCURVE",
"6 0 CURVE SMOOTH",
"6 0 OFFCURVE",
"23 0 OFFCURVE",
"23 0 CURVE SMOOTH"
);
}
);
width = 128;
}
);
note = M;
unicode = 004D;
},
{
glyphname = N;
layers = (
{
hints = (
{
horizontal = 1;
place = "{0, 21}";
target = up;
type = BottomGhost;
},
{
horizontal = 1;
place = "{123, 39}";
type = Stem;
},
{
horizontal = 1;
place = "{162, -20}";
target = down;
type = TopGhost;
},
{
place = "{13, 19}";
type = Stem;
},
{
place = "{96, 19}";
type = Stem;
}
);
layerId = "0835C59E-AAFD-4756-A43C-35DA64A2CD7E";
paths = (
{
closed = 1;
nodes = (
"13 0 OFFCURVE",
"32 0 OFFCURVE",
"32 0 CURVE SMOOTH",
"32 0 OFFCURVE",
"32 123 OFFCURVE",
"32 123 CURVE",
"40 106 LINE",
"40 106 OFFCURVE",
"96 0 OFFCURVE",
"96 0 CURVE SMOOTH",
"96 0 OFFCURVE",
"115 0 OFFCURVE",
"115 0 CURVE SMOOTH",
"115 0 OFFCURVE",
"115 162 OFFCURVE",
"115 162 CURVE SMOOTH",
"115 162 OFFCURVE",
"96 162 OFFCURVE",
"96 162 CURVE SMOOTH",
"96 162 OFFCURVE",
"96 38 OFFCURVE",
"96 38 CURVE SMOOTH",
"96 38 OFFCURVE",
"89 54 OFFCURVE",
"89 54 CURVE SMOOTH",
"89 54 OFFCURVE",
"32 162 OFFCURVE",
"32 162 CURVE SMOOTH",
"32 162 OFFCURVE",
"13 162 OFFCURVE",
"13 162 CURVE SMOOTH",
"13 162 OFFCURVE",
"13 0 OFFCURVE",
"13 0 CURVE SMOOTH"
);
}
);
width = 128;
}
);
note = N;
unicode = 004E;
},
{
glyphname = Nacute;
layers = (
{
hints = (
{
horizontal = 1;
place = "{0, 21}";
target = up;
type = BottomGhost;
},
{
horizontal = 1;
place = "{123, 39}";
type = Stem;
},
{
horizontal = 1;
place = "{242, 18}";
type = Stem;
},
{
place = "{13, 19}";
type = Stem;
},
{
place = "{100, 64}";
type = Stem;
},
{
place = "{96, 19}";
type = Stem;
},
{
place = "{151, 11}";
type = Stem;
}
);
layerId = "0835C59E-AAFD-4756-A43C-35DA64A2CD7E";
paths = (
{
closed = 1;
nodes = (
"68 214 LINE SMOOTH",
"68 214 OFFCURVE",
"37 180 OFFCURVE",
"37 180 CURVE SMOOTH",
"37 180 OFFCURVE",
"55 180 OFFCURVE",
"55 180 CURVE SMOOTH",
"55 180 OFFCURVE",
"91 214 OFFCURVE",
"91 214 CURVE SMOOTH"
);
},
{
closed = 1;
nodes = (
"13 0 OFFCURVE",
"32 0 OFFCURVE",
"32 0 CURVE SMOOTH",
"32 0 OFFCURVE",
"32 123 OFFCURVE",
"32 123 CURVE",
"40 106 LINE",
"40 106 OFFCURVE",
"96 0 OFFCURVE",
"96 0 CURVE SMOOTH",
"96 0 OFFCURVE",
"115 0 OFFCURVE",
"115 0 CURVE SMOOTH",
"115 0 OFFCURVE",
"115 162 OFFCURVE",
"115 162 CURVE SMOOTH",
"115 162 OFFCURVE",
"96 162 OFFCURVE",
"96 162 CURVE SMOOTH",
"96 162 OFFCURVE",
"96 38 OFFCURVE",
"96 38 CURVE SMOOTH",
"96 38 OFFCURVE",
"89 54 OFFCURVE",
"89 54 CURVE SMOOTH",
"89 54 OFFCURVE",
"32 162 OFFCURVE",
"32 162 CURVE SMOOTH",
"32 162 OFFCURVE",
"13 162 OFFCURVE",
"13 162 CURVE SMOOTH",
"13 162 OFFCURVE",
"13 0 OFFCURVE",
"13 0 CURVE SMOOTH"
);
}
);
width = 128;
}
);
note = Nacute;
unicode = 0143;
},
{
glyphname = Ncaron;
layers = (
{
hints = (
{
horizontal = 1;
place = "{0, 21}";
target = up;
type = BottomGhost;
},
{
horizontal = 1;
place = "{123, 39}";
type = Stem;
},
{
horizontal = 1;
place = "{162, -20}";
target = down;
type = TopGhost;
},
{
place = "{13, 19}";
type = Stem;
},
{
place = "{96, 19}";
type = Stem;
}
);
layerId = "0835C59E-AAFD-4756-A43C-35DA64A2CD7E";
paths = (
{
closed = 1;
nodes = (
"56 164 OFFCURVE",
"73 164 OFFCURVE",
"73 164 CURVE SMOOTH",
"73 164 OFFCURVE",
"105 198 OFFCURVE",
"105 198 CURVE SMOOTH",
"88 198 LINE",
"64 178 LINE",
"41 198 LINE",
"41 198 OFFCURVE",
"24 198 OFFCURVE",
"24 198 CURVE SMOOTH",
"24 198 OFFCURVE",
"56 164 OFFCURVE",
"56 164 CURVE SMOOTH"
);
},
{
closed = 1;
nodes = (
"13 0 OFFCURVE",
"32 0 OFFCURVE",
"32 0 CURVE SMOOTH",
"32 0 OFFCURVE",
"32 123 OFFCURVE",
"32 123 CURVE",
"40 106 LINE",
"40 106 OFFCURVE",
"96 0 OFFCURVE",
"96 0 CURVE SMOOTH",
"96 0 OFFCURVE",
"115 0 OFFCURVE",
"115 0 CURVE SMOOTH",
"115 0 OFFCURVE",
"115 162 OFFCURVE",
"115 162 CURVE SMOOTH",
"115 162 OFFCURVE",
"96 162 OFFCURVE",
"96 162 CURVE SMOOTH",
"96 162 OFFCURVE",
"96 38 OFFCURVE",
"96 38 CURVE SMOOTH",
"96 38 OFFCURVE",
"89 54 OFFCURVE",
"89 54 CURVE SMOOTH",
"89 54 OFFCURVE",
"32 162 OFFCURVE",
"32 162 CURVE SMOOTH",
"32 162 OFFCURVE",
"13 162 OFFCURVE",
"13 162 CURVE SMOOTH",
"13 162 OFFCURVE",
"13 0 OFFCURVE",
"13 0 CURVE SMOOTH"
);
}
);
width = 128;
}
);
note = Ncaron;
unicode = 0147;
},
{
glyphname = Ntilde;
layers = (
{
hints = (
{
horizontal = 1;
place = "{0, 21}";
target = up;
type = BottomGhost;
},
{
horizontal = 1;
place = "{123, 39}";
type = Stem;
},
{
horizontal = 1;
place = "{162, -20}";
target = down;
type = TopGhost;
},
{
place = "{13, 19}";
type = Stem;
},
{
place = "{96, 19}";
type = Stem;
}
);
layerId = "0835C59E-AAFD-4756-A43C-35DA64A2CD7E";
paths = (
{
closed = 1;
nodes = (
"55 191 OFFCURVE",
"66 174 OFFCURVE",
"77 174 CURVE SMOOTH",
"91 174 OFFCURVE",
"104 187 OFFCURVE",
"104 203 CURVE",
"91 203 LINE",
"90 199 OFFCURVE",
"89 189 OFFCURVE",
"77 189 CURVE SMOOTH",
"68 189 OFFCURVE",
"64 203 OFFCURVE",
"47 203 CURVE SMOOTH",
"33 203 OFFCURVE",
"25 189 OFFCURVE",
"25 173 CURVE",
"25 173 OFFCURVE",
"38 173 OFFCURVE",
"38 173 CURVE",
"39 179 OFFCURVE",
"40 185 OFFCURVE",
"47 188 CURVE"
);
},
{
closed = 1;
nodes = (
"13 0 OFFCURVE",
"32 0 OFFCURVE",
"32 0 CURVE SMOOTH",
"32 0 OFFCURVE",
"32 123 OFFCURVE",
"32 123 CURVE",
"40 106 LINE",
"40 106 OFFCURVE",
"96 0 OFFCURVE",
"96 0 CURVE SMOOTH",
"96 0 OFFCURVE",
"115 0 OFFCURVE",
"115 0 CURVE SMOOTH",
"115 0 OFFCURVE",
"115 162 OFFCURVE",
"115 162 CURVE SMOOTH",
"115 162 OFFCURVE",
"96 162 OFFCURVE",
"96 162 CURVE SMOOTH",
"96 162 OFFCURVE",
"96 38 OFFCURVE",
"96 38 CURVE SMOOTH",
"96 38 OFFCURVE",
"89 54 OFFCURVE",
"89 54 CURVE SMOOTH",
"89 54 OFFCURVE",
"32 162 OFFCURVE",
"32 162 CURVE SMOOTH",
"32 162 OFFCURVE",
"13 162 OFFCURVE",
"13 162 CURVE SMOOTH",
"13 162 OFFCURVE",
"13 0 OFFCURVE",
"13 0 CURVE SMOOTH"
);
}
);
width = 128;
}
);
note = Ntilde;
unicode = 00D1;
},
{
glyphname = O;
layers = (
{
hints = (
{
horizontal = 1;
place = "{-5, 16}";
type = Stem;
},
{
horizontal = 1;
place = "{150, 16}";
type = Stem;
},
{
place = "{7, 21}";
type = Stem;
},
{
place = "{99, 22}";
type = Stem;
}
);
layerId = "0835C59E-AAFD-4756-A43C-35DA64A2CD7E";
paths = (
{
closed = 1;
nodes = (
"115 28 OFFCURVE",
"121 50 OFFCURVE",
"121 81 CURVE SMOOTH",
"121 111 OFFCURVE",
"115 133 OFFCURVE",
"102 148 CURVE",
"93 160 OFFCURVE",
"80 166 OFFCURVE",
"64 166 CURVE SMOOTH",
"18 166 OFFCURVE",
"7 118 OFFCURVE",
"7 81 CURVE SMOOTH",
"7 43 OFFCURVE",
"17 -5 OFFCURVE",
"64 -5 CURVE SMOOTH",
"80 -5 OFFCURVE",
"93 1 OFFCURVE",
"102 13 CURVE"
);
},
{
closed = 1;
nodes = (
"32 36 OFFCURVE",
"28 54 OFFCURVE",
"28 81 CURVE SMOOTH",
"28 107 OFFCURVE",
"32 125 OFFCURVE",
"41 136 CURVE",
"47 145 OFFCURVE",
"55 150 OFFCURVE",
"64 150 CURVE SMOOTH",
"94 150 OFFCURVE",
"99 102 OFFCURVE",
"99 81 CURVE SMOOTH",
"99 60 OFFCURVE",
"95 11 OFFCURVE",
"64 11 CURVE SMOOTH",
"55 11 OFFCURVE",
"47 16 OFFCURVE",
"41 25 CURVE"
);
}
);
width = 128;
}
);
note = O;
unicode = 004F;
},
{
glyphname = Oacute;
layers = (
{
hints = (
{
horizontal = 1;
place = "{-5, 16}";
type = Stem;
},
{
horizontal = 1;
place = "{150, 16}";
type = Stem;
},
{
horizontal = 1;
place = "{243, 18}";
type = Stem;
},
{
place = "{7, 21}";
type = Stem;
},
{
place = "{109, 64}";
type = Stem;
},
{
place = "{99, 22}";
type = Stem;
},
{
place = "{160, 11}";
type = Stem;
}
);
layerId = "0835C59E-AAFD-4756-A43C-35DA64A2CD7E";
paths = (
{
closed = 1;
nodes = (
"77 215 LINE SMOOTH",
"77 215 OFFCURVE",
"46 181 OFFCURVE",
"46 181 CURVE SMOOTH",
"46 181 OFFCURVE",
"64 181 OFFCURVE",
"64 181 CURVE SMOOTH",
"64 181 OFFCURVE",
"100 215 OFFCURVE",
"100 215 CURVE SMOOTH"
);
},
{
closed = 1;
nodes = (
"115 28 OFFCURVE",
"121 50 OFFCURVE",
"121 81 CURVE SMOOTH",
"121 111 OFFCURVE",
"115 133 OFFCURVE",
"102 148 CURVE",
"93 160 OFFCURVE",
"80 166 OFFCURVE",
"64 166 CURVE SMOOTH",
"18 166 OFFCURVE",
"7 118 OFFCURVE",
"7 81 CURVE SMOOTH",
"7 43 OFFCURVE",
"17 -5 OFFCURVE",
"64 -5 CURVE SMOOTH",
"80 -5 OFFCURVE",
"93 1 OFFCURVE",
"102 13 CURVE"
);
},
{
closed = 1;
nodes = (
"32 36 OFFCURVE",
"28 54 OFFCURVE",
"28 81 CURVE SMOOTH",
"28 107 OFFCURVE",
"32 125 OFFCURVE",
"41 136 CURVE",
"47 145 OFFCURVE",
"55 150 OFFCURVE",
"64 150 CURVE SMOOTH",
"94 150 OFFCURVE",
"99 102 OFFCURVE",
"99 81 CURVE SMOOTH",
"99 60 OFFCURVE",
"95 11 OFFCURVE",
"64 11 CURVE SMOOTH",
"55 11 OFFCURVE",
"47 16 OFFCURVE",
"41 25 CURVE"
);
}
);
width = 128;
}
);
note = Oacute;
unicode = 00D3;
},
{
glyphname = Ocircumflex;
layers = (
{
hints = (
{
horizontal = 1;
place = "{-5, 16}";
type = Stem;
},
{
horizontal = 1;
place = "{150, 16}";
type = Stem;
},
{
place = "{7, 21}";
type = Stem;
},
{
place = "{99, 22}";
type = Stem;
}
);
layerId = "0835C59E-AAFD-4756-A43C-35DA64A2CD7E";
paths = (
{
closed = 1;
nodes = (
"56 212 OFFCURVE",
"24 178 OFFCURVE",
"24 178 CURVE SMOOTH",
"24 178 OFFCURVE",
"41 178 OFFCURVE",
"41 178 CURVE",
"64 198 LINE",
"88 178 LINE",
"88 178 OFFCURVE",
"105 178 OFFCURVE",
"105 178 CURVE SMOOTH",
"105 178 OFFCURVE",
"73 212 OFFCURVE",
"73 212 CURVE SMOOTH",
"73 212 OFFCURVE",
"56 212 OFFCURVE",
"56 212 CURVE SMOOTH"
);
},
{
closed = 1;
nodes = (
"115 28 OFFCURVE",
"121 50 OFFCURVE",
"121 81 CURVE SMOOTH",
"121 111 OFFCURVE",
"115 133 OFFCURVE",
"102 148 CURVE",
"93 160 OFFCURVE",
"80 166 OFFCURVE",
"64 166 CURVE SMOOTH",
"18 166 OFFCURVE",
"7 118 OFFCURVE",
"7 81 CURVE SMOOTH",
"7 43 OFFCURVE",
"17 -5 OFFCURVE",
"64 -5 CURVE SMOOTH",
"80 -5 OFFCURVE",
"93 1 OFFCURVE",
"102 13 CURVE"
);
},
{
closed = 1;
nodes = (
"32 36 OFFCURVE",
"28 54 OFFCURVE",
"28 81 CURVE SMOOTH",
"28 107 OFFCURVE",
"32 125 OFFCURVE",
"41 136 CURVE",
"47 145 OFFCURVE",
"55 150 OFFCURVE",
"64 150 CURVE SMOOTH",
"94 150 OFFCURVE",
"99 102 OFFCURVE",
"99 81 CURVE SMOOTH",
"99 60 OFFCURVE",
"95 11 OFFCURVE",
"64 11 CURVE SMOOTH",
"55 11 OFFCURVE",
"47 16 OFFCURVE",
"41 25 CURVE"
);
}
);
width = 128;
}
);
note = Ocircumflex;
unicode = 00D4;
},
{
glyphname = Odieresis;
layers = (
{
hints = (
{
horizontal = 1;
place = "{-5, 16}";
type = Stem;
},
{
horizontal = 1;
place = "{150, 16}";
type = Stem;
},
{
horizontal = 1;
place = "{234, 22}";
type = Stem;
},
{
place = "{21, 22}";
type = Stem;
},
{
place = "{86, 21}";
type = Stem;
},
{
place = "{99, 22}";
type = Stem;
},
{
place = "{7, 21}";
type = Stem;
}
);
layerId = "0835C59E-AAFD-4756-A43C-35DA64A2CD7E";
paths = (
{
closed = 1;
nodes = (
"49 182 OFFCURVE",
"53 186 OFFCURVE",
"53 186 CURVE",
"53 199 LINE",
"53 199 OFFCURVE",
"49 204 OFFCURVE",
"49 204 CURVE SMOOTH",
"49 204 OFFCURVE",
"35 204 OFFCURVE",
"35 204 CURVE SMOOTH",
"35 204 OFFCURVE",
"31 200 OFFCURVE",
"31 200 CURVE SMOOTH",
"31 200 OFFCURVE",
"31 187 OFFCURVE",
"31 187 CURVE SMOOTH",
"31 187 OFFCURVE",
"36 182 OFFCURVE",
"36 182 CURVE SMOOTH",
"36 182 OFFCURVE",
"49 182 OFFCURVE",
"49 182 CURVE SMOOTH"
);
},
{
closed = 1;
nodes = (
"80 182 OFFCURVE",
"93 182 OFFCURVE",
"93 182 CURVE SMOOTH",
"93 182 OFFCURVE",
"97 186 OFFCURVE",
"97 186 CURVE",
"97 199 LINE",
"97 199 OFFCURVE",
"93 204 OFFCURVE",
"93 204 CURVE SMOOTH",
"93 204 OFFCURVE",
"79 204 OFFCURVE",
"79 204 CURVE SMOOTH",
"79 204 OFFCURVE",
"76 200 OFFCURVE",
"76 200 CURVE SMOOTH",
"76 200 OFFCURVE",
"76 186 OFFCURVE",
"76 186 CURVE SMOOTH",
"76 186 OFFCURVE",
"80 182 OFFCURVE",
"80 182 CURVE SMOOTH"
);
},
{
closed = 1;
nodes = (
"115 28 OFFCURVE",
"121 50 OFFCURVE",
"121 81 CURVE SMOOTH",
"121 111 OFFCURVE",
"115 133 OFFCURVE",
"102 148 CURVE",
"93 160 OFFCURVE",
"80 166 OFFCURVE",
"64 166 CURVE SMOOTH",
"18 166 OFFCURVE",
"7 118 OFFCURVE",
"7 81 CURVE SMOOTH",
"7 43 OFFCURVE",
"17 -5 OFFCURVE",
"64 -5 CURVE SMOOTH",
"80 -5 OFFCURVE",
"93 1 OFFCURVE",
"102 13 CURVE"
);
},
{
closed = 1;
nodes = (
"32 36 OFFCURVE",
"28 54 OFFCURVE",
"28 81 CURVE SMOOTH",
"28 107 OFFCURVE",
"32 125 OFFCURVE",
"41 136 CURVE",
"47 145 OFFCURVE",
"55 150 OFFCURVE",
"64 150 CURVE SMOOTH",
"94 150 OFFCURVE",
"99 102 OFFCURVE",
"99 81 CURVE SMOOTH",
"99 60 OFFCURVE",
"95 11 OFFCURVE",
"64 11 CURVE SMOOTH",
"55 11 OFFCURVE",
"47 16 OFFCURVE",
"41 25 CURVE"
);
}
);
width = 128;
}
);
note = Odieresis;
unicode = 00D6;
},
{
glyphname = Ograve;
layers = (
{
hints = (
{
horizontal = 1;
place = "{-5, 16}";
type = Stem;
},
{
horizontal = 1;
place = "{150, 16}";
type = Stem;
},
{
horizontal = 1;
place = "{180, 34}";
type = Stem;
},
{
place = "{7, 21}";
type = Stem;
},
{
place = "{37, 54}";
type = Stem;
},
{
place = "{99, 22}";
type = Stem;
}
);
layerId = "0835C59E-AAFD-4756-A43C-35DA64A2CD7E";
paths = (
{
closed = 1;
nodes = (
"37 214 LINE SMOOTH",
"37 214 OFFCURVE",
"73 180 OFFCURVE",
"73 180 CURVE SMOOTH",
"73 180 OFFCURVE",
"91 180 OFFCURVE",
"91 180 CURVE SMOOTH",
"91 180 OFFCURVE",
"60 214 OFFCURVE",
"60 214 CURVE SMOOTH"
);
},
{
closed = 1;
nodes = (
"115 28 OFFCURVE",
"121 50 OFFCURVE",
"121 81 CURVE SMOOTH",
"121 111 OFFCURVE",
"115 133 OFFCURVE",
"102 148 CURVE",
"93 160 OFFCURVE",
"80 166 OFFCURVE",
"64 166 CURVE SMOOTH",
"18 166 OFFCURVE",
"7 118 OFFCURVE",
"7 81 CURVE SMOOTH",
"7 43 OFFCURVE",
"17 -5 OFFCURVE",
"64 -5 CURVE SMOOTH",
"80 -5 OFFCURVE",
"93 1 OFFCURVE",
"102 13 CURVE"
);
},
{
closed = 1;
nodes = (
"32 36 OFFCURVE",
"28 54 OFFCURVE",
"28 81 CURVE SMOOTH",
"28 107 OFFCURVE",
"32 125 OFFCURVE",
"41 136 CURVE",
"47 145 OFFCURVE",
"55 150 OFFCURVE",
"64 150 CURVE SMOOTH",
"94 150 OFFCURVE",
"99 102 OFFCURVE",
"99 81 CURVE SMOOTH",
"99 60 OFFCURVE",
"95 11 OFFCURVE",
"64 11 CURVE SMOOTH",
"55 11 OFFCURVE",
"47 16 OFFCURVE",
"41 25 CURVE"
);
}
);
width = 128;
}
);
note = Ograve;
unicode = 00D2;
},
{
glyphname = Omacron;
layers = (
{
hints = (
{
horizontal = 1;
place = "{-5, 16}";
type = Stem;
},
{
horizontal = 1;
place = "{150, 16}";
type = Stem;
},
{
place = "{7, 21}";
type = Stem;
},
{
place = "{99, 22}";
type = Stem;
}
);
layerId = "0835C59E-AAFD-4756-A43C-35DA64A2CD7E";
paths = (
{
closed = 1;
nodes = (
"37 177 LINE",
"91 177 LINE",
"91 191 LINE",
"37 191 LINE"
);
},
{
closed = 1;
nodes = (
"115 28 OFFCURVE",
"121 50 OFFCURVE",
"121 81 CURVE SMOOTH",
"121 111 OFFCURVE",
"115 133 OFFCURVE",
"102 148 CURVE",
"93 160 OFFCURVE",
"80 166 OFFCURVE",
"64 166 CURVE SMOOTH",
"18 166 OFFCURVE",
"7 118 OFFCURVE",
"7 81 CURVE SMOOTH",
"7 43 OFFCURVE",
"17 -5 OFFCURVE",
"64 -5 CURVE SMOOTH",
"80 -5 OFFCURVE",
"93 1 OFFCURVE",
"102 13 CURVE"
);
},
{
closed = 1;
nodes = (
"32 36 OFFCURVE",
"28 54 OFFCURVE",
"28 81 CURVE SMOOTH",
"28 107 OFFCURVE",
"32 125 OFFCURVE",
"41 136 CURVE",
"47 145 OFFCURVE",
"55 150 OFFCURVE",
"64 150 CURVE SMOOTH",
"94 150 OFFCURVE",
"99 102 OFFCURVE",
"99 81 CURVE SMOOTH",
"99 60 OFFCURVE",
"95 11 OFFCURVE",
"64 11 CURVE SMOOTH",
"55 11 OFFCURVE",
"47 16 OFFCURVE",
"41 25 CURVE"
);
}
);
width = 128;
}
);
note = Omacron;
unicode = 014C;
},
{
glyphname = Otilde;
layers = (
{
hints = (
{
horizontal = 1;
place = "{-5, 16}";
type = Stem;
},
{
horizontal = 1;
place = "{150, 16}";
type = Stem;
},
{
place = "{7, 21}";
type = Stem;
},
{
place = "{99, 22}";
type = Stem;
}
);
layerId = "0835C59E-AAFD-4756-A43C-35DA64A2CD7E";
paths = (
{
closed = 1;
nodes = (
"55 193 OFFCURVE",
"66 176 OFFCURVE",
"77 176 CURVE SMOOTH",
"91 176 OFFCURVE",
"104 189 OFFCURVE",
"104 205 CURVE",
"91 205 LINE",
"90 201 OFFCURVE",
"89 191 OFFCURVE",
"77 191 CURVE SMOOTH",
"68 191 OFFCURVE",
"64 205 OFFCURVE",
"47 205 CURVE SMOOTH",
"33 205 OFFCURVE",
"25 191 OFFCURVE",
"25 175 CURVE",
"25 175 OFFCURVE",
"38 175 OFFCURVE",
"38 175 CURVE",
"39 181 OFFCURVE",
"40 187 OFFCURVE",
"47 190 CURVE"
);
},
{
closed = 1;
nodes = (
"115 28 OFFCURVE",
"121 50 OFFCURVE",
"121 81 CURVE SMOOTH",
"121 111 OFFCURVE",
"115 133 OFFCURVE",
"102 148 CURVE",
"93 160 OFFCURVE",
"80 166 OFFCURVE",
"64 166 CURVE SMOOTH",
"18 166 OFFCURVE",
"7 118 OFFCURVE",
"7 81 CURVE SMOOTH",
"7 43 OFFCURVE",
"17 -5 OFFCURVE",
"64 -5 CURVE SMOOTH",
"80 -5 OFFCURVE",
"93 1 OFFCURVE",
"102 13 CURVE"
);
},
{
closed = 1;
nodes = (
"32 36 OFFCURVE",
"28 54 OFFCURVE",
"28 81 CURVE SMOOTH",
"28 107 OFFCURVE",
"32 125 OFFCURVE",
"41 136 CURVE",
"47 145 OFFCURVE",
"55 150 OFFCURVE",
"64 150 CURVE SMOOTH",
"94 150 OFFCURVE",
"99 102 OFFCURVE",
"99 81 CURVE SMOOTH",
"99 60 OFFCURVE",
"95 11 OFFCURVE",
"64 11 CURVE SMOOTH",
"55 11 OFFCURVE",
"47 16 OFFCURVE",
"41 25 CURVE"
);
}
);
width = 128;
}
);
note = Otilde;
unicode = 00D5;
},
{
glyphname = P;
layers = (
{
hints = (
{
horizontal = 1;
place = "{0, 21}";
target = up;
type = BottomGhost;
},
{
horizontal = 1;
place = "{59, 16}";
type = Stem;
},
{
horizontal = 1;
place = "{145, 17}";
type = Stem;
},
{
place = "{18, 21}";
type = Stem;
},
{
place = "{97, 21}";
type = Stem;
}
);
layerId = "0835C59E-AAFD-4756-A43C-35DA64A2CD7E";
paths = (
{
closed = 1;
nodes = (
"39 0 OFFCURVE",
"39 59 OFFCURVE",
"39 59 CURVE",
"48 59 LINE SMOOTH",
"95 59 OFFCURVE",
"118 78 OFFCURVE",
"118 116 CURVE SMOOTH",
"118 130 OFFCURVE",
"114 141 OFFCURVE",
"105 150 CURVE",
"96 158 OFFCURVE",
"81 162 OFFCURVE",
"59 162 CURVE SMOOTH",
"59 162 OFFCURVE",
"18 162 OFFCURVE",
"18 162 CURVE SMOOTH",
"18 162 OFFCURVE",
"18 0 OFFCURVE",
"18 0 CURVE SMOOTH",
"18 0 OFFCURVE",
"39 0 OFFCURVE",
"39 0 CURVE SMOOTH"
);
},
{
closed = 1;
nodes = (
"69 145 OFFCURVE",
"81 143 OFFCURVE",
"88 138 CURVE",
"94 133 OFFCURVE",
"97 125 OFFCURVE",
"97 115 CURVE SMOOTH",
"97 103 OFFCURVE",
"93 93 OFFCURVE",
"86 86 CURVE",
"77 79 OFFCURVE",
"64 75 OFFCURVE",
"48 75 CURVE SMOOTH",
"48 75 OFFCURVE",
"39 75 OFFCURVE",
"39 75 CURVE",
"39 145 LINE",
"39 145 OFFCURVE",
"52 145 OFFCURVE",
"52 145 CURVE"
);
}
);
width = 128;
}
);
note = P;
unicode = 0050;
},
{
glyphname = Q;
layers = (
{
hints = (
{
horizontal = 1;
place = "{-45, 16}";
type = Stem;
},
{
horizontal = 1;
place = "{-3, 14}";
type = Stem;
},
{
horizontal = 1;
place = "{150, 16}";
type = Stem;
},
{
place = "{7, 21}";
type = Stem;
},
{
place = "{99, 22}";
type = Stem;
}
);
layerId = "0835C59E-AAFD-4756-A43C-35DA64A2CD7E";
paths = (
{
closed = 1;
nodes = (
"113 6 OFFCURVE",
"121 51 OFFCURVE",
"121 81 CURVE SMOOTH",
"121 111 OFFCURVE",
"115 133 OFFCURVE",
"102 148 CURVE",
"93 160 OFFCURVE",
"80 166 OFFCURVE",
"64 166 CURVE SMOOTH",
"19 166 OFFCURVE",
"7 120 OFFCURVE",
"7 83 CURVE SMOOTH",
"7 44 OFFCURVE",
"17 0 OFFCURVE",
"62 -5 CURVE",
"69 -20 OFFCURVE",
"77 -30 OFFCURVE",
"87 -37 CURVE",
"100 -44 OFFCURVE",
"114 -45 OFFCURVE",
"128 -45 CURVE",
"128 -45 OFFCURVE",
"128 -29 OFFCURVE",
"128 -29 CURVE SMOOTH",
"126 -29 LINE SMOOTH",
"104 -29 OFFCURVE",
"88 -20 OFFCURVE",
"78 -3 CURVE"
);
},
{
closed = 1;
nodes = (
"99 60 OFFCURVE",
"95 11 OFFCURVE",
"64 11 CURVE SMOOTH",
"55 11 OFFCURVE",
"47 16 OFFCURVE",
"41 25 CURVE",
"32 36 OFFCURVE",
"28 54 OFFCURVE",
"28 81 CURVE SMOOTH",
"28 107 OFFCURVE",
"32 125 OFFCURVE",
"41 136 CURVE",
"47 145 OFFCURVE",
"55 150 OFFCURVE",
"64 150 CURVE SMOOTH",
"94 150 OFFCURVE",
"99 102 OFFCURVE",
"99 81 CURVE SMOOTH"
);
}
);
width = 128;
}
);
note = Q;
unicode = 0051;
},
{
glyphname = R;
layers = (
{
hints = (
{
horizontal = 1;
place = "{0, 21}";
target = up;
type = BottomGhost;
},
{
horizontal = 1;
place = "{69, 16}";
type = Stem;
},
{
horizontal = 1;
place = "{145, 17}";
type = Stem;
},
{
place = "{16, 21}";
type = Stem;
},
{
place = "{91, 20}";
type = Stem;
}
);
layerId = "0835C59E-AAFD-4756-A43C-35DA64A2CD7E";
paths = (
{
closed = 1;
nodes = (
"37 0 OFFCURVE",
"37 69 OFFCURVE",
"37 69 CURVE",
"58 69 LINE",
"58 69 OFFCURVE",
"100 0 OFFCURVE",
"100 0 CURVE SMOOTH",
"100 0 OFFCURVE",
"125 0 OFFCURVE",
"125 0 CURVE SMOOTH",
"125 0 OFFCURVE",
"79 76 OFFCURVE",
"79 76 CURVE",
"100 87 OFFCURVE",
"111 104 OFFCURVE",
"111 125 CURVE SMOOTH",
"111 136 OFFCURVE",
"107 145 OFFCURVE",
"99 152 CURVE",
"92 159 OFFCURVE",
"79 162 OFFCURVE",
"59 162 CURVE SMOOTH",
"59 162 OFFCURVE",
"16 162 OFFCURVE",
"16 162 CURVE SMOOTH",
"16 162 OFFCURVE",
"16 0 OFFCURVE",
"16 0 CURVE SMOOTH",
"16 0 OFFCURVE",
"37 0 OFFCURVE",
"37 0 CURVE SMOOTH"
);
},
{
closed = 1;
nodes = (
"37 145 LINE",
"37 145 OFFCURVE",
"52 145 OFFCURVE",
"52 145 CURVE",
"67 145 OFFCURVE",
"77 143 OFFCURVE",
"83 139 CURVE",
"88 134 OFFCURVE",
"91 128 OFFCURVE",
"91 121 CURVE SMOOTH",
"91 106 OFFCURVE",
"83 94 OFFCURVE",
"66 85 CURVE",
"66 85 OFFCURVE",
"37 85 OFFCURVE",
"37 85 CURVE"
);
}
);
width = 128;
}
);
note = R;
unicode = 0052;
},
{
glyphname = Rcaron;
layers = (
{
hints = (
{
horizontal = 1;
place = "{0, 21}";
target = up;
type = BottomGhost;
},
{
horizontal = 1;
place = "{69, 16}";
type = Stem;
},
{
horizontal = 1;
place = "{145, 17}";
type = Stem;
},
{
place = "{16, 21}";
type = Stem;
},
{
place = "{91, 20}";
type = Stem;
}
);
layerId = "0835C59E-AAFD-4756-A43C-35DA64A2CD7E";
paths = (
{
closed = 1;
nodes = (
"56 174 OFFCURVE",
"73 174 OFFCURVE",
"73 174 CURVE SMOOTH",
"73 174 OFFCURVE",
"105 208 OFFCURVE",
"105 208 CURVE SMOOTH",
"88 208 LINE",
"64 188 LINE",
"41 208 LINE",
"41 208 OFFCURVE",
"24 208 OFFCURVE",
"24 208 CURVE SMOOTH",
"24 208 OFFCURVE",
"56 174 OFFCURVE",
"56 174 CURVE SMOOTH"
);
},
{
closed = 1;
nodes = (
"37 0 OFFCURVE",
"37 69 OFFCURVE",
"37 69 CURVE",
"58 69 LINE",
"58 69 OFFCURVE",
"100 0 OFFCURVE",
"100 0 CURVE SMOOTH",
"100 0 OFFCURVE",
"125 0 OFFCURVE",
"125 0 CURVE SMOOTH",
"125 0 OFFCURVE",
"79 76 OFFCURVE",
"79 76 CURVE",
"100 87 OFFCURVE",
"111 104 OFFCURVE",
"111 125 CURVE SMOOTH",
"111 136 OFFCURVE",
"107 145 OFFCURVE",
"99 152 CURVE",
"92 159 OFFCURVE",
"79 162 OFFCURVE",
"59 162 CURVE SMOOTH",
"59 162 OFFCURVE",
"16 162 OFFCURVE",
"16 162 CURVE SMOOTH",
"16 162 OFFCURVE",
"16 0 OFFCURVE",
"16 0 CURVE SMOOTH",
"16 0 OFFCURVE",
"37 0 OFFCURVE",
"37 0 CURVE SMOOTH"
);
},
{
closed = 1;
nodes = (
"37 145 LINE",
"37 145 OFFCURVE",
"52 145 OFFCURVE",
"52 145 CURVE",
"67 145 OFFCURVE",
"77 143 OFFCURVE",
"83 139 CURVE",
"88 134 OFFCURVE",
"91 128 OFFCURVE",
"91 121 CURVE SMOOTH",
"91 106 OFFCURVE",
"83 94 OFFCURVE",
"66 85 CURVE",
"66 85 OFFCURVE",
"37 85 OFFCURVE",
"37 85 CURVE"
);
}
);
width = 128;
}
);
note = Rcaron;
unicode = 0158;
},
{
glyphname = S;
layers = (
{
hints = (
{
horizontal = 1;
place = "{-5, 16}";
type = Stem;
},
{
horizontal = 1;
place = "{150, 16}";
type = Stem;
},
{
place = "{18, 21}";
type = Stem;
},
{
place = "{94, 21}";
type = Stem;
}
);
layerId = "0835C59E-AAFD-4756-A43C-35DA64A2CD7E";
paths = (
{
closed = 1;
nodes = (
"35 -2 OFFCURVE",
"49 -5 OFFCURVE",
"57 -5 CURVE SMOOTH",
"87 -5 OFFCURVE",
"115 7 OFFCURVE",
"115 41 CURVE SMOOTH",
"115 58 OFFCURVE",
"106 71 OFFCURVE",
"88 82 CURVE SMOOTH",
"63 97 OFFCURVE",
"48 107 OFFCURVE",
"45 111 CURVE",
"41 115 OFFCURVE",
"39 120 OFFCURVE",
"39 126 CURVE SMOOTH",
"39 143 OFFCURVE",
"55 150 OFFCURVE",
"69 150 CURVE SMOOTH",
"84 150 OFFCURVE",
"95 148 OFFCURVE",
"104 143 CURVE",
"104 143 OFFCURVE",
"104 161 OFFCURVE",
"104 161 CURVE",
"87 164 OFFCURVE",
"76 166 OFFCURVE",
"70 166 CURVE SMOOTH",
"42 166 OFFCURVE",
"18 154 OFFCURVE",
"18 123 CURVE SMOOTH",
"18 106 OFFCURVE",
"27 93 OFFCURVE",
"46 82 CURVE SMOOTH",
"71 68 OFFCURVE",
"85 59 OFFCURVE",
"88 54 CURVE",
"92 49 OFFCURVE",
"94 43 OFFCURVE",
"94 37 CURVE SMOOTH",
"94 30 OFFCURVE",
"91 24 OFFCURVE",
"86 19 CURVE",
"79 14 OFFCURVE",
"71 11 OFFCURVE",
"62 11 CURVE SMOOTH",
"49 11 OFFCURVE",
"33 15 OFFCURVE",
"16 23 CURVE",
"16 23 OFFCURVE",
"16 3 OFFCURVE",
"16 3 CURVE"
);
}
);
width = 128;
}
);
note = S;
unicode = 0053;
},
{
glyphname = Sacute;
layers = (
{
hints = (
{
horizontal = 1;
place = "{-5, 16}";
type = Stem;
},
{
horizontal = 1;
place = "{150, 16}";
type = Stem;
},
{
horizontal = 1;
place = "{242, 18}";
type = Stem;
},
{
place = "{18, 21}";
type = Stem;
},
{
place = "{100, 64}";
type = Stem;
},
{
place = "{94, 21}";
type = Stem;
},
{
place = "{151, 11}";
type = Stem;
}
);
layerId = "0835C59E-AAFD-4756-A43C-35DA64A2CD7E";
paths = (
{
closed = 1;
nodes = (
"68 214 LINE SMOOTH",
"68 214 OFFCURVE",
"37 180 OFFCURVE",
"37 180 CURVE SMOOTH",
"37 180 OFFCURVE",
"55 180 OFFCURVE",
"55 180 CURVE SMOOTH",
"55 180 OFFCURVE",
"91 214 OFFCURVE",
"91 214 CURVE SMOOTH"
);
},
{
closed = 1;
nodes = (
"35 -2 OFFCURVE",
"49 -5 OFFCURVE",
"57 -5 CURVE SMOOTH",
"87 -5 OFFCURVE",
"115 7 OFFCURVE",
"115 41 CURVE SMOOTH",
"115 58 OFFCURVE",
"106 71 OFFCURVE",
"88 82 CURVE SMOOTH",
"63 97 OFFCURVE",
"48 107 OFFCURVE",
"45 111 CURVE",
"41 115 OFFCURVE",
"39 120 OFFCURVE",
"39 126 CURVE SMOOTH",
"39 143 OFFCURVE",
"55 150 OFFCURVE",
"69 150 CURVE SMOOTH",
"84 150 OFFCURVE",
"95 148 OFFCURVE",
"104 143 CURVE",
"104 143 OFFCURVE",
"104 161 OFFCURVE",
"104 161 CURVE",
"87 164 OFFCURVE",
"76 166 OFFCURVE",
"70 166 CURVE SMOOTH",
"42 166 OFFCURVE",
"18 154 OFFCURVE",
"18 123 CURVE SMOOTH",
"18 106 OFFCURVE",
"27 93 OFFCURVE",
"46 82 CURVE SMOOTH",
"71 68 OFFCURVE",
"85 59 OFFCURVE",
"88 54 CURVE",
"92 49 OFFCURVE",
"94 43 OFFCURVE",
"94 37 CURVE SMOOTH",
"94 30 OFFCURVE",
"91 24 OFFCURVE",
"86 19 CURVE",
"79 14 OFFCURVE",
"71 11 OFFCURVE",
"62 11 CURVE SMOOTH",
"49 11 OFFCURVE",
"33 15 OFFCURVE",
"16 23 CURVE",
"16 23 OFFCURVE",
"16 3 OFFCURVE",
"16 3 CURVE"
);
}
);
width = 128;
}
);
note = Sacute;
unicode = 015A;
},
{
glyphname = Scedilla;
layers = (
{
hints = (
{
horizontal = 1;
place = "{-5, 16}";
type = Stem;
},
{
horizontal = 1;
place = "{150, 16}";
type = Stem;
},
{
place = "{18, 21}";
type = Stem;
},
{
place = "{94, 21}";
type = Stem;
}
);
layerId = "0835C59E-AAFD-4756-A43C-35DA64A2CD7E";
paths = (
{
closed = 1;
nodes = (
"35 -2 OFFCURVE",
"49 -5 OFFCURVE",
"57 -5 CURVE SMOOTH",
"61 -5 OFFCURVE",
"66 -5 OFFCURVE",
"70 -4 CURVE",
"70 -28 LINE",
"45 -28 LINE",
"45 -42 LINE",
"84 -42 LINE",
"84 -1 LINE",
"102 5 OFFCURVE",
"115 18 OFFCURVE",
"115 41 CURVE SMOOTH",
"115 58 OFFCURVE",
"106 71 OFFCURVE",
"88 82 CURVE SMOOTH",
"63 97 OFFCURVE",
"48 107 OFFCURVE",
"45 111 CURVE",
"41 115 OFFCURVE",
"39 120 OFFCURVE",
"39 126 CURVE SMOOTH",
"39 143 OFFCURVE",
"55 150 OFFCURVE",
"69 150 CURVE SMOOTH",
"84 150 OFFCURVE",
"95 148 OFFCURVE",
"104 143 CURVE",
"104 143 OFFCURVE",
"104 161 OFFCURVE",
"104 161 CURVE",
"87 164 OFFCURVE",
"76 166 OFFCURVE",
"70 166 CURVE SMOOTH",
"42 166 OFFCURVE",
"18 154 OFFCURVE",
"18 123 CURVE SMOOTH",
"18 106 OFFCURVE",
"27 93 OFFCURVE",
"46 82 CURVE SMOOTH",
"71 68 OFFCURVE",
"85 59 OFFCURVE",
"88 54 CURVE",
"92 49 OFFCURVE",
"94 43 OFFCURVE",
"94 37 CURVE SMOOTH",
"94 30 OFFCURVE",
"91 24 OFFCURVE",
"86 19 CURVE",
"79 14 OFFCURVE",
"71 11 OFFCURVE",
"62 11 CURVE SMOOTH",
"49 11 OFFCURVE",
"33 15 OFFCURVE",
"16 23 CURVE",
"16 23 OFFCURVE",
"16 3 OFFCURVE",
"16 3 CURVE"
);
}
);
width = 128;
}
);
note = Scedilla;
unicode = 015E;
},
{
glyphname = Scircumflex;
layers = (
{
hints = (
{
horizontal = 1;
place = "{-5, 16}";
type = Stem;
},
{
horizontal = 1;
place = "{150, 16}";
type = Stem;
},
{
place = "{18, 21}";
type = Stem;
},
{
place = "{94, 21}";
type = Stem;
},
{
horizontal = 1;
place = "{174, 34}";
type = Stem;
},
{
place = "{88, 16}";
type = Stem;
}
);
layerId = "0835C59E-AAFD-4756-A43C-35DA64A2CD7E";
paths = (
{
closed = 1;
nodes = (
"56 208 OFFCURVE",
"24 174 OFFCURVE",
"24 174 CURVE SMOOTH",
"24 174 OFFCURVE",
"41 174 OFFCURVE",
"41 174 CURVE",
"64 194 LINE",
"88 174 LINE",
"88 174 OFFCURVE",
"105 174 OFFCURVE",
"105 174 CURVE SMOOTH",
"105 174 OFFCURVE",
"73 208 OFFCURVE",
"73 208 CURVE SMOOTH",
"73 208 OFFCURVE",
"56 208 OFFCURVE",
"56 208 CURVE SMOOTH"
);
},
{
closed = 1;
nodes = (
"35 -2 OFFCURVE",
"49 -5 OFFCURVE",
"57 -5 CURVE SMOOTH",
"87 -5 OFFCURVE",
"115 7 OFFCURVE",
"115 41 CURVE SMOOTH",
"115 58 OFFCURVE",
"106 71 OFFCURVE",
"88 82 CURVE SMOOTH",
"63 97 OFFCURVE",
"48 107 OFFCURVE",
"45 111 CURVE",
"41 115 OFFCURVE",
"39 120 OFFCURVE",
"39 126 CURVE SMOOTH",
"39 143 OFFCURVE",
"55 150 OFFCURVE",
"69 150 CURVE SMOOTH",
"84 150 OFFCURVE",
"95 148 OFFCURVE",
"104 143 CURVE",
"104 143 OFFCURVE",
"104 161 OFFCURVE",
"104 161 CURVE",
"87 164 OFFCURVE",
"76 166 OFFCURVE",
"70 166 CURVE SMOOTH",
"42 166 OFFCURVE",
"18 154 OFFCURVE",
"18 123 CURVE SMOOTH",
"18 106 OFFCURVE",
"27 93 OFFCURVE",
"46 82 CURVE SMOOTH",
"71 68 OFFCURVE",
"85 59 OFFCURVE",
"88 54 CURVE",
"92 49 OFFCURVE",
"94 43 OFFCURVE",
"94 37 CURVE SMOOTH",
"94 30 OFFCURVE",
"91 24 OFFCURVE",
"86 19 CURVE",
"79 14 OFFCURVE",
"71 11 OFFCURVE",
"62 11 CURVE SMOOTH",
"49 11 OFFCURVE",
"33 15 OFFCURVE",
"16 23 CURVE",
"16 23 OFFCURVE",
"16 3 OFFCURVE",
"16 3 CURVE"
);
}
);
width = 128;
}
);
note = Scircumflex;
unicode = 015C;
},
{
glyphname = T;
layers = (
{
hints = (
{
horizontal = 1;
place = "{0, 21}";
target = up;
type = BottomGhost;
},
{
horizontal = 1;
place = "{144, 18}";
type = Stem;
},
{
place = "{53, 21}";
type = Stem;
}
);
layerId = "0835C59E-AAFD-4756-A43C-35DA64A2CD7E";
paths = (
{
closed = 1;
nodes = (
"53 144 OFFCURVE",
"53 0 OFFCURVE",
"53 0 CURVE SMOOTH",
"53 0 OFFCURVE",
"74 0 OFFCURVE",
"74 0 CURVE SMOOTH",
"74 0 OFFCURVE",
"74 144 OFFCURVE",
"74 144 CURVE",
"123 144 LINE",
"123 144 OFFCURVE",
"123 162 OFFCURVE",
"123 162 CURVE SMOOTH",
"123 162 OFFCURVE",
"5 162 OFFCURVE",
"5 162 CURVE SMOOTH",
"5 162 OFFCURVE",
"5 144 OFFCURVE",
"5 144 CURVE SMOOTH",
"5 144 OFFCURVE",
"53 144 OFFCURVE",
"53 144 CURVE SMOOTH"
);
}
);
width = 128;
}
);
note = T;
unicode = 0054;
},
{
glyphname = Tbar;
layers = (
{
hints = (
{
horizontal = 1;
place = "{0, 21}";
target = up;
type = BottomGhost;
},
{
horizontal = 1;
place = "{144, 18}";
type = Stem;
},
{
place = "{53, 21}";
type = Stem;
}
);
layerId = "0835C59E-AAFD-4756-A43C-35DA64A2CD7E";
paths = (
{
closed = 1;
nodes = (
"53 144 OFFCURVE",
"53 124 OFFCURVE",
"53 100 CURVE",
"26 91 LINE",
"26 77 LINE",
"53 77 LINE",
"53 41 OFFCURVE",
"53 0 OFFCURVE",
"53 0 CURVE SMOOTH",
"53 0 OFFCURVE",
"74 0 OFFCURVE",
"74 0 CURVE SMOOTH",
"74 0 OFFCURVE",
"74 41 OFFCURVE",
"74 79 CURVE",
"102 77 LINE",
"102 91 LINE",
"74 91 LINE",
"74 124 OFFCURVE",
"74 144 OFFCURVE",
"74 144 CURVE",
"123 144 LINE",
"123 144 OFFCURVE",
"123 162 OFFCURVE",
"123 162 CURVE SMOOTH",
"123 162 OFFCURVE",
"5 162 OFFCURVE",
"5 162 CURVE SMOOTH",
"5 162 OFFCURVE",
"5 144 OFFCURVE",
"5 144 CURVE SMOOTH",
"5 144 OFFCURVE",
"53 144 OFFCURVE",
"53 144 CURVE SMOOTH"
);
}
);
width = 128;
}
);
note = Tbar;
unicode = 0166;
},
{
glyphname = Tcaron;
layers = (
{
hints = (
{
horizontal = 1;
place = "{0, 21}";
target = up;
type = BottomGhost;
},
{
horizontal = 1;
place = "{144, 18}";
type = Stem;
},
{
place = "{53, 21}";
type = Stem;
}
);
layerId = "0835C59E-AAFD-4756-A43C-35DA64A2CD7E";
paths = (
{
closed = 1;
nodes = (
"56 168 OFFCURVE",
"73 168 OFFCURVE",
"73 168 CURVE SMOOTH",
"73 168 OFFCURVE",
"105 202 OFFCURVE",
"105 202 CURVE SMOOTH",
"88 202 LINE",
"64 182 LINE",
"41 202 LINE",
"41 202 OFFCURVE",
"24 202 OFFCURVE",
"24 202 CURVE SMOOTH",
"24 202 OFFCURVE",
"56 168 OFFCURVE",
"56 168 CURVE SMOOTH"
);
},
{
closed = 1;
nodes = (
"53 144 OFFCURVE",
"53 0 OFFCURVE",
"53 0 CURVE SMOOTH",
"53 0 OFFCURVE",
"74 0 OFFCURVE",
"74 0 CURVE SMOOTH",
"74 0 OFFCURVE",
"74 144 OFFCURVE",
"74 144 CURVE",
"123 144 LINE",
"123 144 OFFCURVE",
"123 162 OFFCURVE",
"123 162 CURVE SMOOTH",
"123 162 OFFCURVE",
"5 162 OFFCURVE",
"5 162 CURVE SMOOTH",
"5 162 OFFCURVE",
"5 144 OFFCURVE",
"5 144 CURVE SMOOTH",
"5 144 OFFCURVE",
"53 144 OFFCURVE",
"53 144 CURVE SMOOTH"
);
}
);
width = 128;
}
);
note = Tcaron;
unicode = 0164;
},
{
glyphname = U;
layers = (
{
hints = (
{
horizontal = 1;
place = "{-5, 16}";
type = Stem;
},
{
horizontal = 1;
place = "{162, -20}";
target = down;
type = TopGhost;
},
{
place = "{13, 21}";
type = Stem;
},
{
place = "{96, 19}";
type = Stem;
}
);
layerId = "0835C59E-AAFD-4756-A43C-35DA64A2CD7E";
paths = (
{
closed = 1;
nodes = (
"13 34 OFFCURVE",
"17 18 OFFCURVE",
"26 9 CURVE",
"34 0 OFFCURVE",
"46 -5 OFFCURVE",
"63 -5 CURVE SMOOTH",
"100 -5 OFFCURVE",
"115 23 OFFCURVE",
"115 56 CURVE",
"115 56 OFFCURVE",
"115 162 OFFCURVE",
"115 162 CURVE SMOOTH",
"115 162 OFFCURVE",
"96 162 OFFCURVE",
"96 162 CURVE SMOOTH",
"96 162 OFFCURVE",
"96 64 OFFCURVE",
"96 64 CURVE",
"96 29 OFFCURVE",
"85 11 OFFCURVE",
"64 11 CURVE SMOOTH",
"55 11 OFFCURVE",
"47 14 OFFCURVE",
"42 20 CURVE",
"37 27 OFFCURVE",
"34 39 OFFCURVE",
"34 56 CURVE",
"34 56 OFFCURVE",
"34 162 OFFCURVE",
"34 162 CURVE SMOOTH",
"34 162 OFFCURVE",
"13 162 OFFCURVE",
"13 162 CURVE SMOOTH",
"13 162 OFFCURVE",
"13 58 OFFCURVE",
"13 58 CURVE"
);
}
);
width = 128;
}
);
note = U;
unicode = 0055;
},
{
glyphname = Uacute;
layers = (
{
hints = (
{
horizontal = 1;
place = "{-5, 16}";
type = Stem;
},
{
horizontal = 1;
place = "{162, -20}";
target = down;
type = TopGhost;
},
{
horizontal = 1;
place = "{171, 34}";
type = Stem;
},
{
place = "{13, 21}";
type = Stem;
},
{
place = "{96, 19}";
type = Stem;
}
);
layerId = "0835C59E-AAFD-4756-A43C-35DA64A2CD7E";
paths = (
{
closed = 1;
nodes = (
"69 205 LINE SMOOTH",
"69 205 OFFCURVE",
"38 171 OFFCURVE",
"38 171 CURVE SMOOTH",
"38 171 OFFCURVE",
"56 171 OFFCURVE",
"56 171 CURVE SMOOTH",
"56 171 OFFCURVE",
"92 205 OFFCURVE",
"92 205 CURVE SMOOTH"
);
},
{
closed = 1;
nodes = (
"13 34 OFFCURVE",
"17 18 OFFCURVE",
"26 9 CURVE",
"34 0 OFFCURVE",
"46 -5 OFFCURVE",
"63 -5 CURVE SMOOTH",
"100 -5 OFFCURVE",
"115 23 OFFCURVE",
"115 56 CURVE",
"115 56 OFFCURVE",
"115 162 OFFCURVE",
"115 162 CURVE SMOOTH",
"115 162 OFFCURVE",
"96 162 OFFCURVE",
"96 162 CURVE SMOOTH",
"96 162 OFFCURVE",
"96 64 OFFCURVE",
"96 64 CURVE",
"96 29 OFFCURVE",
"85 11 OFFCURVE",
"64 11 CURVE SMOOTH",
"55 11 OFFCURVE",
"47 14 OFFCURVE",
"42 20 CURVE",
"37 27 OFFCURVE",
"34 39 OFFCURVE",
"34 56 CURVE",
"34 56 OFFCURVE",
"34 162 OFFCURVE",
"34 162 CURVE SMOOTH",
"34 162 OFFCURVE",
"13 162 OFFCURVE",
"13 162 CURVE SMOOTH",
"13 162 OFFCURVE",
"13 58 OFFCURVE",
"13 58 CURVE"
);
}
);
width = 125;
}
);
note = Uacute;
unicode = 00DA;
},
{
glyphname = Ucircumflex;
layers = (
{
hints = (
{
horizontal = 1;
place = "{-5, 16}";
type = Stem;
},
{
horizontal = 1;
place = "{162, -20}";
target = down;
type = TopGhost;
},
{
place = "{13, 21}";
type = Stem;
},
{
place = "{96, 19}";
type = Stem;
}
);
layerId = "0835C59E-AAFD-4756-A43C-35DA64A2CD7E";
paths = (
{
closed = 1;
nodes = (
"56 208 OFFCURVE",
"24 174 OFFCURVE",
"24 174 CURVE SMOOTH",
"24 174 OFFCURVE",
"41 174 OFFCURVE",
"41 174 CURVE",
"64 194 LINE",
"88 174 LINE",
"88 174 OFFCURVE",
"105 174 OFFCURVE",
"105 174 CURVE SMOOTH",
"105 174 OFFCURVE",
"73 208 OFFCURVE",
"73 208 CURVE SMOOTH",
"73 208 OFFCURVE",
"56 208 OFFCURVE",
"56 208 CURVE SMOOTH"
);
},
{
closed = 1;
nodes = (
"13 34 OFFCURVE",
"17 18 OFFCURVE",
"26 9 CURVE",
"34 0 OFFCURVE",
"46 -5 OFFCURVE",
"63 -5 CURVE SMOOTH",
"100 -5 OFFCURVE",
"115 23 OFFCURVE",
"115 56 CURVE",
"115 56 OFFCURVE",
"115 162 OFFCURVE",
"115 162 CURVE SMOOTH",
"115 162 OFFCURVE",
"96 162 OFFCURVE",
"96 162 CURVE SMOOTH",
"96 162 OFFCURVE",
"96 64 OFFCURVE",
"96 64 CURVE",
"96 29 OFFCURVE",
"85 11 OFFCURVE",
"64 11 CURVE SMOOTH",
"55 11 OFFCURVE",
"47 14 OFFCURVE",
"42 20 CURVE",
"37 27 OFFCURVE",
"34 39 OFFCURVE",
"34 56 CURVE",
"34 56 OFFCURVE",
"34 162 OFFCURVE",
"34 162 CURVE SMOOTH",
"34 162 OFFCURVE",
"13 162 OFFCURVE",
"13 162 CURVE SMOOTH",
"13 162 OFFCURVE",
"13 58 OFFCURVE",
"13 58 CURVE"
);
}
);
width = 128;
}
);
note = Ucircumflex;
unicode = 00DB;
},
{
glyphname = Udieresis;
layers = (
{
hints = (
{
horizontal = 1;
place = "{-5, 16}";
type = Stem;
},
{
horizontal = 1;
place = "{162, -20}";
target = down;
type = TopGhost;
},
{
horizontal = 1;
place = "{234, 22}";
type = Stem;
},
{
place = "{21, 22}";
type = Stem;
},
{
place = "{86, 21}";
type = Stem;
},
{
place = "{13, 21}";
type = Stem;
},
{
place = "{96, 19}";
type = Stem;
}
);
layerId = "0835C59E-AAFD-4756-A43C-35DA64A2CD7E";
paths = (
{
closed = 1;
nodes = (
"49 182 OFFCURVE",
"53 186 OFFCURVE",
"53 186 CURVE",
"53 199 LINE",
"53 199 OFFCURVE",
"49 204 OFFCURVE",
"49 204 CURVE SMOOTH",
"49 204 OFFCURVE",
"35 204 OFFCURVE",
"35 204 CURVE SMOOTH",
"35 204 OFFCURVE",
"31 200 OFFCURVE",
"31 200 CURVE SMOOTH",
"31 200 OFFCURVE",
"31 187 OFFCURVE",
"31 187 CURVE SMOOTH",
"31 187 OFFCURVE",
"36 182 OFFCURVE",
"36 182 CURVE SMOOTH",
"36 182 OFFCURVE",
"49 182 OFFCURVE",
"49 182 CURVE SMOOTH"
);
},
{
closed = 1;
nodes = (
"80 182 OFFCURVE",
"93 182 OFFCURVE",
"93 182 CURVE SMOOTH",
"93 182 OFFCURVE",
"97 186 OFFCURVE",
"97 186 CURVE",
"97 199 LINE",
"97 199 OFFCURVE",
"93 204 OFFCURVE",
"93 204 CURVE SMOOTH",
"93 204 OFFCURVE",
"79 204 OFFCURVE",
"79 204 CURVE SMOOTH",
"79 204 OFFCURVE",
"76 200 OFFCURVE",
"76 200 CURVE SMOOTH",
"76 200 OFFCURVE",
"76 186 OFFCURVE",
"76 186 CURVE SMOOTH",
"76 186 OFFCURVE",
"80 182 OFFCURVE",
"80 182 CURVE SMOOTH"
);
},
{
closed = 1;
nodes = (
"13 34 OFFCURVE",
"17 18 OFFCURVE",
"26 9 CURVE",
"34 0 OFFCURVE",
"46 -5 OFFCURVE",
"63 -5 CURVE SMOOTH",
"100 -5 OFFCURVE",
"115 23 OFFCURVE",
"115 56 CURVE",
"115 56 OFFCURVE",
"115 162 OFFCURVE",
"115 162 CURVE SMOOTH",
"115 162 OFFCURVE",
"96 162 OFFCURVE",
"96 162 CURVE SMOOTH",
"96 162 OFFCURVE",
"96 64 OFFCURVE",
"96 64 CURVE",
"96 29 OFFCURVE",
"85 11 OFFCURVE",
"64 11 CURVE SMOOTH",
"55 11 OFFCURVE",
"47 14 OFFCURVE",
"42 20 CURVE",
"37 27 OFFCURVE",
"34 39 OFFCURVE",
"34 56 CURVE",
"34 56 OFFCURVE",
"34 162 OFFCURVE",
"34 162 CURVE SMOOTH",
"34 162 OFFCURVE",
"13 162 OFFCURVE",
"13 162 CURVE SMOOTH",
"13 162 OFFCURVE",
"13 58 OFFCURVE",
"13 58 CURVE"
);
}
);
width = 128;
}
);
note = Udieresis;
unicode = 00DC;
},
{
glyphname = Ugrave;
layers = (
{
hints = (
{
horizontal = 1;
place = "{-5, 16}";
type = Stem;
},
{
horizontal = 1;
place = "{162, -20}";
target = down;
type = TopGhost;
},
{
horizontal = 1;
place = "{180, 34}";
type = Stem;
},
{
place = "{13, 21}";
type = Stem;
},
{
place = "{37, 54}";
type = Stem;
},
{
place = "{96, 19}";
type = Stem;
}
);
layerId = "0835C59E-AAFD-4756-A43C-35DA64A2CD7E";
paths = (
{
closed = 1;
nodes = (
"37 214 LINE SMOOTH",
"37 214 OFFCURVE",
"73 180 OFFCURVE",
"73 180 CURVE SMOOTH",
"73 180 OFFCURVE",
"91 180 OFFCURVE",
"91 180 CURVE SMOOTH",
"91 180 OFFCURVE",
"60 214 OFFCURVE",
"60 214 CURVE SMOOTH"
);
},
{
closed = 1;
nodes = (
"13 34 OFFCURVE",
"17 18 OFFCURVE",
"26 9 CURVE",
"34 0 OFFCURVE",
"46 -5 OFFCURVE",
"63 -5 CURVE SMOOTH",
"100 -5 OFFCURVE",
"115 23 OFFCURVE",
"115 56 CURVE",
"115 56 OFFCURVE",
"115 162 OFFCURVE",
"115 162 CURVE SMOOTH",
"115 162 OFFCURVE",
"96 162 OFFCURVE",
"96 162 CURVE SMOOTH",
"96 162 OFFCURVE",
"96 64 OFFCURVE",
"96 64 CURVE",
"96 29 OFFCURVE",
"85 11 OFFCURVE",
"64 11 CURVE SMOOTH",
"55 11 OFFCURVE",
"47 14 OFFCURVE",
"42 20 CURVE",
"37 27 OFFCURVE",
"34 39 OFFCURVE",
"34 56 CURVE",
"34 56 OFFCURVE",
"34 162 OFFCURVE",
"34 162 CURVE SMOOTH",
"34 162 OFFCURVE",
"13 162 OFFCURVE",
"13 162 CURVE SMOOTH",
"13 162 OFFCURVE",
"13 58 OFFCURVE",
"13 58 CURVE"
);
}
);
width = 128;
}
);
note = Ugrave;
unicode = 00D9;
},
{
glyphname = Umacron;
layers = (
{
hints = (
{
horizontal = 1;
place = "{-5, 16}";
type = Stem;
},
{
horizontal = 1;
place = "{162, -20}";
target = down;
type = TopGhost;
},
{
place = "{13, 21}";
type = Stem;
},
{
place = "{96, 19}";
type = Stem;
}
);
layerId = "0835C59E-AAFD-4756-A43C-35DA64A2CD7E";
paths = (
{
closed = 1;
nodes = (
"37 177 LINE",
"91 177 LINE",
"91 191 LINE",
"37 191 LINE"
);
},
{
closed = 1;
nodes = (
"13 34 OFFCURVE",
"17 18 OFFCURVE",
"26 9 CURVE",
"34 0 OFFCURVE",
"46 -5 OFFCURVE",
"63 -5 CURVE SMOOTH",
"100 -5 OFFCURVE",
"115 23 OFFCURVE",
"115 56 CURVE",
"115 56 OFFCURVE",
"115 162 OFFCURVE",
"115 162 CURVE SMOOTH",
"115 162 OFFCURVE",
"96 162 OFFCURVE",
"96 162 CURVE SMOOTH",
"96 162 OFFCURVE",
"96 64 OFFCURVE",
"96 64 CURVE",
"96 29 OFFCURVE",
"85 11 OFFCURVE",
"64 11 CURVE SMOOTH",
"55 11 OFFCURVE",
"47 14 OFFCURVE",
"42 20 CURVE",
"37 27 OFFCURVE",
"34 39 OFFCURVE",
"34 56 CURVE",
"34 56 OFFCURVE",
"34 162 OFFCURVE",
"34 162 CURVE SMOOTH",
"34 162 OFFCURVE",
"13 162 OFFCURVE",
"13 162 CURVE SMOOTH",
"13 162 OFFCURVE",
"13 58 OFFCURVE",
"13 58 CURVE"
);
}
);
width = 128;
}
);
note = Umacron;
unicode = 016A;
},
{
glyphname = Utilde;
layers = (
{
hints = (
{
horizontal = 1;
place = "{-5, 16}";
type = Stem;
},
{
horizontal = 1;
place = "{162, -20}";
target = down;
type = TopGhost;
},
{
place = "{13, 21}";
type = Stem;
},
{
place = "{96, 19}";
type = Stem;
}
);
layerId = "0835C59E-AAFD-4756-A43C-35DA64A2CD7E";
paths = (
{
closed = 1;
nodes = (
"55 191 OFFCURVE",
"66 174 OFFCURVE",
"77 174 CURVE SMOOTH",
"91 174 OFFCURVE",
"104 187 OFFCURVE",
"104 203 CURVE",
"91 203 LINE",
"90 199 OFFCURVE",
"89 189 OFFCURVE",
"77 189 CURVE SMOOTH",
"68 189 OFFCURVE",
"64 203 OFFCURVE",
"47 203 CURVE SMOOTH",
"33 203 OFFCURVE",
"25 189 OFFCURVE",
"25 173 CURVE",
"25 173 OFFCURVE",
"38 173 OFFCURVE",
"38 173 CURVE",
"39 179 OFFCURVE",
"40 185 OFFCURVE",
"47 188 CURVE"
);
},
{
closed = 1;
nodes = (
"13 34 OFFCURVE",
"17 18 OFFCURVE",
"26 9 CURVE",
"34 0 OFFCURVE",
"46 -5 OFFCURVE",
"63 -5 CURVE SMOOTH",
"100 -5 OFFCURVE",
"115 23 OFFCURVE",
"115 56 CURVE",
"115 56 OFFCURVE",
"115 162 OFFCURVE",
"115 162 CURVE SMOOTH",
"115 162 OFFCURVE",
"96 162 OFFCURVE",
"96 162 CURVE SMOOTH",
"96 162 OFFCURVE",
"96 64 OFFCURVE",
"96 64 CURVE",
"96 29 OFFCURVE",
"85 11 OFFCURVE",
"64 11 CURVE SMOOTH",
"55 11 OFFCURVE",
"47 14 OFFCURVE",
"42 20 CURVE",
"37 27 OFFCURVE",
"34 39 OFFCURVE",
"34 56 CURVE",
"34 56 OFFCURVE",
"34 162 OFFCURVE",
"34 162 CURVE SMOOTH",
"34 162 OFFCURVE",
"13 162 OFFCURVE",
"13 162 CURVE SMOOTH",
"13 162 OFFCURVE",
"13 58 OFFCURVE",
"13 58 CURVE"
);
}
);
width = 128;
}
);
note = Utilde;
unicode = 0168;
},
{
glyphname = V;
layers = (
{
hints = (
{
horizontal = 1;
place = "{0, 21}";
target = up;
type = BottomGhost;
},
{
horizontal = 1;
place = "{162, -20}";
target = down;
type = TopGhost;
},
{
place = "{3, 122}";
type = Stem;
}
);
layerId = "0835C59E-AAFD-4756-A43C-35DA64A2CD7E";
paths = (
{
closed = 1;
nodes = (
"54 0 OFFCURVE",
"75 0 OFFCURVE",
"75 0 CURVE SMOOTH",
"75 0 OFFCURVE",
"125 162 OFFCURVE",
"125 162 CURVE SMOOTH",
"104 162 LINE SMOOTH",
"104 162 OFFCURVE",
"69 49 OFFCURVE",
"69 49 CURVE SMOOTH",
"69 49 OFFCURVE",
"65 32 OFFCURVE",
"65 32 CURVE SMOOTH",
"65 32 OFFCURVE",
"61 49 OFFCURVE",
"61 49 CURVE SMOOTH",
"61 49 OFFCURVE",
"26 162 OFFCURVE",
"26 162 CURVE SMOOTH",
"26 162 OFFCURVE",
"3 162 OFFCURVE",
"3 162 CURVE SMOOTH",
"3 162 OFFCURVE",
"54 0 OFFCURVE",
"54 0 CURVE SMOOTH"
);
}
);
width = 128;
}
);
note = V;
unicode = 0056;
},
{
glyphname = W;
layers = (
{
hints = (
{
horizontal = 1;
place = "{0, 21}";
target = up;
type = BottomGhost;
},
{
horizontal = 1;
place = "{110, 52}";
type = Stem;
},
{
place = "{36, 58}";
type = Stem;
},
{
horizontal = 1;
place = "{126, 36}";
type = Stem;
},
{
place = "{3, 122}";
type = Stem;
}
);
layerId = "0835C59E-AAFD-4756-A43C-35DA64A2CD7E";
paths = (
{
closed = 1;
nodes = (
"22 0 OFFCURVE",
"41 0 OFFCURVE",
"41 0 CURVE SMOOTH",
"41 0 OFFCURVE",
"60 110 OFFCURVE",
"60 110 CURVE",
"62 126 LINE",
"63 126 LINE",
"63 126 OFFCURVE",
"65 110 OFFCURVE",
"65 110 CURVE SMOOTH",
"65 110 OFFCURVE",
"86 0 OFFCURVE",
"86 0 CURVE SMOOTH",
"86 0 OFFCURVE",
"106 0 OFFCURVE",
"106 0 CURVE SMOOTH",
"106 0 OFFCURVE",
"125 162 OFFCURVE",
"125 162 CURVE SMOOTH",
"125 162 OFFCURVE",
"109 162 OFFCURVE",
"109 162 CURVE SMOOTH",
"109 162 OFFCURVE",
"96 59 OFFCURVE",
"96 59 CURVE SMOOTH",
"96 59 OFFCURVE",
"95 44 OFFCURVE",
"95 44 CURVE SMOOTH",
"95 44 OFFCURVE",
"93 59 OFFCURVE",
"93 59 CURVE SMOOTH",
"93 59 OFFCURVE",
"73 162 OFFCURVE",
"73 162 CURVE SMOOTH",
"73 162 OFFCURVE",
"54 162 OFFCURVE",
"54 162 CURVE SMOOTH",
"54 162 OFFCURVE",
"37 63 OFFCURVE",
"37 63 CURVE SMOOTH",
"37 63 OFFCURVE",
"35 47 OFFCURVE",
"35 47 CURVE SMOOTH",
"35 47 OFFCURVE",
"22 162 OFFCURVE",
"22 162 CURVE SMOOTH",
"22 162 OFFCURVE",
"3 162 OFFCURVE",
"3 162 CURVE SMOOTH",
"3 162 OFFCURVE",
"22 0 OFFCURVE",
"22 0 CURVE SMOOTH"
);
}
);
width = 128;
}
);
note = W;
unicode = 0057;
},
{
glyphname = Wacute;
layers = (
{
hints = (
{
horizontal = 1;
place = "{0, 21}";
target = up;
type = BottomGhost;
},
{
horizontal = 1;
place = "{110, 52}";
type = Stem;
},
{
horizontal = 1;
place = "{242, 18}";
type = Stem;
},
{
place = "{36, 58}";
type = Stem;
},
{
place = "{100, 64}";
type = Stem;
},
{
horizontal = 1;
place = "{126, 36}";
type = Stem;
},
{
place = "{3, 122}";
type = Stem;
},
{
place = "{151, 11}";
type = Stem;
}
);
layerId = "0835C59E-AAFD-4756-A43C-35DA64A2CD7E";
paths = (
{
closed = 1;
nodes = (
"68 214 LINE SMOOTH",
"68 214 OFFCURVE",
"37 180 OFFCURVE",
"37 180 CURVE SMOOTH",
"37 180 OFFCURVE",
"55 180 OFFCURVE",
"55 180 CURVE SMOOTH",
"55 180 OFFCURVE",
"91 214 OFFCURVE",
"91 214 CURVE SMOOTH"
);
},
{
closed = 1;
nodes = (
"22 0 OFFCURVE",
"41 0 OFFCURVE",
"41 0 CURVE SMOOTH",
"41 0 OFFCURVE",
"60 110 OFFCURVE",
"60 110 CURVE",
"62 126 LINE",
"63 126 LINE",
"63 126 OFFCURVE",
"65 110 OFFCURVE",
"65 110 CURVE SMOOTH",
"65 110 OFFCURVE",
"86 0 OFFCURVE",
"86 0 CURVE SMOOTH",
"86 0 OFFCURVE",
"106 0 OFFCURVE",
"106 0 CURVE SMOOTH",
"106 0 OFFCURVE",
"125 162 OFFCURVE",
"125 162 CURVE SMOOTH",
"125 162 OFFCURVE",
"109 162 OFFCURVE",
"109 162 CURVE SMOOTH",
"109 162 OFFCURVE",
"96 59 OFFCURVE",
"96 59 CURVE SMOOTH",
"96 59 OFFCURVE",
"95 44 OFFCURVE",
"95 44 CURVE SMOOTH",
"95 44 OFFCURVE",
"93 59 OFFCURVE",
"93 59 CURVE SMOOTH",
"93 59 OFFCURVE",
"73 162 OFFCURVE",
"73 162 CURVE SMOOTH",
"73 162 OFFCURVE",
"54 162 OFFCURVE",
"54 162 CURVE SMOOTH",
"54 162 OFFCURVE",
"37 63 OFFCURVE",
"37 63 CURVE SMOOTH",
"37 63 OFFCURVE",
"35 47 OFFCURVE",
"35 47 CURVE SMOOTH",
"35 47 OFFCURVE",
"22 162 OFFCURVE",
"22 162 CURVE SMOOTH",
"22 162 OFFCURVE",
"3 162 OFFCURVE",
"3 162 CURVE SMOOTH",
"3 162 OFFCURVE",
"22 0 OFFCURVE",
"22 0 CURVE SMOOTH"
);
}
);
width = 128;
}
);
note = Wacute;
unicode = 1E82;
},
{
glyphname = Wcircumflex;
layers = (
{
hints = (
{
horizontal = 1;
place = "{0, 21}";
target = up;
type = BottomGhost;
},
{
horizontal = 1;
place = "{110, 52}";
type = Stem;
},
{
place = "{36, 58}";
type = Stem;
},
{
horizontal = 1;
place = "{126, 36}";
type = Stem;
},
{
place = "{3, 122}";
type = Stem;
}
);
layerId = "0835C59E-AAFD-4756-A43C-35DA64A2CD7E";
paths = (
{
closed = 1;
nodes = (
"56 207 OFFCURVE",
"24 173 OFFCURVE",
"24 173 CURVE SMOOTH",
"24 173 OFFCURVE",
"41 173 OFFCURVE",
"41 173 CURVE",
"64 193 LINE",
"88 173 LINE",
"88 173 OFFCURVE",
"105 173 OFFCURVE",
"105 173 CURVE SMOOTH",
"105 173 OFFCURVE",
"73 207 OFFCURVE",
"73 207 CURVE SMOOTH",
"73 207 OFFCURVE",
"56 207 OFFCURVE",
"56 207 CURVE SMOOTH"
);
},
{
closed = 1;
nodes = (
"22 0 OFFCURVE",
"41 0 OFFCURVE",
"41 0 CURVE SMOOTH",
"41 0 OFFCURVE",
"60 110 OFFCURVE",
"60 110 CURVE",
"62 126 LINE",
"63 126 LINE",
"63 126 OFFCURVE",
"65 110 OFFCURVE",
"65 110 CURVE SMOOTH",
"65 110 OFFCURVE",
"86 0 OFFCURVE",
"86 0 CURVE SMOOTH",
"86 0 OFFCURVE",
"106 0 OFFCURVE",
"106 0 CURVE SMOOTH",
"106 0 OFFCURVE",
"125 162 OFFCURVE",
"125 162 CURVE SMOOTH",
"125 162 OFFCURVE",
"109 162 OFFCURVE",
"109 162 CURVE SMOOTH",
"109 162 OFFCURVE",
"96 59 OFFCURVE",
"96 59 CURVE SMOOTH",
"96 59 OFFCURVE",
"95 44 OFFCURVE",
"95 44 CURVE SMOOTH",
"95 44 OFFCURVE",
"93 59 OFFCURVE",
"93 59 CURVE SMOOTH",
"93 59 OFFCURVE",
"73 162 OFFCURVE",
"73 162 CURVE SMOOTH",
"73 162 OFFCURVE",
"54 162 OFFCURVE",
"54 162 CURVE SMOOTH",
"54 162 OFFCURVE",
"37 63 OFFCURVE",
"37 63 CURVE SMOOTH",
"37 63 OFFCURVE",
"35 47 OFFCURVE",
"35 47 CURVE SMOOTH",
"35 47 OFFCURVE",
"22 162 OFFCURVE",
"22 162 CURVE SMOOTH",
"22 162 OFFCURVE",
"3 162 OFFCURVE",
"3 162 CURVE SMOOTH",
"3 162 OFFCURVE",
"22 0 OFFCURVE",
"22 0 CURVE SMOOTH"
);
}
);
width = 128;
}
);
note = Wcircumflex;
unicode = 0174;
},
{
glyphname = Wdieresis;
layers = (
{
hints = (
{
horizontal = 1;
place = "{0, 21}";
target = up;
type = BottomGhost;
},
{
horizontal = 1;
place = "{110, 52}";
type = Stem;
},
{
horizontal = 1;
place = "{234, 22}";
type = Stem;
},
{
place = "{21, 22}";
type = Stem;
},
{
place = "{86, 21}";
type = Stem;
},
{
place = "{36, 58}";
type = Stem;
},
{
horizontal = 1;
place = "{126, 36}";
type = Stem;
},
{
place = "{3, 122}";
type = Stem;
}
);
layerId = "0835C59E-AAFD-4756-A43C-35DA64A2CD7E";
paths = (
{
closed = 1;
nodes = (
"49 182 OFFCURVE",
"53 186 OFFCURVE",
"53 186 CURVE",
"53 199 LINE",
"53 199 OFFCURVE",
"49 204 OFFCURVE",
"49 204 CURVE SMOOTH",
"49 204 OFFCURVE",
"35 204 OFFCURVE",
"35 204 CURVE SMOOTH",
"35 204 OFFCURVE",
"31 200 OFFCURVE",
"31 200 CURVE SMOOTH",
"31 200 OFFCURVE",
"31 187 OFFCURVE",
"31 187 CURVE SMOOTH",
"31 187 OFFCURVE",
"36 182 OFFCURVE",
"36 182 CURVE SMOOTH",
"36 182 OFFCURVE",
"49 182 OFFCURVE",
"49 182 CURVE SMOOTH"
);
},
{
closed = 1;
nodes = (
"80 182 OFFCURVE",
"93 182 OFFCURVE",
"93 182 CURVE SMOOTH",
"93 182 OFFCURVE",
"97 186 OFFCURVE",
"97 186 CURVE",
"97 199 LINE",
"97 199 OFFCURVE",
"93 204 OFFCURVE",
"93 204 CURVE SMOOTH",
"93 204 OFFCURVE",
"79 204 OFFCURVE",
"79 204 CURVE SMOOTH",
"79 204 OFFCURVE",
"76 200 OFFCURVE",
"76 200 CURVE SMOOTH",
"76 200 OFFCURVE",
"76 186 OFFCURVE",
"76 186 CURVE SMOOTH",
"76 186 OFFCURVE",
"80 182 OFFCURVE",
"80 182 CURVE SMOOTH"
);
},
{
closed = 1;
nodes = (
"22 0 OFFCURVE",
"41 0 OFFCURVE",
"41 0 CURVE SMOOTH",
"41 0 OFFCURVE",
"60 110 OFFCURVE",
"60 110 CURVE",
"62 126 LINE",
"63 126 LINE",
"63 126 OFFCURVE",
"65 110 OFFCURVE",
"65 110 CURVE SMOOTH",
"65 110 OFFCURVE",
"86 0 OFFCURVE",
"86 0 CURVE SMOOTH",
"86 0 OFFCURVE",
"106 0 OFFCURVE",
"106 0 CURVE SMOOTH",
"106 0 OFFCURVE",
"125 162 OFFCURVE",
"125 162 CURVE SMOOTH",
"125 162 OFFCURVE",
"109 162 OFFCURVE",
"109 162 CURVE SMOOTH",
"109 162 OFFCURVE",
"96 59 OFFCURVE",
"96 59 CURVE SMOOTH",
"96 59 OFFCURVE",
"95 44 OFFCURVE",
"95 44 CURVE SMOOTH",
"95 44 OFFCURVE",
"93 59 OFFCURVE",
"93 59 CURVE SMOOTH",
"93 59 OFFCURVE",
"73 162 OFFCURVE",
"73 162 CURVE SMOOTH",
"73 162 OFFCURVE",
"54 162 OFFCURVE",
"54 162 CURVE SMOOTH",
"54 162 OFFCURVE",
"37 63 OFFCURVE",
"37 63 CURVE SMOOTH",
"37 63 OFFCURVE",
"35 47 OFFCURVE",
"35 47 CURVE SMOOTH",
"35 47 OFFCURVE",
"22 162 OFFCURVE",
"22 162 CURVE SMOOTH",
"22 162 OFFCURVE",
"3 162 OFFCURVE",
"3 162 CURVE SMOOTH",
"3 162 OFFCURVE",
"22 0 OFFCURVE",
"22 0 CURVE SMOOTH"
);
}
);
width = 128;
}
);
note = Wdieresis;
unicode = 1E84;
},
{
glyphname = Wgrave;
layers = (
{
hints = (
{
horizontal = 1;
place = "{0, 21}";
target = up;
type = BottomGhost;
},
{
horizontal = 1;
place = "{110, 52}";
type = Stem;
},
{
horizontal = 1;
place = "{180, 34}";
type = Stem;
},
{
place = "{36, 58}";
type = Stem;
},
{
place = "{37, 54}";
type = Stem;
},
{
horizontal = 1;
place = "{126, 36}";
type = Stem;
},
{
place = "{3, 122}";
type = Stem;
}
);
layerId = "0835C59E-AAFD-4756-A43C-35DA64A2CD7E";
paths = (
{
closed = 1;
nodes = (
"37 214 LINE SMOOTH",
"37 214 OFFCURVE",
"73 180 OFFCURVE",
"73 180 CURVE SMOOTH",
"73 180 OFFCURVE",
"91 180 OFFCURVE",
"91 180 CURVE SMOOTH",
"91 180 OFFCURVE",
"60 214 OFFCURVE",
"60 214 CURVE SMOOTH"
);
},
{
closed = 1;
nodes = (
"22 0 OFFCURVE",
"41 0 OFFCURVE",
"41 0 CURVE SMOOTH",
"41 0 OFFCURVE",
"60 110 OFFCURVE",
"60 110 CURVE",
"62 126 LINE",
"63 126 LINE",
"63 126 OFFCURVE",
"65 110 OFFCURVE",
"65 110 CURVE SMOOTH",
"65 110 OFFCURVE",
"86 0 OFFCURVE",
"86 0 CURVE SMOOTH",
"86 0 OFFCURVE",
"106 0 OFFCURVE",
"106 0 CURVE SMOOTH",
"106 0 OFFCURVE",
"125 162 OFFCURVE",
"125 162 CURVE SMOOTH",
"125 162 OFFCURVE",
"109 162 OFFCURVE",
"109 162 CURVE SMOOTH",
"109 162 OFFCURVE",
"96 59 OFFCURVE",
"96 59 CURVE SMOOTH",
"96 59 OFFCURVE",
"95 44 OFFCURVE",
"95 44 CURVE SMOOTH",
"95 44 OFFCURVE",
"93 59 OFFCURVE",
"93 59 CURVE SMOOTH",
"93 59 OFFCURVE",
"73 162 OFFCURVE",
"73 162 CURVE SMOOTH",
"73 162 OFFCURVE",
"54 162 OFFCURVE",
"54 162 CURVE SMOOTH",
"54 162 OFFCURVE",
"37 63 OFFCURVE",
"37 63 CURVE SMOOTH",
"37 63 OFFCURVE",
"35 47 OFFCURVE",
"35 47 CURVE SMOOTH",
"35 47 OFFCURVE",
"22 162 OFFCURVE",
"22 162 CURVE SMOOTH",
"22 162 OFFCURVE",
"3 162 OFFCURVE",
"3 162 CURVE SMOOTH",
"3 162 OFFCURVE",
"22 0 OFFCURVE",
"22 0 CURVE SMOOTH"
);
}
);
width = 128;
}
);
note = Wgrave;
unicode = 1E80;
},
{
glyphname = X;
layers = (
{
hints = (
{
horizontal = 1;
place = "{0, 21}";
target = up;
type = BottomGhost;
},
{
horizontal = 1;
place = "{162, -20}";
target = down;
type = TopGhost;
},
{
place = "{5, 118}";
type = Stem;
}
);
layerId = "0835C59E-AAFD-4756-A43C-35DA64A2CD7E";
paths = (
{
closed = 1;
nodes = (
"27 0 OFFCURVE",
"63 64 OFFCURVE",
"63 64 CURVE",
"99 0 LINE",
"99 0 OFFCURVE",
"123 0 OFFCURVE",
"123 0 CURVE SMOOTH",
"123 0 OFFCURVE",
"75 86 OFFCURVE",
"75 86 CURVE SMOOTH",
"75 86 OFFCURVE",
"118 162 OFFCURVE",
"118 162 CURVE SMOOTH",
"118 162 OFFCURVE",
"96 162 OFFCURVE",
"96 162 CURVE SMOOTH",
"96 162 OFFCURVE",
"64 106 OFFCURVE",
"64 106 CURVE SMOOTH",
"64 106 OFFCURVE",
"33 162 OFFCURVE",
"33 162 CURVE SMOOTH",
"33 162 OFFCURVE",
"10 162 OFFCURVE",
"10 162 CURVE SMOOTH",
"10 162 OFFCURVE",
"52 84 OFFCURVE",
"52 84 CURVE SMOOTH",
"52 84 OFFCURVE",
"5 0 OFFCURVE",
"5 0 CURVE SMOOTH",
"5 0 OFFCURVE",
"27 0 OFFCURVE",
"27 0 CURVE SMOOTH"
);
}
);
width = 128;
}
);
note = X;
unicode = 0058;
},
{
glyphname = Y;
layers = (
{
hints = (
{
horizontal = 1;
place = "{0, 21}";
target = up;
type = BottomGhost;
},
{
horizontal = 1;
place = "{162, -20}";
target = down;
type = TopGhost;
},
{
place = "{54, 21}";
type = Stem;
}
);
layerId = "0835C59E-AAFD-4756-A43C-35DA64A2CD7E";
paths = (
{
closed = 1;
nodes = (
"54 0 OFFCURVE",
"75 0 OFFCURVE",
"75 0 CURVE SMOOTH",
"75 0 OFFCURVE",
"75 75 OFFCURVE",
"75 75 CURVE",
"123 162 LINE",
"123 162 OFFCURVE",
"101 162 OFFCURVE",
"101 162 CURVE SMOOTH",
"101 162 OFFCURVE",
"65 97 OFFCURVE",
"65 97 CURVE SMOOTH",
"65 97 OFFCURVE",
"29 162 OFFCURVE",
"29 162 CURVE SMOOTH",
"29 162 OFFCURVE",
"5 162 OFFCURVE",
"5 162 CURVE SMOOTH",
"5 162 OFFCURVE",
"54 75 OFFCURVE",
"54 75 CURVE SMOOTH",
"54 75 OFFCURVE",
"54 0 OFFCURVE",
"54 0 CURVE SMOOTH"
);
}
);
width = 128;
}
);
note = Y;
unicode = 0059;
},
{
glyphname = Yacute;
layers = (
{
hints = (
{
horizontal = 1;
place = "{0, 21}";
target = up;
type = BottomGhost;
},
{
horizontal = 1;
place = "{162, -20}";
target = down;
type = TopGhost;
},
{
horizontal = 1;
place = "{242, 18}";
type = Stem;
},
{
place = "{54, 21}";
type = Stem;
},
{
place = "{100, 64}";
type = Stem;
},
{
place = "{151, 11}";
type = Stem;
}
);
layerId = "0835C59E-AAFD-4756-A43C-35DA64A2CD7E";
paths = (
{
closed = 1;
nodes = (
"68 214 LINE SMOOTH",
"68 214 OFFCURVE",
"37 180 OFFCURVE",
"37 180 CURVE SMOOTH",
"37 180 OFFCURVE",
"55 180 OFFCURVE",
"55 180 CURVE SMOOTH",
"55 180 OFFCURVE",
"91 214 OFFCURVE",
"91 214 CURVE SMOOTH"
);
},
{
closed = 1;
nodes = (
"54 0 OFFCURVE",
"75 0 OFFCURVE",
"75 0 CURVE SMOOTH",
"75 0 OFFCURVE",
"75 75 OFFCURVE",
"75 75 CURVE",
"123 162 LINE",
"123 162 OFFCURVE",
"101 162 OFFCURVE",
"101 162 CURVE SMOOTH",
"101 162 OFFCURVE",
"65 97 OFFCURVE",
"65 97 CURVE SMOOTH",
"65 97 OFFCURVE",
"29 162 OFFCURVE",
"29 162 CURVE SMOOTH",
"29 162 OFFCURVE",
"5 162 OFFCURVE",
"5 162 CURVE SMOOTH",
"5 162 OFFCURVE",
"54 75 OFFCURVE",
"54 75 CURVE SMOOTH",
"54 75 OFFCURVE",
"54 0 OFFCURVE",
"54 0 CURVE SMOOTH"
);
}
);
width = 128;
}
);
note = Yacute;
unicode = 00DD;
},
{
glyphname = Ycircumflex;
layers = (
{
hints = (
{
horizontal = 1;
place = "{0, 21}";
target = up;
type = BottomGhost;
},
{
horizontal = 1;
place = "{162, -20}";
target = down;
type = TopGhost;
},
{
place = "{54, 21}";
type = Stem;
}
);
layerId = "0835C59E-AAFD-4756-A43C-35DA64A2CD7E";
paths = (
{
closed = 1;
nodes = (
"56 208 OFFCURVE",
"24 174 OFFCURVE",
"24 174 CURVE SMOOTH",
"24 174 OFFCURVE",
"41 174 OFFCURVE",
"41 174 CURVE",
"64 194 LINE",
"88 174 LINE",
"88 174 OFFCURVE",
"105 174 OFFCURVE",
"105 174 CURVE SMOOTH",
"105 174 OFFCURVE",
"73 208 OFFCURVE",
"73 208 CURVE SMOOTH",
"73 208 OFFCURVE",
"56 208 OFFCURVE",
"56 208 CURVE SMOOTH"
);
},
{
closed = 1;
nodes = (
"54 0 OFFCURVE",
"75 0 OFFCURVE",
"75 0 CURVE SMOOTH",
"75 0 OFFCURVE",
"75 75 OFFCURVE",
"75 75 CURVE",
"123 162 LINE",
"123 162 OFFCURVE",
"101 162 OFFCURVE",
"101 162 CURVE SMOOTH",
"101 162 OFFCURVE",
"65 97 OFFCURVE",
"65 97 CURVE SMOOTH",
"65 97 OFFCURVE",
"29 162 OFFCURVE",
"29 162 CURVE SMOOTH",
"29 162 OFFCURVE",
"5 162 OFFCURVE",
"5 162 CURVE SMOOTH",
"5 162 OFFCURVE",
"54 75 OFFCURVE",
"54 75 CURVE SMOOTH",
"54 75 OFFCURVE",
"54 0 OFFCURVE",
"54 0 CURVE SMOOTH"
);
}
);
width = 128;
}
);
note = Ycircumflex;
unicode = 0176;
},
{
glyphname = Ydieresis;
layers = (
{
hints = (
{
horizontal = 1;
place = "{0, 21}";
target = up;
type = BottomGhost;
},
{
horizontal = 1;
place = "{162, -20}";
target = down;
type = TopGhost;
},
{
horizontal = 1;
place = "{234, 22}";
type = Stem;
},
{
place = "{21, 22}";
type = Stem;
},
{
place = "{54, 21}";
type = Stem;
},
{
place = "{86, 21}";
type = Stem;
}
);
layerId = "0835C59E-AAFD-4756-A43C-35DA64A2CD7E";
paths = (
{
closed = 1;
nodes = (
"49 182 OFFCURVE",
"53 186 OFFCURVE",
"53 186 CURVE",
"53 199 LINE",
"53 199 OFFCURVE",
"49 204 OFFCURVE",
"49 204 CURVE SMOOTH",
"49 204 OFFCURVE",
"35 204 OFFCURVE",
"35 204 CURVE SMOOTH",
"35 204 OFFCURVE",
"31 200 OFFCURVE",
"31 200 CURVE SMOOTH",
"31 200 OFFCURVE",
"31 187 OFFCURVE",
"31 187 CURVE SMOOTH",
"31 187 OFFCURVE",
"36 182 OFFCURVE",
"36 182 CURVE SMOOTH",
"36 182 OFFCURVE",
"49 182 OFFCURVE",
"49 182 CURVE SMOOTH"
);
},
{
closed = 1;
nodes = (
"80 182 OFFCURVE",
"93 182 OFFCURVE",
"93 182 CURVE SMOOTH",
"93 182 OFFCURVE",
"97 186 OFFCURVE",
"97 186 CURVE",
"97 199 LINE",
"97 199 OFFCURVE",
"93 204 OFFCURVE",
"93 204 CURVE SMOOTH",
"93 204 OFFCURVE",
"79 204 OFFCURVE",
"79 204 CURVE SMOOTH",
"79 204 OFFCURVE",
"76 200 OFFCURVE",
"76 200 CURVE SMOOTH",
"76 200 OFFCURVE",
"76 186 OFFCURVE",
"76 186 CURVE SMOOTH",
"76 186 OFFCURVE",
"80 182 OFFCURVE",
"80 182 CURVE SMOOTH"
);
},
{
closed = 1;
nodes = (
"54 0 OFFCURVE",
"75 0 OFFCURVE",
"75 0 CURVE SMOOTH",
"75 0 OFFCURVE",
"75 75 OFFCURVE",
"75 75 CURVE",
"123 162 LINE",
"123 162 OFFCURVE",
"101 162 OFFCURVE",
"101 162 CURVE SMOOTH",
"101 162 OFFCURVE",
"65 97 OFFCURVE",
"65 97 CURVE SMOOTH",
"65 97 OFFCURVE",
"29 162 OFFCURVE",
"29 162 CURVE SMOOTH",
"29 162 OFFCURVE",
"5 162 OFFCURVE",
"5 162 CURVE SMOOTH",
"5 162 OFFCURVE",
"54 75 OFFCURVE",
"54 75 CURVE SMOOTH",
"54 75 OFFCURVE",
"54 0 OFFCURVE",
"54 0 CURVE SMOOTH"
);
}
);
width = 128;
}
);
note = Ydieresis;
unicode = 0178;
},
{
glyphname = Z;
layers = (
{
hints = (
{
horizontal = 1;
place = "{0, 18}";
type = Stem;
},
{
horizontal = 1;
place = "{145, 17}";
type = Stem;
},
{
place = "{13, 24}";
type = Stem;
},
{
place = "{89, 25}";
type = Stem;
}
);
layerId = "0835C59E-AAFD-4756-A43C-35DA64A2CD7E";
paths = (
{
closed = 1;
nodes = (
"114 162 OFFCURVE",
"15 162 OFFCURVE",
"15 162 CURVE SMOOTH",
"15 162 OFFCURVE",
"15 145 OFFCURVE",
"15 145 CURVE SMOOTH",
"15 145 OFFCURVE",
"89 145 OFFCURVE",
"89 145 CURVE SMOOTH",
"89 145 OFFCURVE",
"13 18 OFFCURVE",
"13 18 CURVE SMOOTH",
"13 18 OFFCURVE",
"13 0 OFFCURVE",
"13 0 CURVE SMOOTH",
"13 0 OFFCURVE",
"115 0 OFFCURVE",
"115 0 CURVE SMOOTH",
"115 0 OFFCURVE",
"115 18 OFFCURVE",
"115 18 CURVE SMOOTH",
"37 18 LINE SMOOTH",
"37 18 OFFCURVE",
"114 145 OFFCURVE",
"114 145 CURVE SMOOTH",
"114 145 OFFCURVE",
"114 162 OFFCURVE",
"114 162 CURVE SMOOTH"
);
}
);
width = 128;
}
);
note = Z;
unicode = 005A;
},
{
glyphname = Zacute;
layers = (
{
hints = (
{
horizontal = 1;
place = "{0, 18}";
type = Stem;
},
{
horizontal = 1;
place = "{145, 17}";
type = Stem;
},
{
horizontal = 1;
place = "{242, 18}";
type = Stem;
},
{
place = "{13, 24}";
type = Stem;
},
{
place = "{100, 64}";
type = Stem;
},
{
place = "{89, 25}";
type = Stem;
},
{
place = "{151, 11}";
type = Stem;
}
);
layerId = "0835C59E-AAFD-4756-A43C-35DA64A2CD7E";
paths = (
{
closed = 1;
nodes = (
"68 214 LINE SMOOTH",
"68 214 OFFCURVE",
"37 180 OFFCURVE",
"37 180 CURVE SMOOTH",
"37 180 OFFCURVE",
"55 180 OFFCURVE",
"55 180 CURVE SMOOTH",
"55 180 OFFCURVE",
"91 214 OFFCURVE",
"91 214 CURVE SMOOTH"
);
},
{
closed = 1;
nodes = (
"114 162 OFFCURVE",
"15 162 OFFCURVE",
"15 162 CURVE SMOOTH",
"15 162 OFFCURVE",
"15 145 OFFCURVE",
"15 145 CURVE SMOOTH",
"15 145 OFFCURVE",
"89 145 OFFCURVE",
"89 145 CURVE SMOOTH",
"89 145 OFFCURVE",
"13 18 OFFCURVE",
"13 18 CURVE SMOOTH",
"13 18 OFFCURVE",
"13 0 OFFCURVE",
"13 0 CURVE SMOOTH",
"13 0 OFFCURVE",
"115 0 OFFCURVE",
"115 0 CURVE SMOOTH",
"115 0 OFFCURVE",
"115 18 OFFCURVE",
"115 18 CURVE SMOOTH",
"37 18 LINE SMOOTH",
"37 18 OFFCURVE",
"114 145 OFFCURVE",
"114 145 CURVE SMOOTH",
"114 145 OFFCURVE",
"114 162 OFFCURVE",
"114 162 CURVE SMOOTH"
);
}
);
width = 128;
}
);
note = Zacute;
unicode = 0179;
},
{
glyphname = Zcaron;
layers = (
{
hints = (
{
horizontal = 1;
place = "{0, 18}";
type = Stem;
},
{
horizontal = 1;
place = "{145, 17}";
type = Stem;
},
{
place = "{13, 24}";
type = Stem;
},
{
place = "{89, 25}";
type = Stem;
}
);
layerId = "0835C59E-AAFD-4756-A43C-35DA64A2CD7E";
paths = (
{
closed = 1;
nodes = (
"56 170 OFFCURVE",
"73 170 OFFCURVE",
"73 170 CURVE SMOOTH",
"73 170 OFFCURVE",
"105 204 OFFCURVE",
"105 204 CURVE SMOOTH",
"88 204 LINE",
"64 184 LINE",
"41 204 LINE",
"41 204 OFFCURVE",
"24 204 OFFCURVE",
"24 204 CURVE SMOOTH",
"24 204 OFFCURVE",
"56 170 OFFCURVE",
"56 170 CURVE SMOOTH"
);
},
{
closed = 1;
nodes = (
"114 162 OFFCURVE",
"15 162 OFFCURVE",
"15 162 CURVE SMOOTH",
"15 162 OFFCURVE",
"15 145 OFFCURVE",
"15 145 CURVE SMOOTH",
"15 145 OFFCURVE",
"89 145 OFFCURVE",
"89 145 CURVE SMOOTH",
"89 145 OFFCURVE",
"13 18 OFFCURVE",
"13 18 CURVE SMOOTH",
"13 18 OFFCURVE",
"13 0 OFFCURVE",
"13 0 CURVE SMOOTH",
"13 0 OFFCURVE",
"115 0 OFFCURVE",
"115 0 CURVE SMOOTH",
"115 0 OFFCURVE",
"115 18 OFFCURVE",
"115 18 CURVE SMOOTH",
"37 18 LINE SMOOTH",
"37 18 OFFCURVE",
"114 145 OFFCURVE",
"114 145 CURVE SMOOTH",
"114 145 OFFCURVE",
"114 162 OFFCURVE",
"114 162 CURVE SMOOTH"
);
}
);
width = 128;
}
);
note = Zcaron;
unicode = 017D;
},
{
glyphname = a;
layers = (
{
hints = (
{
horizontal = 1;
place = "{0, 21}";
target = up;
type = BottomGhost;
},
{
horizontal = 1;
place = "{102, 16}";
type = Stem;
},
{
place = "{11, 21}";
type = Stem;
},
{
place = "{93, 19}";
type = Stem;
},
{
horizontal = 1;
place = "{-3, 18}";
type = Stem;
}
);
layerId = "0835C59E-AAFD-4756-A43C-35DA64A2CD7E";
paths = (
{
closed = 1;
nodes = (
"94 14 OFFCURVE",
"95 5 OFFCURVE",
"96 0 CURVE",
"96 0 OFFCURVE",
"116 0 OFFCURVE",
"116 0 CURVE",
"113 5 OFFCURVE",
"112 17 OFFCURVE",
"112 34 CURVE",
"112 34 OFFCURVE",
"112 116 OFFCURVE",
"112 116 CURVE SMOOTH",
"112 116 OFFCURVE",
"93 116 OFFCURVE",
"93 116 CURVE SMOOTH",
"93 116 OFFCURVE",
"71 118 OFFCURVE",
"71 118 CURVE SMOOTH",
"31 118 OFFCURVE",
"11 85 OFFCURVE",
"11 48 CURVE SMOOTH",
"11 25 OFFCURVE",
"21 -3 OFFCURVE",
"48 -3 CURVE SMOOTH",
"66 -3 OFFCURVE",
"81 7 OFFCURVE",
"93 26 CURVE"
);
},
{
closed = 1;
nodes = (
"80 26 OFFCURVE",
"67 15 OFFCURVE",
"53 15 CURVE SMOOTH",
"48 15 OFFCURVE",
"43 18 OFFCURVE",
"39 24 CURVE",
"34 29 OFFCURVE",
"32 37 OFFCURVE",
"32 50 CURVE SMOOTH",
"32 67 OFFCURVE",
"36 80 OFFCURVE",
"44 89 CURVE",
"51 98 OFFCURVE",
"61 102 OFFCURVE",
"73 102 CURVE SMOOTH",
"79 102 OFFCURVE",
"86 101 OFFCURVE",
"93 99 CURVE",
"93 99 OFFCURVE",
"93 49 OFFCURVE",
"93 49 CURVE"
);
}
);
width = 128;
}
);
note = a;
unicode = 0061;
},
{
glyphname = aacute;
layers = (
{
hints = (
{
horizontal = 1;
place = "{0, 21}";
target = up;
type = BottomGhost;
},
{
horizontal = 1;
place = "{102, 16}";
type = Stem;
},
{
horizontal = 1;
place = "{134, 34}";
type = Stem;
},
{
place = "{31, 21}";
type = Stem;
},
{
place = "{113, 19}";
type = Stem;
},
{
horizontal = 1;
place = "{-3, 18}";
type = Stem;
}
);
layerId = "0835C59E-AAFD-4756-A43C-35DA64A2CD7E";
paths = (
{
closed = 1;
nodes = (
"84 168 LINE SMOOTH",
"84 168 OFFCURVE",
"53 134 OFFCURVE",
"53 134 CURVE SMOOTH",
"53 134 OFFCURVE",
"71 134 OFFCURVE",
"71 134 CURVE SMOOTH",
"71 134 OFFCURVE",
"107 168 OFFCURVE",
"107 168 CURVE SMOOTH"
);
},
{
closed = 1;
nodes = (
"114 14 OFFCURVE",
"115 5 OFFCURVE",
"116 0 CURVE",
"116 0 OFFCURVE",
"136 0 OFFCURVE",
"136 0 CURVE",
"133 5 OFFCURVE",
"132 17 OFFCURVE",
"132 34 CURVE",
"132 34 OFFCURVE",
"132 116 OFFCURVE",
"132 116 CURVE SMOOTH",
"132 116 OFFCURVE",
"113 116 OFFCURVE",
"113 116 CURVE SMOOTH",
"113 116 OFFCURVE",
"91 118 OFFCURVE",
"91 118 CURVE SMOOTH",
"51 118 OFFCURVE",
"31 85 OFFCURVE",
"31 48 CURVE SMOOTH",
"31 25 OFFCURVE",
"41 -3 OFFCURVE",
"68 -3 CURVE SMOOTH",
"86 -3 OFFCURVE",
"101 7 OFFCURVE",
"113 26 CURVE"
);
},
{
closed = 1;
nodes = (
"100 26 OFFCURVE",
"87 15 OFFCURVE",
"73 15 CURVE SMOOTH",
"68 15 OFFCURVE",
"63 18 OFFCURVE",
"59 24 CURVE",
"54 29 OFFCURVE",
"52 37 OFFCURVE",
"52 50 CURVE SMOOTH",
"52 67 OFFCURVE",
"56 80 OFFCURVE",
"64 89 CURVE",
"71 98 OFFCURVE",
"81 102 OFFCURVE",
"93 102 CURVE SMOOTH",
"99 102 OFFCURVE",
"106 101 OFFCURVE",
"113 99 CURVE",
"113 99 OFFCURVE",
"113 49 OFFCURVE",
"113 49 CURVE"
);
}
);
width = 156;
}
);
note = aacute;
unicode = 00E1;
},
{
glyphname = acircumflex;
layers = (
{
hints = (
{
horizontal = 1;
place = "{0, 21}";
target = up;
type = BottomGhost;
},
{
horizontal = 1;
place = "{102, 16}";
type = Stem;
},
{
place = "{11, 21}";
type = Stem;
},
{
place = "{93, 19}";
type = Stem;
},
{
horizontal = 1;
place = "{-3, 18}";
type = Stem;
}
);
layerId = "0835C59E-AAFD-4756-A43C-35DA64A2CD7E";
paths = (
{
closed = 1;
nodes = (
"56 164 OFFCURVE",
"24 130 OFFCURVE",
"24 130 CURVE SMOOTH",
"24 130 OFFCURVE",
"41 130 OFFCURVE",
"41 130 CURVE",
"64 150 LINE",
"88 130 LINE",
"88 130 OFFCURVE",
"105 130 OFFCURVE",
"105 130 CURVE SMOOTH",
"105 130 OFFCURVE",
"73 164 OFFCURVE",
"73 164 CURVE SMOOTH",
"73 164 OFFCURVE",
"56 164 OFFCURVE",
"56 164 CURVE SMOOTH"
);
},
{
closed = 1;
nodes = (
"94 14 OFFCURVE",
"95 5 OFFCURVE",
"96 0 CURVE",
"96 0 OFFCURVE",
"116 0 OFFCURVE",
"116 0 CURVE",
"113 5 OFFCURVE",
"112 17 OFFCURVE",
"112 34 CURVE",
"112 34 OFFCURVE",
"112 116 OFFCURVE",
"112 116 CURVE SMOOTH",
"112 116 OFFCURVE",
"93 116 OFFCURVE",
"93 116 CURVE SMOOTH",
"93 116 OFFCURVE",
"71 118 OFFCURVE",
"71 118 CURVE SMOOTH",
"31 118 OFFCURVE",
"11 85 OFFCURVE",
"11 48 CURVE SMOOTH",
"11 25 OFFCURVE",
"21 -3 OFFCURVE",
"48 -3 CURVE SMOOTH",
"66 -3 OFFCURVE",
"81 7 OFFCURVE",
"93 26 CURVE"
);
},
{
closed = 1;
nodes = (
"80 26 OFFCURVE",
"67 15 OFFCURVE",
"53 15 CURVE SMOOTH",
"48 15 OFFCURVE",
"43 18 OFFCURVE",
"39 24 CURVE",
"34 29 OFFCURVE",
"32 37 OFFCURVE",
"32 50 CURVE SMOOTH",
"32 67 OFFCURVE",
"36 80 OFFCURVE",
"44 89 CURVE",
"51 98 OFFCURVE",
"61 102 OFFCURVE",
"73 102 CURVE SMOOTH",
"79 102 OFFCURVE",
"86 101 OFFCURVE",
"93 99 CURVE",
"93 99 OFFCURVE",
"93 49 OFFCURVE",
"93 49 CURVE"
);
}
);
width = 128;
}
);
note = acircumflex;
unicode = 00E2;
},
{
glyphname = adieresis;
layers = (
{
hints = (
{
horizontal = 1;
place = "{0, 21}";
target = up;
type = BottomGhost;
},
{
horizontal = 1;
place = "{102, 16}";
type = Stem;
},
{
horizontal = 1;
place = "{188, 22}";
type = Stem;
},
{
place = "{11, 21}";
type = Stem;
},
{
place = "{93, 19}";
type = Stem;
},
{
horizontal = 1;
place = "{-3, 18}";
type = Stem;
},
{
place = "{21, 22}";
type = Stem;
},
{
place = "{86, 21}";
type = Stem;
}
);
layerId = "0835C59E-AAFD-4756-A43C-35DA64A2CD7E";
paths = (
{
closed = 1;
nodes = (
"49 136 OFFCURVE",
"53 140 OFFCURVE",
"53 140 CURVE",
"53 153 LINE",
"53 153 OFFCURVE",
"49 158 OFFCURVE",
"49 158 CURVE SMOOTH",
"49 158 OFFCURVE",
"35 158 OFFCURVE",
"35 158 CURVE SMOOTH",
"35 158 OFFCURVE",
"31 154 OFFCURVE",
"31 154 CURVE SMOOTH",
"31 154 OFFCURVE",
"31 141 OFFCURVE",
"31 141 CURVE SMOOTH",
"31 141 OFFCURVE",
"36 136 OFFCURVE",
"36 136 CURVE SMOOTH",
"36 136 OFFCURVE",
"49 136 OFFCURVE",
"49 136 CURVE SMOOTH"
);
},
{
closed = 1;
nodes = (
"80 136 OFFCURVE",
"93 136 OFFCURVE",
"93 136 CURVE SMOOTH",
"93 136 OFFCURVE",
"97 140 OFFCURVE",
"97 140 CURVE",
"97 153 LINE",
"97 153 OFFCURVE",
"93 158 OFFCURVE",
"93 158 CURVE SMOOTH",
"93 158 OFFCURVE",
"79 158 OFFCURVE",
"79 158 CURVE SMOOTH",
"79 158 OFFCURVE",
"76 154 OFFCURVE",
"76 154 CURVE SMOOTH",
"76 154 OFFCURVE",
"76 140 OFFCURVE",
"76 140 CURVE SMOOTH",
"76 140 OFFCURVE",
"80 136 OFFCURVE",
"80 136 CURVE SMOOTH"
);
},
{
closed = 1;
nodes = (
"94 14 OFFCURVE",
"95 5 OFFCURVE",
"96 0 CURVE",
"96 0 OFFCURVE",
"116 0 OFFCURVE",
"116 0 CURVE",
"113 5 OFFCURVE",
"112 17 OFFCURVE",
"112 34 CURVE",
"112 34 OFFCURVE",
"112 116 OFFCURVE",
"112 116 CURVE SMOOTH",
"112 116 OFFCURVE",
"93 116 OFFCURVE",
"93 116 CURVE SMOOTH",
"93 116 OFFCURVE",
"71 118 OFFCURVE",
"71 118 CURVE SMOOTH",
"31 118 OFFCURVE",
"11 85 OFFCURVE",
"11 48 CURVE SMOOTH",
"11 25 OFFCURVE",
"21 -3 OFFCURVE",
"48 -3 CURVE SMOOTH",
"66 -3 OFFCURVE",
"81 7 OFFCURVE",
"93 26 CURVE"
);
},
{
closed = 1;
nodes = (
"80 26 OFFCURVE",
"67 15 OFFCURVE",
"53 15 CURVE SMOOTH",
"48 15 OFFCURVE",
"43 18 OFFCURVE",
"39 24 CURVE",
"34 29 OFFCURVE",
"32 37 OFFCURVE",
"32 50 CURVE SMOOTH",
"32 67 OFFCURVE",
"36 80 OFFCURVE",
"44 89 CURVE",
"51 98 OFFCURVE",
"61 102 OFFCURVE",
"73 102 CURVE SMOOTH",
"79 102 OFFCURVE",
"86 101 OFFCURVE",
"93 99 CURVE",
"93 99 OFFCURVE",
"93 49 OFFCURVE",
"93 49 CURVE"
);
}
);
width = 128;
}
);
note = adieresis;
unicode = 00E4;
},
{
glyphname = agrave;
layers = (
{
hints = (
{
horizontal = 1;
place = "{0, 21}";
target = up;
type = BottomGhost;
},
{
horizontal = 1;
place = "{102, 16}";
type = Stem;
},
{
horizontal = 1;
place = "{134, 34}";
type = Stem;
},
{
place = "{31, 21}";
type = Stem;
},
{
place = "{113, 19}";
type = Stem;
},
{
horizontal = 1;
place = "{-3, 18}";
type = Stem;
}
);
layerId = "0835C59E-AAFD-4756-A43C-35DA64A2CD7E";
paths = (
{
closed = 1;
nodes = (
"53 168 LINE SMOOTH",
"53 168 OFFCURVE",
"89 134 OFFCURVE",
"89 134 CURVE SMOOTH",
"89 134 OFFCURVE",
"107 134 OFFCURVE",
"107 134 CURVE SMOOTH",
"107 134 OFFCURVE",
"76 168 OFFCURVE",
"76 168 CURVE SMOOTH"
);
},
{
closed = 1;
nodes = (
"114 14 OFFCURVE",
"115 5 OFFCURVE",
"116 0 CURVE",
"116 0 OFFCURVE",
"136 0 OFFCURVE",
"136 0 CURVE",
"133 5 OFFCURVE",
"132 17 OFFCURVE",
"132 34 CURVE",
"132 34 OFFCURVE",
"132 116 OFFCURVE",
"132 116 CURVE SMOOTH",
"132 116 OFFCURVE",
"113 116 OFFCURVE",
"113 116 CURVE SMOOTH",
"113 116 OFFCURVE",
"91 118 OFFCURVE",
"91 118 CURVE SMOOTH",
"51 118 OFFCURVE",
"31 85 OFFCURVE",
"31 48 CURVE SMOOTH",
"31 25 OFFCURVE",
"41 -3 OFFCURVE",
"68 -3 CURVE SMOOTH",
"86 -3 OFFCURVE",
"101 7 OFFCURVE",
"113 26 CURVE"
);
},
{
closed = 1;
nodes = (
"100 26 OFFCURVE",
"87 15 OFFCURVE",
"73 15 CURVE SMOOTH",
"68 15 OFFCURVE",
"63 18 OFFCURVE",
"59 24 CURVE",
"54 29 OFFCURVE",
"52 37 OFFCURVE",
"52 50 CURVE SMOOTH",
"52 67 OFFCURVE",
"56 80 OFFCURVE",
"64 89 CURVE",
"71 98 OFFCURVE",
"81 102 OFFCURVE",
"93 102 CURVE SMOOTH",
"99 102 OFFCURVE",
"106 101 OFFCURVE",
"113 99 CURVE",
"113 99 OFFCURVE",
"113 49 OFFCURVE",
"113 49 CURVE"
);
}
);
width = 156;
}
);
note = agrave;
unicode = 00E0;
},
{
glyphname = amacron;
layers = (
{
hints = (
{
horizontal = 1;
place = "{0, 21}";
target = up;
type = BottomGhost;
},
{
horizontal = 1;
place = "{102, 16}";
type = Stem;
},
{
place = "{11, 21}";
type = Stem;
},
{
place = "{93, 19}";
type = Stem;
},
{
horizontal = 1;
place = "{-3, 18}";
type = Stem;
}
);
layerId = "0835C59E-AAFD-4756-A43C-35DA64A2CD7E";
paths = (
{
closed = 1;
nodes = (
"37 131 LINE",
"91 131 LINE",
"91 145 LINE",
"37 145 LINE"
);
},
{
closed = 1;
nodes = (
"94 14 OFFCURVE",
"95 5 OFFCURVE",
"96 0 CURVE",
"96 0 OFFCURVE",
"116 0 OFFCURVE",
"116 0 CURVE",
"113 5 OFFCURVE",
"112 17 OFFCURVE",
"112 34 CURVE",
"112 34 OFFCURVE",
"112 116 OFFCURVE",
"112 116 CURVE SMOOTH",
"112 116 OFFCURVE",
"93 116 OFFCURVE",
"93 116 CURVE SMOOTH",
"93 116 OFFCURVE",
"71 118 OFFCURVE",
"71 118 CURVE SMOOTH",
"31 118 OFFCURVE",
"11 85 OFFCURVE",
"11 48 CURVE SMOOTH",
"11 25 OFFCURVE",
"21 -3 OFFCURVE",
"48 -3 CURVE SMOOTH",
"66 -3 OFFCURVE",
"81 7 OFFCURVE",
"93 26 CURVE"
);
},
{
closed = 1;
nodes = (
"80 26 OFFCURVE",
"67 15 OFFCURVE",
"53 15 CURVE SMOOTH",
"48 15 OFFCURVE",
"43 18 OFFCURVE",
"39 24 CURVE",
"34 29 OFFCURVE",
"32 37 OFFCURVE",
"32 50 CURVE SMOOTH",
"32 67 OFFCURVE",
"36 80 OFFCURVE",
"44 89 CURVE",
"51 98 OFFCURVE",
"61 102 OFFCURVE",
"73 102 CURVE SMOOTH",
"79 102 OFFCURVE",
"86 101 OFFCURVE",
"93 99 CURVE",
"93 99 OFFCURVE",
"93 49 OFFCURVE",
"93 49 CURVE"
);
}
);
width = 128;
}
);
note = amacron;
unicode = 0101;
},
{
glyphname = aring;
layers = (
{
hints = (
{
horizontal = 1;
place = "{0, 21}";
target = up;
type = BottomGhost;
},
{
horizontal = 1;
place = "{102, 16}";
type = Stem;
},
{
place = "{11, 21}";
type = Stem;
},
{
place = "{93, 19}";
type = Stem;
},
{
horizontal = 1;
place = "{-3, 18}";
type = Stem;
}
);
layerId = "0835C59E-AAFD-4756-A43C-35DA64A2CD7E";
paths = (
{
closed = 1;
nodes = (
"43 136 OFFCURVE",
"51 128 OFFCURVE",
"64 128 CURVE SMOOTH",
"77 128 OFFCURVE",
"85 136 OFFCURVE",
"85 150 CURVE SMOOTH",
"85 163 OFFCURVE",
"77 171 OFFCURVE",
"64 171 CURVE SMOOTH",
"51 171 OFFCURVE",
"43 163 OFFCURVE",
"43 150 CURVE SMOOTH"
);
},
{
closed = 1;
nodes = (
"54 156 OFFCURVE",
"58 160 OFFCURVE",
"64 160 CURVE SMOOTH",
"70 160 OFFCURVE",
"74 156 OFFCURVE",
"74 150 CURVE SMOOTH",
"74 144 OFFCURVE",
"70 140 OFFCURVE",
"64 140 CURVE SMOOTH",
"58 140 OFFCURVE",
"54 144 OFFCURVE",
"54 150 CURVE SMOOTH"
);
},
{
closed = 1;
nodes = (
"94 14 OFFCURVE",
"95 5 OFFCURVE",
"96 0 CURVE",
"96 0 OFFCURVE",
"116 0 OFFCURVE",
"116 0 CURVE",
"113 5 OFFCURVE",
"112 17 OFFCURVE",
"112 34 CURVE",
"112 34 OFFCURVE",
"112 116 OFFCURVE",
"112 116 CURVE SMOOTH",
"112 116 OFFCURVE",
"93 116 OFFCURVE",
"93 116 CURVE SMOOTH",
"93 116 OFFCURVE",
"71 118 OFFCURVE",
"71 118 CURVE SMOOTH",
"31 118 OFFCURVE",
"11 85 OFFCURVE",
"11 48 CURVE SMOOTH",
"11 25 OFFCURVE",
"21 -3 OFFCURVE",
"48 -3 CURVE SMOOTH",
"66 -3 OFFCURVE",
"81 7 OFFCURVE",
"93 26 CURVE"
);
},
{
closed = 1;
nodes = (
"80 26 OFFCURVE",
"67 15 OFFCURVE",
"53 15 CURVE SMOOTH",
"48 15 OFFCURVE",
"43 18 OFFCURVE",
"39 24 CURVE",
"34 29 OFFCURVE",
"32 37 OFFCURVE",
"32 50 CURVE SMOOTH",
"32 67 OFFCURVE",
"36 80 OFFCURVE",
"44 89 CURVE",
"51 98 OFFCURVE",
"61 102 OFFCURVE",
"73 102 CURVE SMOOTH",
"79 102 OFFCURVE",
"86 101 OFFCURVE",
"93 99 CURVE",
"93 99 OFFCURVE",
"93 49 OFFCURVE",
"93 49 CURVE"
);
}
);
width = 128;
}
);
note = aring;
unicode = 00E5;
},
{
glyphname = atilde;
layers = (
{
hints = (
{
horizontal = 1;
place = "{0, 21}";
target = up;
type = BottomGhost;
},
{
horizontal = 1;
place = "{102, 16}";
type = Stem;
},
{
place = "{11, 21}";
type = Stem;
},
{
place = "{93, 19}";
type = Stem;
},
{
horizontal = 1;
place = "{-3, 18}";
type = Stem;
}
);
layerId = "0835C59E-AAFD-4756-A43C-35DA64A2CD7E";
paths = (
{
closed = 1;
nodes = (
"55 148 OFFCURVE",
"66 131 OFFCURVE",
"77 131 CURVE SMOOTH",
"91 131 OFFCURVE",
"104 144 OFFCURVE",
"104 160 CURVE",
"91 160 LINE",
"90 156 OFFCURVE",
"89 146 OFFCURVE",
"77 146 CURVE SMOOTH",
"68 146 OFFCURVE",
"64 160 OFFCURVE",
"47 160 CURVE SMOOTH",
"33 160 OFFCURVE",
"25 146 OFFCURVE",
"25 130 CURVE",
"25 130 OFFCURVE",
"38 130 OFFCURVE",
"38 130 CURVE",
"39 136 OFFCURVE",
"40 142 OFFCURVE",
"47 145 CURVE"
);
},
{
closed = 1;
nodes = (
"94 14 OFFCURVE",
"95 5 OFFCURVE",
"96 0 CURVE",
"96 0 OFFCURVE",
"116 0 OFFCURVE",
"116 0 CURVE",
"113 5 OFFCURVE",
"112 17 OFFCURVE",
"112 34 CURVE",
"112 34 OFFCURVE",
"112 116 OFFCURVE",
"112 116 CURVE SMOOTH",
"112 116 OFFCURVE",
"93 116 OFFCURVE",
"93 116 CURVE SMOOTH",
"93 116 OFFCURVE",
"71 118 OFFCURVE",
"71 118 CURVE SMOOTH",
"31 118 OFFCURVE",
"11 85 OFFCURVE",
"11 48 CURVE SMOOTH",
"11 25 OFFCURVE",
"21 -3 OFFCURVE",
"48 -3 CURVE SMOOTH",
"66 -3 OFFCURVE",
"81 7 OFFCURVE",
"93 26 CURVE"
);
},
{
closed = 1;
nodes = (
"80 26 OFFCURVE",
"67 15 OFFCURVE",
"53 15 CURVE SMOOTH",
"48 15 OFFCURVE",
"43 18 OFFCURVE",
"39 24 CURVE",
"34 29 OFFCURVE",
"32 37 OFFCURVE",
"32 50 CURVE SMOOTH",
"32 67 OFFCURVE",
"36 80 OFFCURVE",
"44 89 CURVE",
"51 98 OFFCURVE",
"61 102 OFFCURVE",
"73 102 CURVE SMOOTH",
"79 102 OFFCURVE",
"86 101 OFFCURVE",
"93 99 CURVE",
"93 99 OFFCURVE",
"93 49 OFFCURVE",
"93 49 CURVE"
);
}
);
width = 128;
}
);
note = atilde;
unicode = 00E3;
},
{
glyphname = b;
layers = (
{
hints = (
{
horizontal = 1;
place = "{0, 15}";
type = Stem;
},
{
horizontal = 1;
place = "{101, 19}";
type = Stem;
},
{
horizontal = 1;
place = "{168, -20}";
target = down;
type = TopGhost;
},
{
place = "{15, 19}";
type = Stem;
},
{
place = "{95, 21}";
type = Stem;
}
);
layerId = "0835C59E-AAFD-4756-A43C-35DA64A2CD7E";
paths = (
{
closed = 1;
nodes = (
"42 0 OFFCURVE",
"47 0 OFFCURVE",
"49 -1 CURVE SMOOTH",
"51 -2 OFFCURVE",
"53 -2 OFFCURVE",
"56 -2 CURVE SMOOTH",
"96 -2 OFFCURVE",
"116 33 OFFCURVE",
"116 69 CURVE SMOOTH",
"116 85 OFFCURVE",
"112 98 OFFCURVE",
"105 107 CURVE",
"97 116 OFFCURVE",
"88 120 OFFCURVE",
"78 120 CURVE SMOOTH",
"61 120 OFFCURVE",
"46 110 OFFCURVE",
"34 90 CURVE",
"34 90 OFFCURVE",
"34 168 OFFCURVE",
"34 168 CURVE SMOOTH",
"34 168 OFFCURVE",
"15 168 OFFCURVE",
"15 168 CURVE SMOOTH",
"15 168 OFFCURVE",
"15 0 OFFCURVE",
"15 0 CURVE SMOOTH",
"15 0 OFFCURVE",
"34 0 OFFCURVE",
"34 0 CURVE"
);
},
{
closed = 1;
nodes = (
"34 67 LINE",
"47 90 OFFCURVE",
"60 101 OFFCURVE",
"74 101 CURVE SMOOTH",
"79 101 OFFCURVE",
"84 98 OFFCURVE",
"89 93 CURVE",
"93 87 OFFCURVE",
"95 78 OFFCURVE",
"95 66 CURVE SMOOTH",
"95 41 OFFCURVE",
"81 15 OFFCURVE",
"53 15 CURVE SMOOTH",
"53 15 OFFCURVE",
"34 17 OFFCURVE",
"34 17 CURVE"
);
}
);
width = 128;
}
);
note = b;
unicode = 0062;
},
{
glyphname = c;
layers = (
{
hints = (
{
horizontal = 1;
place = "{-3, 18}";
type = Stem;
},
{
horizontal = 1;
place = "{103, 17}";
type = Stem;
},
{
place = "{17, 21}";
type = Stem;
}
);
layerId = "0835C59E-AAFD-4756-A43C-35DA64A2CD7E";
paths = (
{
closed = 1;
nodes = (
"88 -3 OFFCURVE",
"101 -1 OFFCURVE",
"114 3 CURVE",
"114 3 OFFCURVE",
"114 22 OFFCURVE",
"114 22 CURVE",
"103 17 OFFCURVE",
"91 15 OFFCURVE",
"79 15 CURVE SMOOTH",
"53 15 OFFCURVE",
"38 33 OFFCURVE",
"38 59 CURVE SMOOTH",
"38 71 OFFCURVE",
"42 82 OFFCURVE",
"49 91 CURVE",
"56 99 OFFCURVE",
"66 103 OFFCURVE",
"78 103 CURVE SMOOTH",
"89 103 OFFCURVE",
"101 100 OFFCURVE",
"114 94 CURVE",
"114 94 OFFCURVE",
"114 113 OFFCURVE",
"114 113 CURVE",
"105 118 OFFCURVE",
"92 120 OFFCURVE",
"76 120 CURVE SMOOTH",
"41 120 OFFCURVE",
"17 92 OFFCURVE",
"17 58 CURVE SMOOTH",
"17 24 OFFCURVE",
"43 -3 OFFCURVE",
"77 -3 CURVE SMOOTH"
);
}
);
width = 130;
}
);
note = c;
unicode = 0063;
},
{
glyphname = cacute;
layers = (
{
hints = (
{
horizontal = 1;
place = "{-3, 18}";
type = Stem;
},
{
horizontal = 1;
place = "{103, 17}";
type = Stem;
},
{
horizontal = 1;
place = "{196, 18}";
type = Stem;
},
{
place = "{12, 21}";
type = Stem;
},
{
place = "{95, 64}";
type = Stem;
},
{
place = "{146, 11}";
type = Stem;
}
);
layerId = "0835C59E-AAFD-4756-A43C-35DA64A2CD7E";
paths = (
{
closed = 1;
nodes = (
"63 168 LINE SMOOTH",
"63 168 OFFCURVE",
"32 134 OFFCURVE",
"32 134 CURVE SMOOTH",
"32 134 OFFCURVE",
"50 134 OFFCURVE",
"50 134 CURVE SMOOTH",
"50 134 OFFCURVE",
"86 168 OFFCURVE",
"86 168 CURVE SMOOTH"
);
},
{
closed = 1;
nodes = (
"83 -3 OFFCURVE",
"96 -1 OFFCURVE",
"109 3 CURVE",
"109 3 OFFCURVE",
"109 22 OFFCURVE",
"109 22 CURVE",
"98 17 OFFCURVE",
"86 15 OFFCURVE",
"74 15 CURVE SMOOTH",
"48 15 OFFCURVE",
"33 33 OFFCURVE",
"33 59 CURVE SMOOTH",
"33 71 OFFCURVE",
"37 82 OFFCURVE",
"44 91 CURVE",
"51 99 OFFCURVE",
"61 103 OFFCURVE",
"73 103 CURVE SMOOTH",
"84 103 OFFCURVE",
"96 100 OFFCURVE",
"109 94 CURVE",
"109 94 OFFCURVE",
"109 113 OFFCURVE",
"109 113 CURVE",
"100 118 OFFCURVE",
"87 120 OFFCURVE",
"71 120 CURVE SMOOTH",
"36 120 OFFCURVE",
"12 92 OFFCURVE",
"12 58 CURVE SMOOTH",
"12 24 OFFCURVE",
"38 -3 OFFCURVE",
"72 -3 CURVE SMOOTH"
);
}
);
width = 124;
}
);
note = cacute;
unicode = 0107;
},
{
glyphname = ccaron;
layers = (
{
hints = (
{
horizontal = 1;
place = "{-3, 18}";
type = Stem;
},
{
horizontal = 1;
place = "{103, 17}";
type = Stem;
},
{
place = "{17, 21}";
type = Stem;
}
);
layerId = "0835C59E-AAFD-4756-A43C-35DA64A2CD7E";
paths = (
{
closed = 1;
nodes = (
"88 -3 OFFCURVE",
"101 -1 OFFCURVE",
"114 3 CURVE",
"114 3 OFFCURVE",
"114 22 OFFCURVE",
"114 22 CURVE",
"103 17 OFFCURVE",
"91 15 OFFCURVE",
"79 15 CURVE SMOOTH",
"53 15 OFFCURVE",
"38 33 OFFCURVE",
"38 59 CURVE SMOOTH",
"38 71 OFFCURVE",
"42 82 OFFCURVE",
"49 91 CURVE",
"56 99 OFFCURVE",
"66 103 OFFCURVE",
"78 103 CURVE SMOOTH",
"89 103 OFFCURVE",
"101 100 OFFCURVE",
"114 94 CURVE",
"114 94 OFFCURVE",
"114 113 OFFCURVE",
"114 113 CURVE",
"105 118 OFFCURVE",
"92 120 OFFCURVE",
"76 120 CURVE",
"78 122 OFFCURVE",
"106 152 OFFCURVE",
"106 152 CURVE SMOOTH",
"106 152 OFFCURVE",
"89 152 OFFCURVE",
"89 152 CURVE",
"65 132 LINE",
"42 152 LINE",
"42 152 OFFCURVE",
"25 152 OFFCURVE",
"25 152 CURVE SMOOTH",
"25 152 OFFCURVE",
"57 118 OFFCURVE",
"59 118 CURVE",
"34 111 OFFCURVE",
"17 87 OFFCURVE",
"17 58 CURVE SMOOTH",
"17 24 OFFCURVE",
"43 -3 OFFCURVE",
"77 -3 CURVE SMOOTH"
);
}
);
width = 130;
}
);
note = ccaron;
unicode = 010D;
},
{
glyphname = ccedilla;
layers = (
{
hints = (
{
horizontal = 1;
place = "{-3, 18}";
type = Stem;
},
{
horizontal = 1;
place = "{103, 17}";
type = Stem;
},
{
place = "{17, 21}";
type = Stem;
}
);
layerId = "0835C59E-AAFD-4756-A43C-35DA64A2CD7E";
paths = (
{
closed = 1;
nodes = (
"45 -42 LINE",
"84 -42 LINE",
"84 -3 LINE",
"93 -2 OFFCURVE",
"104 0 OFFCURVE",
"114 3 CURVE",
"114 3 OFFCURVE",
"114 22 OFFCURVE",
"114 22 CURVE",
"103 17 OFFCURVE",
"91 15 OFFCURVE",
"79 15 CURVE SMOOTH",
"53 15 OFFCURVE",
"38 33 OFFCURVE",
"38 59 CURVE SMOOTH",
"38 71 OFFCURVE",
"42 82 OFFCURVE",
"49 91 CURVE",
"56 99 OFFCURVE",
"66 103 OFFCURVE",
"78 103 CURVE SMOOTH",
"89 103 OFFCURVE",
"101 100 OFFCURVE",
"114 94 CURVE",
"114 94 OFFCURVE",
"114 113 OFFCURVE",
"114 113 CURVE",
"105 118 OFFCURVE",
"92 120 OFFCURVE",
"76 120 CURVE SMOOTH",
"41 120 OFFCURVE",
"17 92 OFFCURVE",
"17 58 CURVE SMOOTH",
"17 26 OFFCURVE",
"39 1 OFFCURVE",
"70 -3 CURVE",
"70 -28 LINE",
"45 -28 LINE"
);
}
);
width = 128;
}
);
note = ccedilla;
unicode = 00E7;
},
{
glyphname = ccircumflex;
layers = (
{
hints = (
{
horizontal = 1;
place = "{-3, 18}";
type = Stem;
},
{
horizontal = 1;
place = "{103, 17}";
type = Stem;
},
{
place = "{12, 21}";
type = Stem;
}
);
layerId = "0835C59E-AAFD-4756-A43C-35DA64A2CD7E";
paths = (
{
closed = 1;
nodes = (
"57 167 OFFCURVE",
"25 133 OFFCURVE",
"25 133 CURVE SMOOTH",
"25 133 OFFCURVE",
"42 133 OFFCURVE",
"42 133 CURVE",
"65 153 LINE",
"89 133 LINE",
"89 133 OFFCURVE",
"106 133 OFFCURVE",
"106 133 CURVE SMOOTH",
"106 133 OFFCURVE",
"74 167 OFFCURVE",
"74 167 CURVE SMOOTH",
"74 167 OFFCURVE",
"57 167 OFFCURVE",
"57 167 CURVE SMOOTH"
);
},
{
closed = 1;
nodes = (
"83 -3 OFFCURVE",
"96 -1 OFFCURVE",
"109 3 CURVE",
"109 3 OFFCURVE",
"109 22 OFFCURVE",
"109 22 CURVE",
"98 17 OFFCURVE",
"86 15 OFFCURVE",
"74 15 CURVE SMOOTH",
"48 15 OFFCURVE",
"33 33 OFFCURVE",
"33 59 CURVE SMOOTH",
"33 71 OFFCURVE",
"37 82 OFFCURVE",
"44 91 CURVE",
"51 99 OFFCURVE",
"61 103 OFFCURVE",
"73 103 CURVE SMOOTH",
"84 103 OFFCURVE",
"96 100 OFFCURVE",
"109 94 CURVE",
"109 94 OFFCURVE",
"109 113 OFFCURVE",
"109 113 CURVE",
"100 118 OFFCURVE",
"87 120 OFFCURVE",
"71 120 CURVE SMOOTH",
"36 120 OFFCURVE",
"12 92 OFFCURVE",
"12 58 CURVE SMOOTH",
"12 24 OFFCURVE",
"38 -3 OFFCURVE",
"72 -3 CURVE SMOOTH"
);
}
);
width = 125;
}
);
note = ccircumflex;
unicode = 0109;
},
{
glyphname = d;
layers = (
{
hints = (
{
horizontal = 1;
place = "{-3, 18}";
type = Stem;
},
{
horizontal = 1;
place = "{102, 16}";
type = Stem;
},
{
horizontal = 1;
place = "{168, -20}";
target = down;
type = TopGhost;
},
{
place = "{12, 21}";
type = Stem;
},
{
place = "{94, 19}";
type = Stem;
},
{
horizontal = 1;
place = "{0, 21}";
target = up;
type = BottomGhost;
}
);
layerId = "0835C59E-AAFD-4756-A43C-35DA64A2CD7E";
paths = (
{
closed = 1;
nodes = (
"12 31 OFFCURVE",
"16 19 OFFCURVE",
"24 10 CURVE",
"31 1 OFFCURVE",
"39 -3 OFFCURVE",
"50 -3 CURVE SMOOTH",
"67 -3 OFFCURVE",
"82 7 OFFCURVE",
"94 26 CURVE",
"94 26 OFFCURVE",
"94 0 OFFCURVE",
"94 0 CURVE SMOOTH",
"94 0 OFFCURVE",
"113 0 OFFCURVE",
"113 0 CURVE SMOOTH",
"113 0 OFFCURVE",
"113 168 OFFCURVE",
"113 168 CURVE SMOOTH",
"113 168 OFFCURVE",
"94 168 OFFCURVE",
"94 168 CURVE SMOOTH",
"94 168 OFFCURVE",
"94 116 OFFCURVE",
"94 116 CURVE SMOOTH",
"94 116 OFFCURVE",
"72 118 OFFCURVE",
"72 118 CURVE SMOOTH",
"32 118 OFFCURVE",
"12 85 OFFCURVE",
"12 48 CURVE SMOOTH"
);
},
{
closed = 1;
nodes = (
"33 76 OFFCURVE",
"46 102 OFFCURVE",
"75 102 CURVE SMOOTH",
"81 102 OFFCURVE",
"87 101 OFFCURVE",
"94 99 CURVE",
"94 99 OFFCURVE",
"94 49 OFFCURVE",
"94 49 CURVE",
"81 26 OFFCURVE",
"68 15 OFFCURVE",
"54 15 CURVE SMOOTH",
"49 15 OFFCURVE",
"44 18 OFFCURVE",
"40 24 CURVE",
"35 29 OFFCURVE",
"33 37 OFFCURVE",
"33 50 CURVE SMOOTH"
);
}
);
width = 128;
}
);
note = d;
unicode = 0064;
},
{
glyphname = e;
layers = (
{
hints = (
{
horizontal = 1;
place = "{-3, 16}";
type = Stem;
},
{
horizontal = 1;
place = "{55, 14}";
type = Stem;
},
{
horizontal = 1;
place = "{103, 17}";
type = Stem;
},
{
place = "{14, 20}";
type = Stem;
},
{
place = "{94, 21}";
type = Stem;
}
);
layerId = "0835C59E-AAFD-4756-A43C-35DA64A2CD7E";
paths = (
{
closed = 1;
nodes = (
"98 17 OFFCURVE",
"84 13 OFFCURVE",
"71 13 CURVE SMOOTH",
"60 13 OFFCURVE",
"52 17 OFFCURVE",
"45 25 CURVE",
"38 32 OFFCURVE",
"34 42 OFFCURVE",
"34 55 CURVE",
"34 55 OFFCURVE",
"115 55 OFFCURVE",
"115 55 CURVE SMOOTH",
"115 55 OFFCURVE",
"115 59 OFFCURVE",
"115 59 CURVE",
"115 81 OFFCURVE",
"111 96 OFFCURVE",
"102 105 CURVE",
"93 115 OFFCURVE",
"82 120 OFFCURVE",
"69 120 CURVE SMOOTH",
"34 120 OFFCURVE",
"14 91 OFFCURVE",
"14 58 CURVE SMOOTH",
"14 26 OFFCURVE",
"35 -3 OFFCURVE",
"69 -3 CURVE SMOOTH",
"80 -3 OFFCURVE",
"94 1 OFFCURVE",
"113 8 CURVE",
"113 8 OFFCURVE",
"113 25 OFFCURVE",
"113 25 CURVE"
);
},
{
closed = 1;
nodes = (
"38 81 OFFCURVE",
"42 90 OFFCURVE",
"48 95 CURVE",
"55 100 OFFCURVE",
"62 103 OFFCURVE",
"68 103 CURVE SMOOTH",
"87 103 OFFCURVE",
"94 89 OFFCURVE",
"94 72 CURVE",
"94 72 OFFCURVE",
"94 69 OFFCURVE",
"94 69 CURVE SMOOTH",
"94 69 OFFCURVE",
"36 69 OFFCURVE",
"36 69 CURVE"
);
}
);
width = 128;
}
);
note = e;
unicode = 0065;
},
{
glyphname = eacute;
layers = (
{
hints = (
{
horizontal = 1;
place = "{-3, 16}";
type = Stem;
},
{
horizontal = 1;
place = "{55, 14}";
type = Stem;
},
{
horizontal = 1;
place = "{103, 17}";
type = Stem;
},
{
horizontal = 1;
place = "{134, 34}";
type = Stem;
},
{
place = "{14, 20}";
type = Stem;
},
{
place = "{94, 21}";
type = Stem;
}
);
layerId = "0835C59E-AAFD-4756-A43C-35DA64A2CD7E";
paths = (
{
closed = 1;
nodes = (
"64 168 LINE SMOOTH",
"64 168 OFFCURVE",
"33 134 OFFCURVE",
"33 134 CURVE SMOOTH",
"33 134 OFFCURVE",
"51 134 OFFCURVE",
"51 134 CURVE SMOOTH",
"51 134 OFFCURVE",
"87 168 OFFCURVE",
"87 168 CURVE SMOOTH"
);
},
{
closed = 1;
nodes = (
"98 17 OFFCURVE",
"84 13 OFFCURVE",
"71 13 CURVE SMOOTH",
"60 13 OFFCURVE",
"52 17 OFFCURVE",
"45 25 CURVE",
"38 32 OFFCURVE",
"34 42 OFFCURVE",
"34 55 CURVE",
"34 55 OFFCURVE",
"115 55 OFFCURVE",
"115 55 CURVE SMOOTH",
"115 55 OFFCURVE",
"115 59 OFFCURVE",
"115 59 CURVE",
"115 81 OFFCURVE",
"111 96 OFFCURVE",
"102 105 CURVE",
"93 115 OFFCURVE",
"82 120 OFFCURVE",
"69 120 CURVE SMOOTH",
"34 120 OFFCURVE",
"14 91 OFFCURVE",
"14 58 CURVE SMOOTH",
"14 26 OFFCURVE",
"35 -3 OFFCURVE",
"69 -3 CURVE SMOOTH",
"80 -3 OFFCURVE",
"94 1 OFFCURVE",
"113 8 CURVE",
"113 8 OFFCURVE",
"113 25 OFFCURVE",
"113 25 CURVE"
);
},
{
closed = 1;
nodes = (
"38 81 OFFCURVE",
"42 90 OFFCURVE",
"48 95 CURVE",
"55 100 OFFCURVE",
"62 103 OFFCURVE",
"68 103 CURVE SMOOTH",
"87 103 OFFCURVE",
"94 89 OFFCURVE",
"94 72 CURVE",
"94 72 OFFCURVE",
"94 69 OFFCURVE",
"94 69 CURVE SMOOTH",
"94 69 OFFCURVE",
"36 69 OFFCURVE",
"36 69 CURVE"
);
}
);
width = 130;
}
);
note = eacute;
unicode = 00E9;
},
{
glyphname = ecaron;
layers = (
{
hints = (
{
horizontal = 1;
place = "{-3, 16}";
type = Stem;
},
{
horizontal = 1;
place = "{55, 14}";
type = Stem;
},
{
horizontal = 1;
place = "{103, 17}";
type = Stem;
},
{
place = "{14, 20}";
type = Stem;
},
{
place = "{94, 21}";
type = Stem;
}
);
layerId = "0835C59E-AAFD-4756-A43C-35DA64A2CD7E";
paths = (
{
closed = 1;
nodes = (
"98 17 OFFCURVE",
"84 13 OFFCURVE",
"71 13 CURVE SMOOTH",
"60 13 OFFCURVE",
"52 17 OFFCURVE",
"45 25 CURVE",
"38 32 OFFCURVE",
"34 42 OFFCURVE",
"34 55 CURVE",
"34 55 OFFCURVE",
"115 55 OFFCURVE",
"115 55 CURVE SMOOTH",
"115 55 OFFCURVE",
"115 59 OFFCURVE",
"115 59 CURVE",
"115 81 OFFCURVE",
"111 96 OFFCURVE",
"102 105 CURVE",
"94 114 OFFCURVE",
"85 118 OFFCURVE",
"75 120 CURVE",
"76 121 OFFCURVE",
"105 152 OFFCURVE",
"105 152 CURVE SMOOTH",
"105 152 OFFCURVE",
"88 152 OFFCURVE",
"88 152 CURVE",
"64 132 LINE",
"41 152 LINE",
"41 152 OFFCURVE",
"24 152 OFFCURVE",
"24 152 CURVE SMOOTH",
"24 152 OFFCURVE",
"55 119 OFFCURVE",
"56 118 CURVE",
"29 112 OFFCURVE",
"14 87 OFFCURVE",
"14 58 CURVE SMOOTH",
"14 26 OFFCURVE",
"35 -3 OFFCURVE",
"69 -3 CURVE SMOOTH",
"80 -3 OFFCURVE",
"94 1 OFFCURVE",
"113 8 CURVE",
"113 8 OFFCURVE",
"113 25 OFFCURVE",
"113 25 CURVE"
);
},
{
closed = 1;
nodes = (
"38 81 OFFCURVE",
"42 90 OFFCURVE",
"48 95 CURVE",
"55 100 OFFCURVE",
"62 103 OFFCURVE",
"68 103 CURVE SMOOTH",
"87 103 OFFCURVE",
"94 89 OFFCURVE",
"94 72 CURVE",
"94 72 OFFCURVE",
"94 69 OFFCURVE",
"94 69 CURVE SMOOTH",
"94 69 OFFCURVE",
"36 69 OFFCURVE",
"36 69 CURVE"
);
}
);
width = 128;
}
);
note = ecaron;
unicode = 011B;
},
{
glyphname = ecircumflex;
layers = (
{
hints = (
{
horizontal = 1;
place = "{-3, 16}";
type = Stem;
},
{
horizontal = 1;
place = "{55, 14}";
type = Stem;
},
{
horizontal = 1;
place = "{103, 17}";
type = Stem;
},
{
place = "{14, 20}";
type = Stem;
},
{
place = "{94, 21}";
type = Stem;
}
);
layerId = "0835C59E-AAFD-4756-A43C-35DA64A2CD7E";
paths = (
{
closed = 1;
nodes = (
"60 166 OFFCURVE",
"28 132 OFFCURVE",
"28 132 CURVE SMOOTH",
"28 132 OFFCURVE",
"45 132 OFFCURVE",
"45 132 CURVE",
"68 152 LINE",
"92 132 LINE",
"92 132 OFFCURVE",
"109 132 OFFCURVE",
"109 132 CURVE SMOOTH",
"109 132 OFFCURVE",
"77 166 OFFCURVE",
"77 166 CURVE SMOOTH",
"77 166 OFFCURVE",
"60 166 OFFCURVE",
"60 166 CURVE SMOOTH"
);
},
{
closed = 1;
nodes = (
"98 17 OFFCURVE",
"84 13 OFFCURVE",
"71 13 CURVE SMOOTH",
"60 13 OFFCURVE",
"52 17 OFFCURVE",
"45 25 CURVE",
"38 32 OFFCURVE",
"34 42 OFFCURVE",
"34 55 CURVE",
"34 55 OFFCURVE",
"115 55 OFFCURVE",
"115 55 CURVE SMOOTH",
"115 55 OFFCURVE",
"115 59 OFFCURVE",
"115 59 CURVE",
"115 81 OFFCURVE",
"111 96 OFFCURVE",
"102 105 CURVE",
"93 115 OFFCURVE",
"82 120 OFFCURVE",
"69 120 CURVE SMOOTH",
"34 120 OFFCURVE",
"14 91 OFFCURVE",
"14 58 CURVE SMOOTH",
"14 26 OFFCURVE",
"35 -3 OFFCURVE",
"69 -3 CURVE SMOOTH",
"80 -3 OFFCURVE",
"94 1 OFFCURVE",
"113 8 CURVE",
"113 8 OFFCURVE",
"113 25 OFFCURVE",
"113 25 CURVE"
);
},
{
closed = 1;
nodes = (
"38 81 OFFCURVE",
"42 90 OFFCURVE",
"48 95 CURVE",
"55 100 OFFCURVE",
"62 103 OFFCURVE",
"68 103 CURVE SMOOTH",
"87 103 OFFCURVE",
"94 89 OFFCURVE",
"94 72 CURVE",
"94 72 OFFCURVE",
"94 69 OFFCURVE",
"94 69 CURVE SMOOTH",
"94 69 OFFCURVE",
"36 69 OFFCURVE",
"36 69 CURVE"
);
}
);
width = 128;
}
);
note = ecircumflex;
unicode = 00EA;
},
{
glyphname = edieresis;
layers = (
{
hints = (
{
horizontal = 1;
place = "{-3, 16}";
type = Stem;
},
{
horizontal = 1;
place = "{55, 14}";
type = Stem;
},
{
horizontal = 1;
place = "{103, 17}";
type = Stem;
},
{
horizontal = 1;
place = "{188, 22}";
type = Stem;
},
{
place = "{21, 22}";
type = Stem;
},
{
place = "{86, 21}";
type = Stem;
},
{
place = "{14, 20}";
type = Stem;
},
{
place = "{94, 21}";
type = Stem;
}
);
layerId = "0835C59E-AAFD-4756-A43C-35DA64A2CD7E";
paths = (
{
closed = 1;
nodes = (
"49 136 OFFCURVE",
"53 140 OFFCURVE",
"53 140 CURVE",
"53 153 LINE",
"53 153 OFFCURVE",
"49 158 OFFCURVE",
"49 158 CURVE SMOOTH",
"49 158 OFFCURVE",
"35 158 OFFCURVE",
"35 158 CURVE SMOOTH",
"35 158 OFFCURVE",
"31 154 OFFCURVE",
"31 154 CURVE SMOOTH",
"31 154 OFFCURVE",
"31 141 OFFCURVE",
"31 141 CURVE SMOOTH",
"31 141 OFFCURVE",
"36 136 OFFCURVE",
"36 136 CURVE SMOOTH",
"36 136 OFFCURVE",
"49 136 OFFCURVE",
"49 136 CURVE SMOOTH"
);
},
{
closed = 1;
nodes = (
"80 136 OFFCURVE",
"93 136 OFFCURVE",
"93 136 CURVE SMOOTH",
"93 136 OFFCURVE",
"97 140 OFFCURVE",
"97 140 CURVE",
"97 153 LINE",
"97 153 OFFCURVE",
"93 158 OFFCURVE",
"93 158 CURVE SMOOTH",
"93 158 OFFCURVE",
"79 158 OFFCURVE",
"79 158 CURVE SMOOTH",
"79 158 OFFCURVE",
"76 154 OFFCURVE",
"76 154 CURVE SMOOTH",
"76 154 OFFCURVE",
"76 140 OFFCURVE",
"76 140 CURVE SMOOTH",
"76 140 OFFCURVE",
"80 136 OFFCURVE",
"80 136 CURVE SMOOTH"
);
},
{
closed = 1;
nodes = (
"98 17 OFFCURVE",
"84 13 OFFCURVE",
"71 13 CURVE SMOOTH",
"60 13 OFFCURVE",
"52 17 OFFCURVE",
"45 25 CURVE",
"38 32 OFFCURVE",
"34 42 OFFCURVE",
"34 55 CURVE",
"34 55 OFFCURVE",
"115 55 OFFCURVE",
"115 55 CURVE SMOOTH",
"115 55 OFFCURVE",
"115 59 OFFCURVE",
"115 59 CURVE",
"115 81 OFFCURVE",
"111 96 OFFCURVE",
"102 105 CURVE",
"93 115 OFFCURVE",
"82 120 OFFCURVE",
"69 120 CURVE SMOOTH",
"34 120 OFFCURVE",
"14 91 OFFCURVE",
"14 58 CURVE SMOOTH",
"14 26 OFFCURVE",
"35 -3 OFFCURVE",
"69 -3 CURVE SMOOTH",
"80 -3 OFFCURVE",
"94 1 OFFCURVE",
"113 8 CURVE",
"113 8 OFFCURVE",
"113 25 OFFCURVE",
"113 25 CURVE"
);
},
{
closed = 1;
nodes = (
"38 81 OFFCURVE",
"42 90 OFFCURVE",
"48 95 CURVE",
"55 100 OFFCURVE",
"62 103 OFFCURVE",
"68 103 CURVE SMOOTH",
"87 103 OFFCURVE",
"94 89 OFFCURVE",
"94 72 CURVE",
"94 72 OFFCURVE",
"94 69 OFFCURVE",
"94 69 CURVE SMOOTH",
"94 69 OFFCURVE",
"36 69 OFFCURVE",
"36 69 CURVE"
);
}
);
width = 128;
}
);
note = edieresis;
unicode = 00EB;
},
{
glyphname = egrave;
layers = (
{
hints = (
{
horizontal = 1;
place = "{-3, 16}";
type = Stem;
},
{
horizontal = 1;
place = "{55, 14}";
type = Stem;
},
{
horizontal = 1;
place = "{103, 17}";
type = Stem;
},
{
horizontal = 1;
place = "{134, 34}";
type = Stem;
},
{
place = "{34, 20}";
type = Stem;
},
{
place = "{114, 21}";
type = Stem;
}
);
layerId = "0835C59E-AAFD-4756-A43C-35DA64A2CD7E";
paths = (
{
closed = 1;
nodes = (
"53 168 LINE SMOOTH",
"53 168 OFFCURVE",
"89 134 OFFCURVE",
"89 134 CURVE SMOOTH",
"89 134 OFFCURVE",
"107 134 OFFCURVE",
"107 134 CURVE SMOOTH",
"107 134 OFFCURVE",
"76 168 OFFCURVE",
"76 168 CURVE SMOOTH"
);
},
{
closed = 1;
nodes = (
"118 17 OFFCURVE",
"104 13 OFFCURVE",
"91 13 CURVE SMOOTH",
"80 13 OFFCURVE",
"72 17 OFFCURVE",
"65 25 CURVE",
"58 32 OFFCURVE",
"54 42 OFFCURVE",
"54 55 CURVE",
"54 55 OFFCURVE",
"135 55 OFFCURVE",
"135 55 CURVE SMOOTH",
"135 55 OFFCURVE",
"135 59 OFFCURVE",
"135 59 CURVE",
"135 81 OFFCURVE",
"131 96 OFFCURVE",
"122 105 CURVE",
"113 115 OFFCURVE",
"102 120 OFFCURVE",
"89 120 CURVE SMOOTH",
"54 120 OFFCURVE",
"34 91 OFFCURVE",
"34 58 CURVE SMOOTH",
"34 26 OFFCURVE",
"55 -3 OFFCURVE",
"89 -3 CURVE SMOOTH",
"100 -3 OFFCURVE",
"114 1 OFFCURVE",
"133 8 CURVE",
"133 8 OFFCURVE",
"133 25 OFFCURVE",
"133 25 CURVE"
);
},
{
closed = 1;
nodes = (
"58 81 OFFCURVE",
"62 90 OFFCURVE",
"68 95 CURVE",
"75 100 OFFCURVE",
"82 103 OFFCURVE",
"88 103 CURVE SMOOTH",
"107 103 OFFCURVE",
"114 89 OFFCURVE",
"114 72 CURVE",
"114 72 OFFCURVE",
"114 69 OFFCURVE",
"114 69 CURVE SMOOTH",
"114 69 OFFCURVE",
"56 69 OFFCURVE",
"56 69 CURVE"
);
}
);
width = 155;
}
);
note = egrave;
unicode = 00E8;
},
{
glyphname = emacron;
layers = (
{
hints = (
{
horizontal = 1;
place = "{-3, 16}";
type = Stem;
},
{
horizontal = 1;
place = "{55, 14}";
type = Stem;
},
{
horizontal = 1;
place = "{103, 17}";
type = Stem;
},
{
place = "{14, 20}";
type = Stem;
},
{
place = "{94, 21}";
type = Stem;
}
);
layerId = "0835C59E-AAFD-4756-A43C-35DA64A2CD7E";
paths = (
{
closed = 1;
nodes = (
"37 131 LINE",
"91 131 LINE",
"91 145 LINE",
"37 145 LINE"
);
},
{
closed = 1;
nodes = (
"98 17 OFFCURVE",
"84 13 OFFCURVE",
"71 13 CURVE SMOOTH",
"60 13 OFFCURVE",
"52 17 OFFCURVE",
"45 25 CURVE",
"38 32 OFFCURVE",
"34 42 OFFCURVE",
"34 55 CURVE",
"34 55 OFFCURVE",
"115 55 OFFCURVE",
"115 55 CURVE SMOOTH",
"115 55 OFFCURVE",
"115 59 OFFCURVE",
"115 59 CURVE",
"115 81 OFFCURVE",
"111 96 OFFCURVE",
"102 105 CURVE",
"93 115 OFFCURVE",
"82 120 OFFCURVE",
"69 120 CURVE SMOOTH",
"34 120 OFFCURVE",
"14 91 OFFCURVE",
"14 58 CURVE SMOOTH",
"14 26 OFFCURVE",
"35 -3 OFFCURVE",
"69 -3 CURVE SMOOTH",
"80 -3 OFFCURVE",
"94 1 OFFCURVE",
"113 8 CURVE",
"113 8 OFFCURVE",
"113 25 OFFCURVE",
"113 25 CURVE"
);
},
{
closed = 1;
nodes = (
"38 81 OFFCURVE",
"42 90 OFFCURVE",
"48 95 CURVE",
"55 100 OFFCURVE",
"62 103 OFFCURVE",
"68 103 CURVE SMOOTH",
"87 103 OFFCURVE",
"94 89 OFFCURVE",
"94 72 CURVE",
"94 72 OFFCURVE",
"94 69 OFFCURVE",
"94 69 CURVE SMOOTH",
"94 69 OFFCURVE",
"36 69 OFFCURVE",
"36 69 CURVE"
);
}
);
width = 128;
}
);
note = emacron;
unicode = 0113;
},
{
glyphname = f;
layers = (
{
hints = (
{
horizontal = 1;
place = "{0, 21}";
target = up;
type = BottomGhost;
},
{
horizontal = 1;
place = "{91, 16}";
type = Stem;
},
{
horizontal = 1;
place = "{155, 16}";
type = Stem;
},
{
place = "{43, 20}";
type = Stem;
},
{
place = "{93, 28}";
type = Stem;
},
{
place = "{63, 46}";
type = Stem;
}
);
layerId = "0835C59E-AAFD-4756-A43C-35DA64A2CD7E";
paths = (
{
closed = 1;
nodes = (
"17 91 OFFCURVE",
"43 91 OFFCURVE",
"43 91 CURVE SMOOTH",
"43 91 OFFCURVE",
"43 0 OFFCURVE",
"43 0 CURVE SMOOTH",
"43 0 OFFCURVE",
"63 0 OFFCURVE",
"63 0 CURVE SMOOTH",
"63 0 OFFCURVE",
"63 91 OFFCURVE",
"63 91 CURVE",
"109 91 LINE",
"109 91 OFFCURVE",
"109 107 OFFCURVE",
"109 107 CURVE SMOOTH",
"109 107 OFFCURVE",
"63 107 OFFCURVE",
"63 107 CURVE SMOOTH",
"63 107 OFFCURVE",
"63 114 OFFCURVE",
"63 114 CURVE",
"63 128 OFFCURVE",
"66 139 OFFCURVE",
"71 146 CURVE",
"76 152 OFFCURVE",
"83 155 OFFCURVE",
"94 155 CURVE SMOOTH",
"97 155 OFFCURVE",
"106 153 OFFCURVE",
"121 150 CURVE",
"121 150 OFFCURVE",
"121 169 OFFCURVE",
"121 169 CURVE SMOOTH",
"121 169 OFFCURVE",
"93 171 OFFCURVE",
"93 171 CURVE SMOOTH",
"60 171 OFFCURVE",
"43 151 OFFCURVE",
"43 112 CURVE",
"43 112 OFFCURVE",
"43 107 OFFCURVE",
"43 107 CURVE SMOOTH",
"43 107 OFFCURVE",
"17 107 OFFCURVE",
"17 107 CURVE SMOOTH",
"17 107 OFFCURVE",
"17 91 OFFCURVE",
"17 91 CURVE SMOOTH"
);
}
);
width = 128;
}
);
note = f;
unicode = 0066;
},
{
glyphname = g;
layers = (
{
hints = (
{
horizontal = 1;
place = "{-48, 16}";
type = Stem;
},
{
horizontal = 1;
place = "{-3, 18}";
type = Stem;
},
{
horizontal = 1;
place = "{102, 16}";
type = Stem;
},
{
place = "{12, 21}";
type = Stem;
},
{
place = "{94, 19}";
type = Stem;
}
);
layerId = "0835C59E-AAFD-4756-A43C-35DA64A2CD7E";
paths = (
{
closed = 1;
nodes = (
"25 -45 OFFCURVE",
"39 -48 OFFCURVE",
"55 -48 CURVE SMOOTH",
"84 -48 OFFCURVE",
"102 -39 OFFCURVE",
"108 -20 CURVE",
"111 -8 OFFCURVE",
"113 10 OFFCURVE",
"113 34 CURVE",
"113 34 OFFCURVE",
"113 116 OFFCURVE",
"113 116 CURVE SMOOTH",
"113 116 OFFCURVE",
"94 116 OFFCURVE",
"94 116 CURVE SMOOTH",
"94 116 OFFCURVE",
"72 118 OFFCURVE",
"72 118 CURVE SMOOTH",
"32 118 OFFCURVE",
"12 85 OFFCURVE",
"12 48 CURVE SMOOTH",
"12 31 OFFCURVE",
"16 19 OFFCURVE",
"24 10 CURVE",
"31 1 OFFCURVE",
"39 -3 OFFCURVE",
"50 -3 CURVE SMOOTH",
"67 -3 OFFCURVE",
"82 7 OFFCURVE",
"94 26 CURVE",
"94 26 OFFCURVE",
"94 10 OFFCURVE",
"94 10 CURVE",
"94 -18 OFFCURVE",
"81 -32 OFFCURVE",
"56 -32 CURVE SMOOTH",
"42 -32 OFFCURVE",
"27 -27 OFFCURVE",
"12 -18 CURVE",
"12 -18 OFFCURVE",
"12 -38 OFFCURVE",
"12 -38 CURVE"
);
},
{
closed = 1;
nodes = (
"33 76 OFFCURVE",
"46 102 OFFCURVE",
"75 102 CURVE SMOOTH",
"81 102 OFFCURVE",
"87 101 OFFCURVE",
"94 99 CURVE",
"94 99 OFFCURVE",
"94 49 OFFCURVE",
"94 49 CURVE",
"81 26 OFFCURVE",
"68 15 OFFCURVE",
"54 15 CURVE SMOOTH",
"49 15 OFFCURVE",
"44 18 OFFCURVE",
"40 24 CURVE",
"35 29 OFFCURVE",
"33 37 OFFCURVE",
"33 50 CURVE SMOOTH"
);
}
);
width = 128;
}
);
note = g;
unicode = 0067;
},
{
glyphname = gcircumflex;
layers = (
{
hints = (
{
horizontal = 1;
place = "{-48, 16}";
type = Stem;
},
{
horizontal = 1;
place = "{-3, 18}";
type = Stem;
},
{
horizontal = 1;
place = "{102, 16}";
type = Stem;
},
{
place = "{12, 21}";
type = Stem;
},
{
place = "{94, 19}";
type = Stem;
}
);
layerId = "0835C59E-AAFD-4756-A43C-35DA64A2CD7E";
paths = (
{
closed = 1;
nodes = (
"56 164 OFFCURVE",
"24 130 OFFCURVE",
"24 130 CURVE SMOOTH",
"24 130 OFFCURVE",
"41 130 OFFCURVE",
"41 130 CURVE",
"64 150 LINE",
"88 130 LINE",
"88 130 OFFCURVE",
"105 130 OFFCURVE",
"105 130 CURVE SMOOTH",
"105 130 OFFCURVE",
"73 164 OFFCURVE",
"73 164 CURVE SMOOTH",
"73 164 OFFCURVE",
"56 164 OFFCURVE",
"56 164 CURVE SMOOTH"
);
},
{
closed = 1;
nodes = (
"25 -45 OFFCURVE",
"39 -48 OFFCURVE",
"55 -48 CURVE SMOOTH",
"84 -48 OFFCURVE",
"102 -39 OFFCURVE",
"108 -20 CURVE",
"111 -8 OFFCURVE",
"113 10 OFFCURVE",
"113 34 CURVE",
"113 34 OFFCURVE",
"113 116 OFFCURVE",
"113 116 CURVE SMOOTH",
"113 116 OFFCURVE",
"94 116 OFFCURVE",
"94 116 CURVE SMOOTH",
"94 116 OFFCURVE",
"72 118 OFFCURVE",
"72 118 CURVE SMOOTH",
"32 118 OFFCURVE",
"12 85 OFFCURVE",
"12 48 CURVE SMOOTH",
"12 31 OFFCURVE",
"16 19 OFFCURVE",
"24 10 CURVE",
"31 1 OFFCURVE",
"39 -3 OFFCURVE",
"50 -3 CURVE SMOOTH",
"67 -3 OFFCURVE",
"82 7 OFFCURVE",
"94 26 CURVE",
"94 26 OFFCURVE",
"94 10 OFFCURVE",
"94 10 CURVE",
"94 -18 OFFCURVE",
"81 -32 OFFCURVE",
"56 -32 CURVE SMOOTH",
"42 -32 OFFCURVE",
"27 -27 OFFCURVE",
"12 -18 CURVE",
"12 -18 OFFCURVE",
"12 -38 OFFCURVE",
"12 -38 CURVE"
);
},
{
closed = 1;
nodes = (
"33 76 OFFCURVE",
"46 102 OFFCURVE",
"75 102 CURVE SMOOTH",
"81 102 OFFCURVE",
"87 101 OFFCURVE",
"94 99 CURVE",
"94 99 OFFCURVE",
"94 49 OFFCURVE",
"94 49 CURVE",
"81 26 OFFCURVE",
"68 15 OFFCURVE",
"54 15 CURVE SMOOTH",
"49 15 OFFCURVE",
"44 18 OFFCURVE",
"40 24 CURVE",
"35 29 OFFCURVE",
"33 37 OFFCURVE",
"33 50 CURVE SMOOTH"
);
}
);
width = 128;
}
);
note = gcircumflex;
unicode = 011D;
},
{
glyphname = h;
layers = (
{
hints = (
{
horizontal = 1;
place = "{0, 21}";
target = up;
type = BottomGhost;
},
{
horizontal = 1;
place = "{102, 18}";
type = Stem;
},
{
horizontal = 1;
place = "{168, -20}";
target = down;
type = TopGhost;
},
{
place = "{16, 20}";
type = Stem;
},
{
place = "{94, 19}";
type = Stem;
}
);
layerId = "0835C59E-AAFD-4756-A43C-35DA64A2CD7E";
paths = (
{
closed = 1;
nodes = (
"16 0 OFFCURVE",
"36 0 OFFCURVE",
"36 0 CURVE SMOOTH",
"36 0 OFFCURVE",
"36 68 OFFCURVE",
"36 68 CURVE",
"47 91 OFFCURVE",
"60 102 OFFCURVE",
"77 102 CURVE SMOOTH",
"82 102 OFFCURVE",
"86 100 OFFCURVE",
"89 96 CURVE",
"92 91 OFFCURVE",
"94 81 OFFCURVE",
"94 67 CURVE",
"94 67 OFFCURVE",
"94 0 OFFCURVE",
"94 0 CURVE SMOOTH",
"94 0 OFFCURVE",
"113 0 OFFCURVE",
"113 0 CURVE SMOOTH",
"113 0 OFFCURVE",
"113 65 OFFCURVE",
"113 65 CURVE",
"113 102 OFFCURVE",
"102 120 OFFCURVE",
"79 120 CURVE SMOOTH",
"62 120 OFFCURVE",
"47 110 OFFCURVE",
"36 91 CURVE",
"36 91 OFFCURVE",
"36 168 OFFCURVE",
"36 168 CURVE SMOOTH",
"36 168 OFFCURVE",
"16 168 OFFCURVE",
"16 168 CURVE SMOOTH",
"16 168 OFFCURVE",
"16 0 OFFCURVE",
"16 0 CURVE SMOOTH"
);
}
);
width = 128;
}
);
note = h;
unicode = 0068;
},
{
glyphname = hcircumflex;
layers = (
{
hints = (
{
horizontal = 1;
place = "{0, 21}";
target = up;
type = BottomGhost;
},
{
horizontal = 1;
place = "{102, 18}";
type = Stem;
},
{
horizontal = 1;
place = "{168, -20}";
target = down;
type = TopGhost;
},
{
place = "{16, 20}";
type = Stem;
},
{
place = "{94, 19}";
type = Stem;
}
);
layerId = "0835C59E-AAFD-4756-A43C-35DA64A2CD7E";
paths = (
{
closed = 1;
nodes = (
"56 214 OFFCURVE",
"24 180 OFFCURVE",
"24 180 CURVE SMOOTH",
"24 180 OFFCURVE",
"41 180 OFFCURVE",
"41 180 CURVE",
"64 200 LINE",
"88 180 LINE",
"88 180 OFFCURVE",
"105 180 OFFCURVE",
"105 180 CURVE SMOOTH",
"105 180 OFFCURVE",
"73 214 OFFCURVE",
"73 214 CURVE SMOOTH",
"73 214 OFFCURVE",
"56 214 OFFCURVE",
"56 214 CURVE SMOOTH"
);
},
{
closed = 1;
nodes = (
"16 0 OFFCURVE",
"36 0 OFFCURVE",
"36 0 CURVE SMOOTH",
"36 0 OFFCURVE",
"36 68 OFFCURVE",
"36 68 CURVE",
"47 91 OFFCURVE",
"60 102 OFFCURVE",
"77 102 CURVE SMOOTH",
"82 102 OFFCURVE",
"86 100 OFFCURVE",
"89 96 CURVE",
"92 91 OFFCURVE",
"94 81 OFFCURVE",
"94 67 CURVE",
"94 67 OFFCURVE",
"94 0 OFFCURVE",
"94 0 CURVE SMOOTH",
"94 0 OFFCURVE",
"113 0 OFFCURVE",
"113 0 CURVE SMOOTH",
"113 0 OFFCURVE",
"113 65 OFFCURVE",
"113 65 CURVE",
"113 102 OFFCURVE",
"102 120 OFFCURVE",
"79 120 CURVE SMOOTH",
"62 120 OFFCURVE",
"47 110 OFFCURVE",
"36 91 CURVE",
"36 91 OFFCURVE",
"36 168 OFFCURVE",
"36 168 CURVE SMOOTH",
"36 168 OFFCURVE",
"16 168 OFFCURVE",
"16 168 CURVE SMOOTH",
"16 168 OFFCURVE",
"16 0 OFFCURVE",
"16 0 CURVE SMOOTH"
);
}
);
width = 128;
}
);
note = hcircumflex;
unicode = 0125;
},
{
glyphname = i;
layers = (
{
hints = (
{
horizontal = 1;
place = "{0, 16}";
type = Stem;
},
{
horizontal = 1;
place = "{100, 16}";
type = Stem;
},
{
horizontal = 1;
place = "{145, 26}";
type = Stem;
},
{
place = "{46, 25}";
type = Stem;
},
{
place = "{49, 19}";
type = Stem;
}
);
layerId = "0835C59E-AAFD-4756-A43C-35DA64A2CD7E";
paths = (
{
closed = 1;
nodes = (
"46 152 OFFCURVE",
"52 145 OFFCURVE",
"58 145 CURVE SMOOTH",
"65 145 OFFCURVE",
"71 151 OFFCURVE",
"71 158 CURVE SMOOTH",
"71 166 OFFCURVE",
"66 171 OFFCURVE",
"58 171 CURVE SMOOTH",
"50 171 OFFCURVE",
"46 165 OFFCURVE",
"46 158 CURVE SMOOTH"
);
},
{
closed = 1;
nodes = (
"16 116 OFFCURVE",
"16 100 OFFCURVE",
"16 100 CURVE SMOOTH",
"16 100 OFFCURVE",
"49 100 OFFCURVE",
"49 100 CURVE SMOOTH",
"49 100 OFFCURVE",
"49 0 OFFCURVE",
"49 0 CURVE SMOOTH",
"49 0 OFFCURVE",
"101 0 OFFCURVE",
"101 0 CURVE SMOOTH",
"101 0 OFFCURVE",
"101 16 OFFCURVE",
"101 16 CURVE SMOOTH",
"68 16 LINE SMOOTH",
"68 16 OFFCURVE",
"68 116 OFFCURVE",
"68 116 CURVE SMOOTH",
"68 116 OFFCURVE",
"16 116 OFFCURVE",
"16 116 CURVE SMOOTH"
);
}
);
width = 128;
}
);
note = i;
unicode = 0069;
},
{
glyphname = iacute;
layers = (
{
hints = (
{
horizontal = 1;
place = "{0, 16}";
type = Stem;
},
{
horizontal = 1;
place = "{100, 16}";
type = Stem;
},
{
horizontal = 1;
place = "{145, 26}";
type = Stem;
},
{
horizontal = 1;
place = "{196, 18}";
type = Stem;
},
{
place = "{46, 25}";
type = Stem;
},
{
place = "{49, 19}";
type = Stem;
},
{
place = "{100, 64}";
type = Stem;
},
{
place = "{151, 11}";
type = Stem;
}
);
layerId = "0835C59E-AAFD-4756-A43C-35DA64A2CD7E";
paths = (
{
closed = 1;
nodes = (
"68 168 LINE SMOOTH",
"68 168 OFFCURVE",
"37 134 OFFCURVE",
"37 134 CURVE SMOOTH",
"37 134 OFFCURVE",
"55 134 OFFCURVE",
"55 134 CURVE SMOOTH",
"55 134 OFFCURVE",
"91 168 OFFCURVE",
"91 168 CURVE SMOOTH"
);
},
{
closed = 1;
nodes = (
"16 116 OFFCURVE",
"16 100 OFFCURVE",
"16 100 CURVE SMOOTH",
"16 100 OFFCURVE",
"49 100 OFFCURVE",
"49 100 CURVE SMOOTH",
"49 100 OFFCURVE",
"49 0 OFFCURVE",
"49 0 CURVE SMOOTH",
"49 0 OFFCURVE",
"101 0 OFFCURVE",
"101 0 CURVE SMOOTH",
"101 0 OFFCURVE",
"101 16 OFFCURVE",
"101 16 CURVE SMOOTH",
"68 16 LINE SMOOTH",
"68 16 OFFCURVE",
"68 116 OFFCURVE",
"68 116 CURVE SMOOTH",
"68 116 OFFCURVE",
"16 116 OFFCURVE",
"16 116 CURVE SMOOTH"
);
}
);
width = 128;
}
);
note = iacute;
unicode = 00ED;
},
{
glyphname = icircumflex;
layers = (
{
hints = (
{
horizontal = 1;
place = "{0, 16}";
type = Stem;
},
{
horizontal = 1;
place = "{100, 16}";
type = Stem;
},
{
horizontal = 1;
place = "{145, 26}";
type = Stem;
},
{
place = "{46, 25}";
type = Stem;
},
{
place = "{49, 19}";
type = Stem;
}
);
layerId = "0835C59E-AAFD-4756-A43C-35DA64A2CD7E";
paths = (
{
closed = 1;
nodes = (
"56 167 OFFCURVE",
"24 133 OFFCURVE",
"24 133 CURVE SMOOTH",
"24 133 OFFCURVE",
"41 133 OFFCURVE",
"41 133 CURVE",
"64 153 LINE",
"88 133 LINE",
"88 133 OFFCURVE",
"105 133 OFFCURVE",
"105 133 CURVE SMOOTH",
"105 133 OFFCURVE",
"73 167 OFFCURVE",
"73 167 CURVE SMOOTH",
"73 167 OFFCURVE",
"56 167 OFFCURVE",
"56 167 CURVE SMOOTH"
);
},
{
closed = 1;
nodes = (
"16 116 OFFCURVE",
"16 100 OFFCURVE",
"16 100 CURVE SMOOTH",
"16 100 OFFCURVE",
"49 100 OFFCURVE",
"49 100 CURVE SMOOTH",
"49 100 OFFCURVE",
"49 0 OFFCURVE",
"49 0 CURVE SMOOTH",
"49 0 OFFCURVE",
"101 0 OFFCURVE",
"101 0 CURVE SMOOTH",
"101 0 OFFCURVE",
"101 16 OFFCURVE",
"101 16 CURVE SMOOTH",
"68 16 LINE SMOOTH",
"68 16 OFFCURVE",
"68 116 OFFCURVE",
"68 116 CURVE SMOOTH",
"68 116 OFFCURVE",
"16 116 OFFCURVE",
"16 116 CURVE SMOOTH"
);
}
);
width = 128;
}
);
note = icircumflex;
unicode = 00EE;
},
{
glyphname = idieresis;
layers = (
{
hints = (
{
horizontal = 1;
place = "{0, 16}";
type = Stem;
},
{
horizontal = 1;
place = "{100, 16}";
type = Stem;
},
{
horizontal = 1;
place = "{145, 26}";
type = Stem;
},
{
horizontal = 1;
place = "{188, 22}";
type = Stem;
},
{
place = "{21, 22}";
type = Stem;
},
{
place = "{46, 25}";
type = Stem;
},
{
place = "{49, 19}";
type = Stem;
},
{
place = "{86, 21}";
type = Stem;
}
);
layerId = "0835C59E-AAFD-4756-A43C-35DA64A2CD7E";
paths = (
{
closed = 1;
nodes = (
"49 136 OFFCURVE",
"53 140 OFFCURVE",
"53 140 CURVE",
"53 153 LINE",
"53 153 OFFCURVE",
"49 158 OFFCURVE",
"49 158 CURVE SMOOTH",
"49 158 OFFCURVE",
"35 158 OFFCURVE",
"35 158 CURVE SMOOTH",
"35 158 OFFCURVE",
"31 154 OFFCURVE",
"31 154 CURVE SMOOTH",
"31 154 OFFCURVE",
"31 141 OFFCURVE",
"31 141 CURVE SMOOTH",
"31 141 OFFCURVE",
"36 136 OFFCURVE",
"36 136 CURVE SMOOTH",
"36 136 OFFCURVE",
"49 136 OFFCURVE",
"49 136 CURVE SMOOTH"
);
},
{
closed = 1;
nodes = (
"80 136 OFFCURVE",
"93 136 OFFCURVE",
"93 136 CURVE SMOOTH",
"93 136 OFFCURVE",
"97 140 OFFCURVE",
"97 140 CURVE",
"97 153 LINE",
"97 153 OFFCURVE",
"93 158 OFFCURVE",
"93 158 CURVE SMOOTH",
"93 158 OFFCURVE",
"79 158 OFFCURVE",
"79 158 CURVE SMOOTH",
"79 158 OFFCURVE",
"76 154 OFFCURVE",
"76 154 CURVE SMOOTH",
"76 154 OFFCURVE",
"76 140 OFFCURVE",
"76 140 CURVE SMOOTH",
"76 140 OFFCURVE",
"80 136 OFFCURVE",
"80 136 CURVE SMOOTH"
);
},
{
closed = 1;
nodes = (
"16 116 OFFCURVE",
"16 100 OFFCURVE",
"16 100 CURVE SMOOTH",
"16 100 OFFCURVE",
"49 100 OFFCURVE",
"49 100 CURVE SMOOTH",
"49 100 OFFCURVE",
"49 0 OFFCURVE",
"49 0 CURVE SMOOTH",
"49 0 OFFCURVE",
"101 0 OFFCURVE",
"101 0 CURVE SMOOTH",
"101 0 OFFCURVE",
"101 16 OFFCURVE",
"101 16 CURVE SMOOTH",
"68 16 LINE SMOOTH",
"68 16 OFFCURVE",
"68 116 OFFCURVE",
"68 116 CURVE SMOOTH",
"68 116 OFFCURVE",
"16 116 OFFCURVE",
"16 116 CURVE SMOOTH"
);
}
);
width = 128;
}
);
note = idieresis;
unicode = 00EF;
},
{
glyphname = igrave;
layers = (
{
hints = (
{
horizontal = 1;
place = "{0, 16}";
type = Stem;
},
{
horizontal = 1;
place = "{100, 16}";
type = Stem;
},
{
horizontal = 1;
place = "{134, 34}";
type = Stem;
},
{
place = "{46, 25}";
type = Stem;
},
{
place = "{37, 54}";
type = Stem;
},
{
horizontal = 1;
place = "{145, 26}";
type = Stem;
},
{
place = "{49, 19}";
type = Stem;
}
);
layerId = "0835C59E-AAFD-4756-A43C-35DA64A2CD7E";
paths = (
{
closed = 1;
nodes = (
"37 168 LINE SMOOTH",
"37 168 OFFCURVE",
"73 134 OFFCURVE",
"73 134 CURVE SMOOTH",
"73 134 OFFCURVE",
"91 134 OFFCURVE",
"91 134 CURVE SMOOTH",
"91 134 OFFCURVE",
"60 168 OFFCURVE",
"60 168 CURVE SMOOTH"
);
},
{
closed = 1;
nodes = (
"16 116 OFFCURVE",
"16 100 OFFCURVE",
"16 100 CURVE SMOOTH",
"16 100 OFFCURVE",
"49 100 OFFCURVE",
"49 100 CURVE SMOOTH",
"49 100 OFFCURVE",
"49 0 OFFCURVE",
"49 0 CURVE SMOOTH",
"49 0 OFFCURVE",
"101 0 OFFCURVE",
"101 0 CURVE SMOOTH",
"101 0 OFFCURVE",
"101 16 OFFCURVE",
"101 16 CURVE SMOOTH",
"68 16 LINE SMOOTH",
"68 16 OFFCURVE",
"68 116 OFFCURVE",
"68 116 CURVE SMOOTH",
"68 116 OFFCURVE",
"16 116 OFFCURVE",
"16 116 CURVE SMOOTH"
);
}
);
width = 128;
}
);
note = igrave;
unicode = 00EC;
},
{
glyphname = j;
layers = (
{
hints = (
{
horizontal = 1;
place = "{-49, 17}";
type = Stem;
},
{
horizontal = 1;
place = "{100, 16}";
type = Stem;
},
{
horizontal = 1;
place = "{145, 26}";
type = Stem;
},
{
place = "{73, 26}";
type = Stem;
},
{
place = "{76, 20}";
type = Stem;
}
);
layerId = "0835C59E-AAFD-4756-A43C-35DA64A2CD7E";
paths = (
{
closed = 1;
nodes = (
"73 151 OFFCURVE",
"79 145 OFFCURVE",
"86 145 CURVE SMOOTH",
"89 145 OFFCURVE",
"92 147 OFFCURVE",
"95 150 CURVE",
"98 152 OFFCURVE",
"99 155 OFFCURVE",
"99 158 CURVE SMOOTH",
"99 162 OFFCURVE",
"98 165 OFFCURVE",
"95 167 CURVE",
"92 170 OFFCURVE",
"89 171 OFFCURVE",
"86 171 CURVE SMOOTH",
"78 171 OFFCURVE",
"73 166 OFFCURVE",
"73 158 CURVE SMOOTH"
);
},
{
closed = 1;
nodes = (
"27 -48 OFFCURVE",
"36 -49 OFFCURVE",
"45 -49 CURVE SMOOTH",
"86 -49 OFFCURVE",
"96 -23 OFFCURVE",
"96 14 CURVE",
"96 14 OFFCURVE",
"96 116 OFFCURVE",
"96 116 CURVE SMOOTH",
"96 116 OFFCURVE",
"27 116 OFFCURVE",
"27 116 CURVE SMOOTH",
"27 116 OFFCURVE",
"27 100 OFFCURVE",
"27 100 CURVE SMOOTH",
"27 100 OFFCURVE",
"76 100 OFFCURVE",
"76 100 CURVE SMOOTH",
"76 100 OFFCURVE",
"76 10 OFFCURVE",
"76 10 CURVE",
"76 -7 OFFCURVE",
"74 -18 OFFCURVE",
"69 -23 CURVE",
"64 -29 OFFCURVE",
"56 -32 OFFCURVE",
"45 -32 CURVE SMOOTH",
"44 -32 OFFCURVE",
"35 -30 OFFCURVE",
"18 -27 CURVE",
"18 -27 OFFCURVE",
"18 -46 OFFCURVE",
"18 -46 CURVE"
);
}
);
width = 128;
}
);
note = j;
unicode = 006A;
},
{
glyphname = jcircumflex;
layers = (
{
hints = (
{
horizontal = 1;
place = "{-49, 17}";
type = Stem;
},
{
horizontal = 1;
place = "{100, 16}";
type = Stem;
},
{
horizontal = 1;
place = "{145, 26}";
type = Stem;
},
{
place = "{73, 26}";
type = Stem;
},
{
place = "{76, 20}";
type = Stem;
}
);
layerId = "0835C59E-AAFD-4756-A43C-35DA64A2CD7E";
paths = (
{
closed = 1;
nodes = (
"54 162 OFFCURVE",
"22 128 OFFCURVE",
"22 128 CURVE SMOOTH",
"22 128 OFFCURVE",
"39 128 OFFCURVE",
"39 128 CURVE",
"62 148 LINE",
"86 128 LINE",
"86 128 OFFCURVE",
"103 128 OFFCURVE",
"103 128 CURVE SMOOTH",
"103 128 OFFCURVE",
"71 162 OFFCURVE",
"71 162 CURVE SMOOTH",
"71 162 OFFCURVE",
"54 162 OFFCURVE",
"54 162 CURVE SMOOTH"
);
},
{
closed = 1;
nodes = (
"27 -48 OFFCURVE",
"36 -49 OFFCURVE",
"45 -49 CURVE SMOOTH",
"86 -49 OFFCURVE",
"96 -23 OFFCURVE",
"96 14 CURVE",
"96 14 OFFCURVE",
"96 116 OFFCURVE",
"96 116 CURVE SMOOTH",
"96 116 OFFCURVE",
"27 116 OFFCURVE",
"27 116 CURVE SMOOTH",
"27 116 OFFCURVE",
"27 100 OFFCURVE",
"27 100 CURVE SMOOTH",
"27 100 OFFCURVE",
"76 100 OFFCURVE",
"76 100 CURVE SMOOTH",
"76 100 OFFCURVE",
"76 10 OFFCURVE",
"76 10 CURVE",
"76 -7 OFFCURVE",
"74 -18 OFFCURVE",
"69 -23 CURVE",
"64 -29 OFFCURVE",
"56 -32 OFFCURVE",
"45 -32 CURVE SMOOTH",
"44 -32 OFFCURVE",
"35 -30 OFFCURVE",
"18 -27 CURVE",
"18 -27 OFFCURVE",
"18 -46 OFFCURVE",
"18 -46 CURVE"
);
}
);
width = 128;
}
);
note = jcircumflex;
unicode = 0135;
},
{
glyphname = k;
layers = (
{
hints = (
{
horizontal = 1;
place = "{0, 21}";
target = up;
type = BottomGhost;
},
{
horizontal = 1;
place = "{116, -20}";
target = down;
type = TopGhost;
},
{
horizontal = 1;
place = "{168, -20}";
target = down;
type = TopGhost;
},
{
place = "{21, 20}";
type = Stem;
}
);
layerId = "0835C59E-AAFD-4756-A43C-35DA64A2CD7E";
paths = (
{
closed = 1;
nodes = (
"41 0 OFFCURVE",
"41 62 OFFCURVE",
"41 62 CURVE",
"97 0 LINE",
"97 0 OFFCURVE",
"124 0 OFFCURVE",
"124 0 CURVE SMOOTH",
"124 0 OFFCURVE",
"67 62 OFFCURVE",
"67 62 CURVE SMOOTH",
"67 62 OFFCURVE",
"122 116 OFFCURVE",
"122 116 CURVE SMOOTH",
"122 116 OFFCURVE",
"97 116 OFFCURVE",
"97 116 CURVE SMOOTH",
"97 116 OFFCURVE",
"41 62 OFFCURVE",
"41 62 CURVE SMOOTH",
"41 62 OFFCURVE",
"41 168 OFFCURVE",
"41 168 CURVE SMOOTH",
"41 168 OFFCURVE",
"21 168 OFFCURVE",
"21 168 CURVE SMOOTH",
"21 168 OFFCURVE",
"21 0 OFFCURVE",
"21 0 CURVE SMOOTH",
"21 0 OFFCURVE",
"41 0 OFFCURVE",
"41 0 CURVE SMOOTH"
);
}
);
width = 128;
}
);
note = k;
unicode = 006B;
},
{
glyphname = l;
layers = (
{
hints = (
{
horizontal = 1;
place = "{0, 16}";
type = Stem;
},
{
horizontal = 1;
place = "{152, 16}";
type = Stem;
},
{
place = "{47, 20}";
type = Stem;
}
);
layerId = "0835C59E-AAFD-4756-A43C-35DA64A2CD7E";
paths = (
{
closed = 1;
nodes = (
"13 168 OFFCURVE",
"13 152 OFFCURVE",
"13 152 CURVE SMOOTH",
"13 152 OFFCURVE",
"47 152 OFFCURVE",
"47 152 CURVE SMOOTH",
"47 152 OFFCURVE",
"47 0 OFFCURVE",
"47 0 CURVE SMOOTH",
"47 0 OFFCURVE",
"103 0 OFFCURVE",
"103 0 CURVE SMOOTH",
"103 0 OFFCURVE",
"103 16 OFFCURVE",
"103 16 CURVE SMOOTH",
"67 16 LINE SMOOTH",
"67 16 OFFCURVE",
"67 168 OFFCURVE",
"67 168 CURVE SMOOTH",
"67 168 OFFCURVE",
"13 168 OFFCURVE",
"13 168 CURVE SMOOTH"
);
}
);
width = 128;
}
);
note = l;
unicode = 006C;
},
{
glyphname = lacute;
layers = (
{
hints = (
{
horizontal = 1;
place = "{0, 16}";
type = Stem;
},
{
horizontal = 1;
place = "{152, 16}";
type = Stem;
},
{
horizontal = 1;
place = "{242, 18}";
type = Stem;
},
{
place = "{47, 20}";
type = Stem;
},
{
place = "{100, 64}";
type = Stem;
},
{
place = "{151, 11}";
type = Stem;
}
);
layerId = "0835C59E-AAFD-4756-A43C-35DA64A2CD7E";
paths = (
{
closed = 1;
nodes = (
"68 214 LINE SMOOTH",
"68 214 OFFCURVE",
"37 180 OFFCURVE",
"37 180 CURVE SMOOTH",
"37 180 OFFCURVE",
"55 180 OFFCURVE",
"55 180 CURVE SMOOTH",
"55 180 OFFCURVE",
"91 214 OFFCURVE",
"91 214 CURVE SMOOTH"
);
},
{
closed = 1;
nodes = (
"13 168 OFFCURVE",
"13 152 OFFCURVE",
"13 152 CURVE SMOOTH",
"13 152 OFFCURVE",
"47 152 OFFCURVE",
"47 152 CURVE SMOOTH",
"47 152 OFFCURVE",
"47 0 OFFCURVE",
"47 0 CURVE SMOOTH",
"47 0 OFFCURVE",
"103 0 OFFCURVE",
"103 0 CURVE SMOOTH",
"103 0 OFFCURVE",
"103 16 OFFCURVE",
"103 16 CURVE SMOOTH",
"67 16 LINE SMOOTH",
"67 16 OFFCURVE",
"67 168 OFFCURVE",
"67 168 CURVE SMOOTH",
"67 168 OFFCURVE",
"13 168 OFFCURVE",
"13 168 CURVE SMOOTH"
);
}
);
width = 128;
}
);
note = lacute;
unicode = 013A;
},
{
glyphname = lslash;
layers = (
{
hints = (
{
horizontal = 1;
place = "{57, 17}";
type = Stem;
},
{
place = "{24, 80}";
type = Stem;
}
);
layerId = "0835C59E-AAFD-4756-A43C-35DA64A2CD7E";
paths = (
{
closed = 1;
nodes = (
"92 79 OFFCURVE",
"80 91 OFFCURVE",
"80 91 CURVE",
"68 79 LINE",
"68 102 OFFCURVE",
"68 116 OFFCURVE",
"68 116 CURVE SMOOTH",
"68 116 OFFCURVE",
"16 116 OFFCURVE",
"16 116 CURVE SMOOTH",
"16 116 OFFCURVE",
"16 100 OFFCURVE",
"16 100 CURVE SMOOTH",
"16 100 OFFCURVE",
"49 100 OFFCURVE",
"49 100 CURVE SMOOTH",
"49 100 OFFCURVE",
"49 84 OFFCURVE",
"49 64 CURVE",
"24 34 LINE",
"24 34 OFFCURVE",
"36 22 OFFCURVE",
"36 22 CURVE SMOOTH",
"36 22 OFFCURVE",
"39 25 OFFCURVE",
"44 30 CURVE",
"49 13 OFFCURVE",
"49 0 OFFCURVE",
"49 0 CURVE SMOOTH",
"49 0 OFFCURVE",
"101 0 OFFCURVE",
"101 0 CURVE SMOOTH",
"101 0 OFFCURVE",
"101 16 OFFCURVE",
"101 16 CURVE SMOOTH",
"68 16 LINE SMOOTH",
"68 16 OFFCURVE",
"68 31 OFFCURVE",
"68 49 CURVE",
"82 68 OFFCURVE",
"92 79 OFFCURVE",
"92 79 CURVE SMOOTH"
);
}
);
width = 128;
}
);
note = lslash;
unicode = 0142;
},
{
glyphname = m;
layers = (
{
hints = (
{
horizontal = 1;
place = "{0, 21}";
target = up;
type = BottomGhost;
},
{
horizontal = 1;
place = "{100, 16}";
type = Stem;
},
{
place = "{7, 17}";
type = Stem;
},
{
place = "{56, 16}";
type = Stem;
},
{
place = "{104, 17}";
type = Stem;
},
{
horizontal = 1;
place = "{100, 20}";
type = Stem;
}
);
layerId = "0835C59E-AAFD-4756-A43C-35DA64A2CD7E";
paths = (
{
closed = 1;
nodes = (
"7 0 OFFCURVE",
"24 0 OFFCURVE",
"24 0 CURVE SMOOTH",
"24 0 OFFCURVE",
"24 67 OFFCURVE",
"24 67 CURVE",
"29 80 OFFCURVE",
"34 89 OFFCURVE",
"39 95 CURVE",
"42 98 OFFCURVE",
"45 100 OFFCURVE",
"47 100 CURVE SMOOTH",
"51 100 OFFCURVE",
"53 99 OFFCURVE",
"54 96 CURVE",
"55 87 OFFCURVE",
"56 81 OFFCURVE",
"56 79 CURVE",
"56 79 OFFCURVE",
"56 0 OFFCURVE",
"56 0 CURVE SMOOTH",
"56 0 OFFCURVE",
"72 0 OFFCURVE",
"72 0 CURVE SMOOTH",
"72 0 OFFCURVE",
"72 64 OFFCURVE",
"72 64 CURVE",
"77 79 OFFCURVE",
"82 89 OFFCURVE",
"87 94 CURVE",
"90 98 OFFCURVE",
"93 100 OFFCURVE",
"96 100 CURVE SMOOTH",
"100 100 OFFCURVE",
"102 98 OFFCURVE",
"103 94 CURVE",
"104 93 OFFCURVE",
"104 88 OFFCURVE",
"104 79 CURVE",
"104 79 OFFCURVE",
"104 0 OFFCURVE",
"104 0 CURVE SMOOTH",
"104 0 OFFCURVE",
"121 0 OFFCURVE",
"121 0 CURVE SMOOTH",
"121 0 OFFCURVE",
"121 88 OFFCURVE",
"121 88 CURVE",
"121 99 OFFCURVE",
"119 108 OFFCURVE",
"116 113 CURVE",
"112 118 OFFCURVE",
"107 120 OFFCURVE",
"102 120 CURVE SMOOTH",
"97 120 OFFCURVE",
"92 118 OFFCURVE",
"87 113 CURVE",
"80 107 OFFCURVE",
"75 99 OFFCURVE",
"72 88 CURVE",
"72 88 OFFCURVE",
"72 94 OFFCURVE",
"72 94 CURVE",
"72 102 OFFCURVE",
"70 109 OFFCURVE",
"67 114 CURVE",
"63 118 OFFCURVE",
"58 120 OFFCURVE",
"53 120 CURVE SMOOTH",
"43 120 OFFCURVE",
"33 110 OFFCURVE",
"24 90 CURVE",
"24 90 OFFCURVE",
"24 116 OFFCURVE",
"24 116 CURVE SMOOTH",
"24 116 OFFCURVE",
"7 116 OFFCURVE",
"7 116 CURVE SMOOTH",
"7 116 OFFCURVE",
"7 0 OFFCURVE",
"7 0 CURVE SMOOTH"
);
}
);
width = 128;
}
);
note = m;
unicode = 006D;
},
{
glyphname = n;
layers = (
{
hints = (
{
horizontal = 1;
place = "{0, 21}";
target = up;
type = BottomGhost;
},
{
horizontal = 1;
place = "{91, 25}";
type = Stem;
},
{
place = "{16, 20}";
type = Stem;
},
{
place = "{94, 19}";
type = Stem;
},
{
horizontal = 1;
place = "{102, 18}";
type = Stem;
}
);
layerId = "0835C59E-AAFD-4756-A43C-35DA64A2CD7E";
paths = (
{
closed = 1;
nodes = (
"16 0 OFFCURVE",
"36 0 OFFCURVE",
"36 0 CURVE SMOOTH",
"36 0 OFFCURVE",
"36 68 OFFCURVE",
"36 68 CURVE",
"47 91 OFFCURVE",
"60 102 OFFCURVE",
"77 102 CURVE SMOOTH",
"82 102 OFFCURVE",
"86 100 OFFCURVE",
"89 96 CURVE",
"92 91 OFFCURVE",
"94 81 OFFCURVE",
"94 67 CURVE",
"94 67 OFFCURVE",
"94 0 OFFCURVE",
"94 0 CURVE SMOOTH",
"94 0 OFFCURVE",
"113 0 OFFCURVE",
"113 0 CURVE SMOOTH",
"113 0 OFFCURVE",
"113 65 OFFCURVE",
"113 65 CURVE",
"113 102 OFFCURVE",
"102 120 OFFCURVE",
"79 120 CURVE SMOOTH",
"62 120 OFFCURVE",
"47 110 OFFCURVE",
"36 91 CURVE",
"36 91 OFFCURVE",
"36 116 OFFCURVE",
"36 116 CURVE SMOOTH",
"36 116 OFFCURVE",
"16 116 OFFCURVE",
"16 116 CURVE SMOOTH",
"16 116 OFFCURVE",
"16 0 OFFCURVE",
"16 0 CURVE SMOOTH"
);
}
);
width = 128;
}
);
note = n;
unicode = 006E;
},
{
glyphname = nacute;
layers = (
{
hints = (
{
horizontal = 1;
place = "{0, 21}";
target = up;
type = BottomGhost;
},
{
horizontal = 1;
place = "{91, 25}";
type = Stem;
},
{
horizontal = 1;
place = "{196, 18}";
type = Stem;
},
{
place = "{16, 20}";
type = Stem;
},
{
place = "{100, 64}";
type = Stem;
},
{
horizontal = 1;
place = "{102, 18}";
type = Stem;
},
{
place = "{94, 19}";
type = Stem;
},
{
place = "{151, 11}";
type = Stem;
}
);
layerId = "0835C59E-AAFD-4756-A43C-35DA64A2CD7E";
paths = (
{
closed = 1;
nodes = (
"68 168 LINE SMOOTH",
"68 168 OFFCURVE",
"37 134 OFFCURVE",
"37 134 CURVE SMOOTH",
"37 134 OFFCURVE",
"55 134 OFFCURVE",
"55 134 CURVE SMOOTH",
"55 134 OFFCURVE",
"91 168 OFFCURVE",
"91 168 CURVE SMOOTH"
);
},
{
closed = 1;
nodes = (
"16 0 OFFCURVE",
"36 0 OFFCURVE",
"36 0 CURVE SMOOTH",
"36 0 OFFCURVE",
"36 68 OFFCURVE",
"36 68 CURVE",
"47 91 OFFCURVE",
"60 102 OFFCURVE",
"77 102 CURVE SMOOTH",
"82 102 OFFCURVE",
"86 100 OFFCURVE",
"89 96 CURVE",
"92 91 OFFCURVE",
"94 81 OFFCURVE",
"94 67 CURVE",
"94 67 OFFCURVE",
"94 0 OFFCURVE",
"94 0 CURVE SMOOTH",
"94 0 OFFCURVE",
"113 0 OFFCURVE",
"113 0 CURVE SMOOTH",
"113 0 OFFCURVE",
"113 65 OFFCURVE",
"113 65 CURVE",
"113 102 OFFCURVE",
"102 120 OFFCURVE",
"79 120 CURVE SMOOTH",
"62 120 OFFCURVE",
"47 110 OFFCURVE",
"36 91 CURVE",
"36 91 OFFCURVE",
"36 116 OFFCURVE",
"36 116 CURVE SMOOTH",
"36 116 OFFCURVE",
"16 116 OFFCURVE",
"16 116 CURVE SMOOTH",
"16 116 OFFCURVE",
"16 0 OFFCURVE",
"16 0 CURVE SMOOTH"
);
}
);
width = 128;
}
);
note = nacute;
unicode = 0144;
},
{
glyphname = ncaron;
layers = (
{
hints = (
{
horizontal = 1;
place = "{0, 21}";
target = up;
type = BottomGhost;
},
{
horizontal = 1;
place = "{91, 25}";
type = Stem;
},
{
place = "{16, 20}";
type = Stem;
},
{
place = "{94, 19}";
type = Stem;
},
{
horizontal = 1;
place = "{102, 18}";
type = Stem;
}
);
layerId = "0835C59E-AAFD-4756-A43C-35DA64A2CD7E";
paths = (
{
closed = 1;
nodes = (
"56 128 OFFCURVE",
"73 128 OFFCURVE",
"73 128 CURVE SMOOTH",
"73 128 OFFCURVE",
"105 162 OFFCURVE",
"105 162 CURVE SMOOTH",
"88 162 LINE",
"64 142 LINE",
"41 162 LINE",
"41 162 OFFCURVE",
"24 162 OFFCURVE",
"24 162 CURVE SMOOTH",
"24 162 OFFCURVE",
"56 128 OFFCURVE",
"56 128 CURVE SMOOTH"
);
},
{
closed = 1;
nodes = (
"16 0 OFFCURVE",
"36 0 OFFCURVE",
"36 0 CURVE SMOOTH",
"36 0 OFFCURVE",
"36 68 OFFCURVE",
"36 68 CURVE",
"47 91 OFFCURVE",
"60 102 OFFCURVE",
"77 102 CURVE SMOOTH",
"82 102 OFFCURVE",
"86 100 OFFCURVE",
"89 96 CURVE",
"92 91 OFFCURVE",
"94 81 OFFCURVE",
"94 67 CURVE",
"94 67 OFFCURVE",
"94 0 OFFCURVE",
"94 0 CURVE SMOOTH",
"94 0 OFFCURVE",
"113 0 OFFCURVE",
"113 0 CURVE SMOOTH",
"113 0 OFFCURVE",
"113 65 OFFCURVE",
"113 65 CURVE",
"113 102 OFFCURVE",
"102 120 OFFCURVE",
"79 120 CURVE SMOOTH",
"62 120 OFFCURVE",
"47 110 OFFCURVE",
"36 91 CURVE",
"36 91 OFFCURVE",
"36 116 OFFCURVE",
"36 116 CURVE SMOOTH",
"36 116 OFFCURVE",
"16 116 OFFCURVE",
"16 116 CURVE SMOOTH",
"16 116 OFFCURVE",
"16 0 OFFCURVE",
"16 0 CURVE SMOOTH"
);
}
);
width = 128;
}
);
note = ncaron;
unicode = 0148;
},
{
glyphname = ntilde;
layers = (
{
hints = (
{
horizontal = 1;
place = "{0, 21}";
target = up;
type = BottomGhost;
},
{
horizontal = 1;
place = "{91, 25}";
type = Stem;
},
{
place = "{16, 20}";
type = Stem;
},
{
place = "{94, 19}";
type = Stem;
},
{
horizontal = 1;
place = "{102, 18}";
type = Stem;
}
);
layerId = "0835C59E-AAFD-4756-A43C-35DA64A2CD7E";
paths = (
{
closed = 1;
nodes = (
"55 150 OFFCURVE",
"66 133 OFFCURVE",
"77 133 CURVE SMOOTH",
"91 133 OFFCURVE",
"104 146 OFFCURVE",
"104 162 CURVE",
"91 162 LINE",
"90 158 OFFCURVE",
"89 148 OFFCURVE",
"77 148 CURVE SMOOTH",
"68 148 OFFCURVE",
"64 162 OFFCURVE",
"47 162 CURVE SMOOTH",
"33 162 OFFCURVE",
"25 148 OFFCURVE",
"25 132 CURVE",
"25 132 OFFCURVE",
"38 132 OFFCURVE",
"38 132 CURVE",
"39 138 OFFCURVE",
"40 144 OFFCURVE",
"47 147 CURVE"
);
},
{
closed = 1;
nodes = (
"16 0 OFFCURVE",
"36 0 OFFCURVE",
"36 0 CURVE SMOOTH",
"36 0 OFFCURVE",
"36 68 OFFCURVE",
"36 68 CURVE",
"47 91 OFFCURVE",
"60 102 OFFCURVE",
"77 102 CURVE SMOOTH",
"82 102 OFFCURVE",
"86 100 OFFCURVE",
"89 96 CURVE",
"92 91 OFFCURVE",
"94 81 OFFCURVE",
"94 67 CURVE",
"94 67 OFFCURVE",
"94 0 OFFCURVE",
"94 0 CURVE SMOOTH",
"94 0 OFFCURVE",
"113 0 OFFCURVE",
"113 0 CURVE SMOOTH",
"113 0 OFFCURVE",
"113 65 OFFCURVE",
"113 65 CURVE",
"113 102 OFFCURVE",
"102 120 OFFCURVE",
"79 120 CURVE SMOOTH",
"62 120 OFFCURVE",
"47 110 OFFCURVE",
"36 91 CURVE",
"36 91 OFFCURVE",
"36 116 OFFCURVE",
"36 116 CURVE SMOOTH",
"36 116 OFFCURVE",
"16 116 OFFCURVE",
"16 116 CURVE SMOOTH",
"16 116 OFFCURVE",
"16 0 OFFCURVE",
"16 0 CURVE SMOOTH"
);
}
);
width = 128;
}
);
note = ntilde;
unicode = 00F1;
},
{
glyphname = o;
layers = (
{
hints = (
{
horizontal = 1;
place = "{-3, 16}";
type = Stem;
},
{
horizontal = 1;
place = "{103, 17}";
type = Stem;
},
{
place = "{9, 21}";
type = Stem;
},
{
place = "{98, 21}";
type = Stem;
}
);
layerId = "0835C59E-AAFD-4756-A43C-35DA64A2CD7E";
paths = (
{
closed = 1;
nodes = (
"99 -3 OFFCURVE",
"119 25 OFFCURVE",
"119 58 CURVE SMOOTH",
"119 92 OFFCURVE",
"100 120 OFFCURVE",
"64 120 CURVE SMOOTH",
"29 120 OFFCURVE",
"9 91 OFFCURVE",
"9 58 CURVE SMOOTH",
"9 25 OFFCURVE",
"29 -3 OFFCURVE",
"64 -3 CURVE SMOOTH"
);
},
{
closed = 1;
nodes = (
"54 13 OFFCURVE",
"46 17 OFFCURVE",
"40 25 CURVE",
"33 32 OFFCURVE",
"30 43 OFFCURVE",
"30 58 CURVE SMOOTH",
"30 74 OFFCURVE",
"33 85 OFFCURVE",
"40 92 CURVE",
"46 99 OFFCURVE",
"54 103 OFFCURVE",
"64 103 CURVE SMOOTH",
"73 103 OFFCURVE",
"82 99 OFFCURVE",
"89 92 CURVE",
"95 85 OFFCURVE",
"98 73 OFFCURVE",
"98 58 CURVE SMOOTH",
"98 36 OFFCURVE",
"89 13 OFFCURVE",
"64 13 CURVE SMOOTH"
);
}
);
width = 128;
}
);
note = o;
unicode = 006F;
},
{
glyphname = oacute;
layers = (
{
hints = (
{
horizontal = 1;
place = "{-3, 16}";
type = Stem;
},
{
horizontal = 1;
place = "{103, 17}";
type = Stem;
},
{
horizontal = 1;
place = "{196, 18}";
type = Stem;
},
{
place = "{9, 21}";
type = Stem;
},
{
place = "{98, 21}";
type = Stem;
},
{
place = "{151, 11}";
type = Stem;
},
{
place = "{100, 64}";
type = Stem;
}
);
layerId = "0835C59E-AAFD-4756-A43C-35DA64A2CD7E";
paths = (
{
closed = 1;
nodes = (
"68 168 LINE SMOOTH",
"68 168 OFFCURVE",
"37 134 OFFCURVE",
"37 134 CURVE SMOOTH",
"37 134 OFFCURVE",
"55 134 OFFCURVE",
"55 134 CURVE SMOOTH",
"55 134 OFFCURVE",
"91 168 OFFCURVE",
"91 168 CURVE SMOOTH"
);
},
{
closed = 1;
nodes = (
"99 -3 OFFCURVE",
"119 25 OFFCURVE",
"119 58 CURVE SMOOTH",
"119 92 OFFCURVE",
"100 120 OFFCURVE",
"64 120 CURVE SMOOTH",
"29 120 OFFCURVE",
"9 91 OFFCURVE",
"9 58 CURVE SMOOTH",
"9 25 OFFCURVE",
"29 -3 OFFCURVE",
"64 -3 CURVE SMOOTH"
);
},
{
closed = 1;
nodes = (
"54 13 OFFCURVE",
"46 17 OFFCURVE",
"40 25 CURVE",
"33 32 OFFCURVE",
"30 43 OFFCURVE",
"30 58 CURVE SMOOTH",
"30 74 OFFCURVE",
"33 85 OFFCURVE",
"40 92 CURVE",
"46 99 OFFCURVE",
"54 103 OFFCURVE",
"64 103 CURVE SMOOTH",
"73 103 OFFCURVE",
"82 99 OFFCURVE",
"89 92 CURVE",
"95 85 OFFCURVE",
"98 73 OFFCURVE",
"98 58 CURVE SMOOTH",
"98 36 OFFCURVE",
"89 13 OFFCURVE",
"64 13 CURVE SMOOTH"
);
}
);
width = 128;
}
);
note = oacute;
unicode = 00F3;
},
{
glyphname = ocircumflex;
layers = (
{
hints = (
{
horizontal = 1;
place = "{-3, 16}";
type = Stem;
},
{
horizontal = 1;
place = "{103, 17}";
type = Stem;
},
{
place = "{9, 21}";
type = Stem;
},
{
place = "{98, 21}";
type = Stem;
}
);
layerId = "0835C59E-AAFD-4756-A43C-35DA64A2CD7E";
paths = (
{
closed = 1;
nodes = (
"56 165 OFFCURVE",
"24 131 OFFCURVE",
"24 131 CURVE SMOOTH",
"24 131 OFFCURVE",
"41 131 OFFCURVE",
"41 131 CURVE",
"64 151 LINE",
"88 131 LINE",
"88 131 OFFCURVE",
"105 131 OFFCURVE",
"105 131 CURVE SMOOTH",
"105 131 OFFCURVE",
"73 165 OFFCURVE",
"73 165 CURVE SMOOTH",
"73 165 OFFCURVE",
"56 165 OFFCURVE",
"56 165 CURVE SMOOTH"
);
},
{
closed = 1;
nodes = (
"99 -3 OFFCURVE",
"119 25 OFFCURVE",
"119 58 CURVE SMOOTH",
"119 92 OFFCURVE",
"100 120 OFFCURVE",
"64 120 CURVE SMOOTH",
"29 120 OFFCURVE",
"9 91 OFFCURVE",
"9 58 CURVE SMOOTH",
"9 25 OFFCURVE",
"29 -3 OFFCURVE",
"64 -3 CURVE SMOOTH"
);
},
{
closed = 1;
nodes = (
"54 13 OFFCURVE",
"46 17 OFFCURVE",
"40 25 CURVE",
"33 32 OFFCURVE",
"30 43 OFFCURVE",
"30 58 CURVE SMOOTH",
"30 74 OFFCURVE",
"33 85 OFFCURVE",
"40 92 CURVE",
"46 99 OFFCURVE",
"54 103 OFFCURVE",
"64 103 CURVE SMOOTH",
"73 103 OFFCURVE",
"82 99 OFFCURVE",
"89 92 CURVE",
"95 85 OFFCURVE",
"98 73 OFFCURVE",
"98 58 CURVE SMOOTH",
"98 36 OFFCURVE",
"89 13 OFFCURVE",
"64 13 CURVE SMOOTH"
);
}
);
width = 128;
}
);
note = ocircumflex;
unicode = 00F4;
},
{
glyphname = odieresis;
layers = (
{
hints = (
{
horizontal = 1;
place = "{-3, 16}";
type = Stem;
},
{
horizontal = 1;
place = "{103, 17}";
type = Stem;
},
{
horizontal = 1;
place = "{188, 22}";
type = Stem;
},
{
place = "{21, 22}";
type = Stem;
},
{
place = "{86, 21}";
type = Stem;
},
{
place = "{98, 21}";
type = Stem;
},
{
place = "{9, 21}";
type = Stem;
}
);
layerId = "0835C59E-AAFD-4756-A43C-35DA64A2CD7E";
paths = (
{
closed = 1;
nodes = (
"49 136 OFFCURVE",
"53 140 OFFCURVE",
"53 140 CURVE",
"53 153 LINE",
"53 153 OFFCURVE",
"49 158 OFFCURVE",
"49 158 CURVE SMOOTH",
"49 158 OFFCURVE",
"35 158 OFFCURVE",
"35 158 CURVE SMOOTH",
"35 158 OFFCURVE",
"31 154 OFFCURVE",
"31 154 CURVE SMOOTH",
"31 154 OFFCURVE",
"31 141 OFFCURVE",
"31 141 CURVE SMOOTH",
"31 141 OFFCURVE",
"36 136 OFFCURVE",
"36 136 CURVE SMOOTH",
"36 136 OFFCURVE",
"49 136 OFFCURVE",
"49 136 CURVE SMOOTH"
);
},
{
closed = 1;
nodes = (
"80 136 OFFCURVE",
"93 136 OFFCURVE",
"93 136 CURVE SMOOTH",
"93 136 OFFCURVE",
"97 140 OFFCURVE",
"97 140 CURVE",
"97 153 LINE",
"97 153 OFFCURVE",
"93 158 OFFCURVE",
"93 158 CURVE SMOOTH",
"93 158 OFFCURVE",
"79 158 OFFCURVE",
"79 158 CURVE SMOOTH",
"79 158 OFFCURVE",
"76 154 OFFCURVE",
"76 154 CURVE SMOOTH",
"76 154 OFFCURVE",
"76 140 OFFCURVE",
"76 140 CURVE SMOOTH",
"76 140 OFFCURVE",
"80 136 OFFCURVE",
"80 136 CURVE SMOOTH"
);
},
{
closed = 1;
nodes = (
"99 -3 OFFCURVE",
"119 25 OFFCURVE",
"119 58 CURVE SMOOTH",
"119 92 OFFCURVE",
"100 120 OFFCURVE",
"64 120 CURVE SMOOTH",
"29 120 OFFCURVE",
"9 91 OFFCURVE",
"9 58 CURVE SMOOTH",
"9 25 OFFCURVE",
"29 -3 OFFCURVE",
"64 -3 CURVE SMOOTH"
);
},
{
closed = 1;
nodes = (
"54 13 OFFCURVE",
"46 17 OFFCURVE",
"40 25 CURVE",
"33 32 OFFCURVE",
"30 43 OFFCURVE",
"30 58 CURVE SMOOTH",
"30 74 OFFCURVE",
"33 85 OFFCURVE",
"40 92 CURVE",
"46 99 OFFCURVE",
"54 103 OFFCURVE",
"64 103 CURVE SMOOTH",
"73 103 OFFCURVE",
"82 99 OFFCURVE",
"89 92 CURVE",
"95 85 OFFCURVE",
"98 73 OFFCURVE",
"98 58 CURVE SMOOTH",
"98 36 OFFCURVE",
"89 13 OFFCURVE",
"64 13 CURVE SMOOTH"
);
}
);
width = 128;
}
);
note = odieresis;
unicode = 00F6;
},
{
glyphname = ograve;
layers = (
{
hints = (
{
horizontal = 1;
place = "{-3, 16}";
type = Stem;
},
{
horizontal = 1;
place = "{103, 17}";
type = Stem;
},
{
horizontal = 1;
place = "{134, 34}";
type = Stem;
},
{
place = "{9, 21}";
type = Stem;
},
{
place = "{37, 54}";
type = Stem;
},
{
place = "{98, 21}";
type = Stem;
}
);
layerId = "0835C59E-AAFD-4756-A43C-35DA64A2CD7E";
paths = (
{
closed = 1;
nodes = (
"37 168 LINE SMOOTH",
"37 168 OFFCURVE",
"73 134 OFFCURVE",
"73 134 CURVE SMOOTH",
"73 134 OFFCURVE",
"91 134 OFFCURVE",
"91 134 CURVE SMOOTH",
"91 134 OFFCURVE",
"60 168 OFFCURVE",
"60 168 CURVE SMOOTH"
);
},
{
closed = 1;
nodes = (
"99 -3 OFFCURVE",
"119 25 OFFCURVE",
"119 58 CURVE SMOOTH",
"119 92 OFFCURVE",
"100 120 OFFCURVE",
"64 120 CURVE SMOOTH",
"29 120 OFFCURVE",
"9 91 OFFCURVE",
"9 58 CURVE SMOOTH",
"9 25 OFFCURVE",
"29 -3 OFFCURVE",
"64 -3 CURVE SMOOTH"
);
},
{
closed = 1;
nodes = (
"54 13 OFFCURVE",
"46 17 OFFCURVE",
"40 25 CURVE",
"33 32 OFFCURVE",
"30 43 OFFCURVE",
"30 58 CURVE SMOOTH",
"30 74 OFFCURVE",
"33 85 OFFCURVE",
"40 92 CURVE",
"46 99 OFFCURVE",
"54 103 OFFCURVE",
"64 103 CURVE SMOOTH",
"73 103 OFFCURVE",
"82 99 OFFCURVE",
"89 92 CURVE",
"95 85 OFFCURVE",
"98 73 OFFCURVE",
"98 58 CURVE SMOOTH",
"98 36 OFFCURVE",
"89 13 OFFCURVE",
"64 13 CURVE SMOOTH"
);
}
);
width = 128;
}
);
note = ograve;
unicode = 00F2;
},
{
glyphname = omacron;
layers = (
{
hints = (
{
horizontal = 1;
place = "{-3, 16}";
type = Stem;
},
{
horizontal = 1;
place = "{103, 17}";
type = Stem;
},
{
place = "{9, 21}";
type = Stem;
},
{
place = "{98, 21}";
type = Stem;
}
);
layerId = "0835C59E-AAFD-4756-A43C-35DA64A2CD7E";
paths = (
{
closed = 1;
nodes = (
"37 131 LINE",
"91 131 LINE",
"91 145 LINE",
"37 145 LINE"
);
},
{
closed = 1;
nodes = (
"99 -3 OFFCURVE",
"119 25 OFFCURVE",
"119 58 CURVE SMOOTH",
"119 92 OFFCURVE",
"100 120 OFFCURVE",
"64 120 CURVE SMOOTH",
"29 120 OFFCURVE",
"9 91 OFFCURVE",
"9 58 CURVE SMOOTH",
"9 25 OFFCURVE",
"29 -3 OFFCURVE",
"64 -3 CURVE SMOOTH"
);
},
{
closed = 1;
nodes = (
"54 13 OFFCURVE",
"46 17 OFFCURVE",
"40 25 CURVE",
"33 32 OFFCURVE",
"30 43 OFFCURVE",
"30 58 CURVE SMOOTH",
"30 74 OFFCURVE",
"33 85 OFFCURVE",
"40 92 CURVE",
"46 99 OFFCURVE",
"54 103 OFFCURVE",
"64 103 CURVE SMOOTH",
"73 103 OFFCURVE",
"82 99 OFFCURVE",
"89 92 CURVE",
"95 85 OFFCURVE",
"98 73 OFFCURVE",
"98 58 CURVE SMOOTH",
"98 36 OFFCURVE",
"89 13 OFFCURVE",
"64 13 CURVE SMOOTH"
);
}
);
width = 128;
}
);
note = omacron;
unicode = 014D;
},
{
glyphname = otilde;
layers = (
{
hints = (
{
horizontal = 1;
place = "{-3, 16}";
type = Stem;
},
{
horizontal = 1;
place = "{103, 17}";
type = Stem;
},
{
place = "{9, 21}";
type = Stem;
},
{
place = "{98, 21}";
type = Stem;
}
);
layerId = "0835C59E-AAFD-4756-A43C-35DA64A2CD7E";
paths = (
{
closed = 1;
nodes = (
"55 148 OFFCURVE",
"66 131 OFFCURVE",
"77 131 CURVE SMOOTH",
"91 131 OFFCURVE",
"104 144 OFFCURVE",
"104 160 CURVE",
"91 160 LINE",
"90 156 OFFCURVE",
"89 146 OFFCURVE",
"77 146 CURVE SMOOTH",
"68 146 OFFCURVE",
"64 160 OFFCURVE",
"47 160 CURVE SMOOTH",
"33 160 OFFCURVE",
"25 146 OFFCURVE",
"25 130 CURVE",
"25 130 OFFCURVE",
"38 130 OFFCURVE",
"38 130 CURVE",
"39 136 OFFCURVE",
"40 142 OFFCURVE",
"47 145 CURVE"
);
},
{
closed = 1;
nodes = (
"99 -3 OFFCURVE",
"119 25 OFFCURVE",
"119 58 CURVE SMOOTH",
"119 92 OFFCURVE",
"100 120 OFFCURVE",
"64 120 CURVE SMOOTH",
"29 120 OFFCURVE",
"9 91 OFFCURVE",
"9 58 CURVE SMOOTH",
"9 25 OFFCURVE",
"29 -3 OFFCURVE",
"64 -3 CURVE SMOOTH"
);
},
{
closed = 1;
nodes = (
"54 13 OFFCURVE",
"46 17 OFFCURVE",
"40 25 CURVE",
"33 32 OFFCURVE",
"30 43 OFFCURVE",
"30 58 CURVE SMOOTH",
"30 74 OFFCURVE",
"33 85 OFFCURVE",
"40 92 CURVE",
"46 99 OFFCURVE",
"54 103 OFFCURVE",
"64 103 CURVE SMOOTH",
"73 103 OFFCURVE",
"82 99 OFFCURVE",
"89 92 CURVE",
"95 85 OFFCURVE",
"98 73 OFFCURVE",
"98 58 CURVE SMOOTH",
"98 36 OFFCURVE",
"89 13 OFFCURVE",
"64 13 CURVE SMOOTH"
);
}
);
width = 128;
}
);
note = otilde;
unicode = 00F5;
},
{
glyphname = p;
layers = (
{
hints = (
{
horizontal = 1;
place = "{-45, 21}";
target = up;
type = BottomGhost;
},
{
horizontal = 1;
place = "{-2, 17}";
type = Stem;
},
{
horizontal = 1;
place = "{116, -20}";
target = down;
type = TopGhost;
},
{
place = "{15, 19}";
type = Stem;
},
{
place = "{95, 21}";
type = Stem;
},
{
horizontal = 1;
place = "{101, 19}";
type = Stem;
}
);
layerId = "0835C59E-AAFD-4756-A43C-35DA64A2CD7E";
paths = (
{
closed = 1;
nodes = (
"34 -45 OFFCURVE",
"34 0 OFFCURVE",
"34 0 CURVE",
"42 0 OFFCURVE",
"47 0 OFFCURVE",
"49 -1 CURVE SMOOTH",
"51 -2 OFFCURVE",
"53 -2 OFFCURVE",
"56 -2 CURVE SMOOTH",
"96 -2 OFFCURVE",
"116 33 OFFCURVE",
"116 69 CURVE SMOOTH",
"116 85 OFFCURVE",
"112 98 OFFCURVE",
"105 107 CURVE",
"97 116 OFFCURVE",
"88 120 OFFCURVE",
"78 120 CURVE SMOOTH",
"61 120 OFFCURVE",
"46 110 OFFCURVE",
"34 90 CURVE",
"34 90 OFFCURVE",
"34 116 OFFCURVE",
"34 116 CURVE SMOOTH",
"34 116 OFFCURVE",
"15 116 OFFCURVE",
"15 116 CURVE SMOOTH",
"15 116 OFFCURVE",
"15 -45 OFFCURVE",
"15 -45 CURVE SMOOTH",
"15 -45 OFFCURVE",
"34 -45 OFFCURVE",
"34 -45 CURVE SMOOTH"
);
},
{
closed = 1;
nodes = (
"34 67 LINE",
"47 90 OFFCURVE",
"60 101 OFFCURVE",
"74 101 CURVE SMOOTH",
"79 101 OFFCURVE",
"84 98 OFFCURVE",
"89 93 CURVE",
"93 87 OFFCURVE",
"95 78 OFFCURVE",
"95 66 CURVE SMOOTH",
"95 41 OFFCURVE",
"81 15 OFFCURVE",
"53 15 CURVE SMOOTH",
"53 15 OFFCURVE",
"34 17 OFFCURVE",
"34 17 CURVE"
);
}
);
width = 128;
}
);
note = p;
unicode = 0070;
},
{
glyphname = q;
layers = (
{
hints = (
{
horizontal = 1;
place = "{-45, 21}";
target = up;
type = BottomGhost;
},
{
horizontal = 1;
place = "{-3, 18}";
type = Stem;
},
{
horizontal = 1;
place = "{102, 16}";
type = Stem;
},
{
place = "{12, 21}";
type = Stem;
},
{
place = "{94, 19}";
type = Stem;
}
);
layerId = "0835C59E-AAFD-4756-A43C-35DA64A2CD7E";
paths = (
{
closed = 1;
nodes = (
"12 31 OFFCURVE",
"16 19 OFFCURVE",
"24 10 CURVE",
"31 1 OFFCURVE",
"39 -3 OFFCURVE",
"50 -3 CURVE SMOOTH",
"67 -3 OFFCURVE",
"82 7 OFFCURVE",
"94 26 CURVE",
"94 26 OFFCURVE",
"94 -45 OFFCURVE",
"94 -45 CURVE SMOOTH",
"94 -45 OFFCURVE",
"113 -45 OFFCURVE",
"113 -45 CURVE SMOOTH",
"113 -45 OFFCURVE",
"113 116 OFFCURVE",
"113 116 CURVE SMOOTH",
"94 116 LINE SMOOTH",
"94 116 OFFCURVE",
"72 118 OFFCURVE",
"72 118 CURVE SMOOTH",
"32 118 OFFCURVE",
"12 85 OFFCURVE",
"12 48 CURVE SMOOTH"
);
},
{
closed = 1;
nodes = (
"33 76 OFFCURVE",
"46 102 OFFCURVE",
"75 102 CURVE SMOOTH",
"81 102 OFFCURVE",
"87 101 OFFCURVE",
"94 99 CURVE",
"94 99 OFFCURVE",
"94 49 OFFCURVE",
"94 49 CURVE",
"81 26 OFFCURVE",
"68 15 OFFCURVE",
"54 15 CURVE SMOOTH",
"49 15 OFFCURVE",
"44 18 OFFCURVE",
"40 24 CURVE",
"35 29 OFFCURVE",
"33 37 OFFCURVE",
"33 50 CURVE SMOOTH"
);
}
);
width = 128;
}
);
note = q;
unicode = 0071;
},
{
glyphname = r;
layers = (
{
hints = (
{
horizontal = 1;
place = "{0, 21}";
target = up;
type = BottomGhost;
},
{
horizontal = 1;
place = "{91, 25}";
type = Stem;
},
{
place = "{26, 19}";
type = Stem;
},
{
place = "{95, 18}";
type = Stem;
},
{
horizontal = 1;
place = "{102, 18}";
type = Stem;
}
);
layerId = "0835C59E-AAFD-4756-A43C-35DA64A2CD7E";
paths = (
{
closed = 1;
nodes = (
"45 0 OFFCURVE",
"45 68 OFFCURVE",
"45 68 CURVE",
"58 91 OFFCURVE",
"72 102 OFFCURVE",
"87 102 CURVE SMOOTH",
"92 102 OFFCURVE",
"94 102 OFFCURVE",
"95 101 CURVE",
"95 101 OFFCURVE",
"95 74 OFFCURVE",
"95 74 CURVE SMOOTH",
"95 74 OFFCURVE",
"113 74 OFFCURVE",
"113 74 CURVE SMOOTH",
"113 74 OFFCURVE",
"113 116 OFFCURVE",
"113 116 CURVE",
"108 119 OFFCURVE",
"101 120 OFFCURVE",
"92 120 CURVE SMOOTH",
"73 120 OFFCURVE",
"57 110 OFFCURVE",
"45 91 CURVE",
"45 91 OFFCURVE",
"45 116 OFFCURVE",
"45 116 CURVE SMOOTH",
"45 116 OFFCURVE",
"26 116 OFFCURVE",
"26 116 CURVE SMOOTH",
"26 116 OFFCURVE",
"26 0 OFFCURVE",
"26 0 CURVE SMOOTH",
"26 0 OFFCURVE",
"45 0 OFFCURVE",
"45 0 CURVE SMOOTH"
);
}
);
width = 128;
}
);
note = r;
unicode = 0072;
},
{
glyphname = rcaron;
layers = (
{
layerId = "0835C59E-AAFD-4756-A43C-35DA64A2CD7E";
paths = (
{
closed = 1;
nodes = (
"56 118 OFFCURVE",
"73 118 OFFCURVE",
"73 118 CURVE SMOOTH",
"73 118 OFFCURVE",
"105 152 OFFCURVE",
"105 152 CURVE SMOOTH",
"88 152 LINE",
"64 132 LINE",
"41 152 LINE",
"41 152 OFFCURVE",
"24 152 OFFCURVE",
"24 152 CURVE SMOOTH",
"24 152 OFFCURVE",
"56 118 OFFCURVE",
"56 118 CURVE SMOOTH"
);
},
{
closed = 1;
nodes = (
"45 0 OFFCURVE",
"45 68 OFFCURVE",
"45 68 CURVE",
"58 91 OFFCURVE",
"72 102 OFFCURVE",
"87 102 CURVE SMOOTH",
"92 102 OFFCURVE",
"94 102 OFFCURVE",
"95 101 CURVE",
"95 101 OFFCURVE",
"95 74 OFFCURVE",
"95 74 CURVE SMOOTH",
"95 74 OFFCURVE",
"113 74 OFFCURVE",
"113 74 CURVE SMOOTH",
"113 74 OFFCURVE",
"113 116 OFFCURVE",
"113 116 CURVE",
"108 119 OFFCURVE",
"101 120 OFFCURVE",
"92 120 CURVE SMOOTH",
"73 120 OFFCURVE",
"57 110 OFFCURVE",
"45 91 CURVE",
"45 91 OFFCURVE",
"45 116 OFFCURVE",
"45 116 CURVE SMOOTH",
"45 116 OFFCURVE",
"26 116 OFFCURVE",
"26 116 CURVE SMOOTH",
"26 116 OFFCURVE",
"26 0 OFFCURVE",
"26 0 CURVE SMOOTH",
"26 0 OFFCURVE",
"45 0 OFFCURVE",
"45 0 CURVE SMOOTH"
);
}
);
width = 128;
}
);
note = rcaron;
unicode = 0159;
},
{
glyphname = s;
layers = (
{
hints = (
{
horizontal = 1;
place = "{-3, 16}";
type = Stem;
},
{
horizontal = 1;
place = "{103, 17}";
type = Stem;
},
{
place = "{21, 20}";
type = Stem;
},
{
place = "{92, 20}";
type = Stem;
}
);
layerId = "0835C59E-AAFD-4756-A43C-35DA64A2CD7E";
paths = (
{
closed = 1;
nodes = (
"33 0 OFFCURVE",
"48 -3 OFFCURVE",
"63 -3 CURVE SMOOTH",
"82 -3 OFFCURVE",
"94 0 OFFCURVE",
"101 7 CURVE",
"108 13 OFFCURVE",
"112 21 OFFCURVE",
"112 31 CURVE SMOOTH",
"112 38 OFFCURVE",
"110 45 OFFCURVE",
"106 50 CURVE",
"101 55 OFFCURVE",
"92 60 OFFCURVE",
"79 65 CURVE SMOOTH",
"60 72 OFFCURVE",
"49 77 OFFCURVE",
"46 80 CURVE",
"43 82 OFFCURVE",
"41 85 OFFCURVE",
"41 88 CURVE SMOOTH",
"41 92 OFFCURVE",
"43 95 OFFCURVE",
"47 98 CURVE",
"52 101 OFFCURVE",
"59 103 OFFCURVE",
"67 103 CURVE SMOOTH",
"78 103 OFFCURVE",
"90 101 OFFCURVE",
"103 97 CURVE",
"103 97 OFFCURVE",
"103 114 OFFCURVE",
"103 114 CURVE",
"92 118 OFFCURVE",
"80 120 OFFCURVE",
"68 120 CURVE SMOOTH",
"51 120 OFFCURVE",
"39 117 OFFCURVE",
"32 111 CURVE",
"25 104 OFFCURVE",
"21 96 OFFCURVE",
"21 87 CURVE SMOOTH",
"21 67 OFFCURVE",
"37 60 OFFCURVE",
"54 54 CURVE SMOOTH",
"74 47 OFFCURVE",
"85 42 OFFCURVE",
"88 39 CURVE SMOOTH",
"91 36 OFFCURVE",
"92 33 OFFCURVE",
"92 29 CURVE SMOOTH",
"92 24 OFFCURVE",
"90 21 OFFCURVE",
"86 18 CURVE",
"81 15 OFFCURVE",
"73 13 OFFCURVE",
"64 13 CURVE SMOOTH",
"48 13 OFFCURVE",
"32 18 OFFCURVE",
"17 27 CURVE",
"17 27 OFFCURVE",
"17 6 OFFCURVE",
"17 6 CURVE"
);
}
);
width = 128;
}
);
note = s;
unicode = 0073;
},
{
glyphname = sacute;
layers = (
{
hints = (
{
horizontal = 1;
place = "{-3, 16}";
type = Stem;
},
{
horizontal = 1;
place = "{103, 17}";
type = Stem;
},
{
horizontal = 1;
place = "{196, 18}";
type = Stem;
},
{
place = "{21, 20}";
type = Stem;
},
{
place = "{100, 64}";
type = Stem;
},
{
place = "{92, 20}";
type = Stem;
},
{
place = "{151, 11}";
type = Stem;
}
);
layerId = "0835C59E-AAFD-4756-A43C-35DA64A2CD7E";
paths = (
{
closed = 1;
nodes = (
"68 168 LINE SMOOTH",
"68 168 OFFCURVE",
"37 134 OFFCURVE",
"37 134 CURVE SMOOTH",
"37 134 OFFCURVE",
"55 134 OFFCURVE",
"55 134 CURVE SMOOTH",
"55 134 OFFCURVE",
"91 168 OFFCURVE",
"91 168 CURVE SMOOTH"
);
},
{
closed = 1;
nodes = (
"33 0 OFFCURVE",
"48 -3 OFFCURVE",
"63 -3 CURVE SMOOTH",
"82 -3 OFFCURVE",
"94 0 OFFCURVE",
"101 7 CURVE",
"108 13 OFFCURVE",
"112 21 OFFCURVE",
"112 31 CURVE SMOOTH",
"112 38 OFFCURVE",
"110 45 OFFCURVE",
"106 50 CURVE",
"101 55 OFFCURVE",
"92 60 OFFCURVE",
"79 65 CURVE SMOOTH",
"60 72 OFFCURVE",
"49 77 OFFCURVE",
"46 80 CURVE",
"43 82 OFFCURVE",
"41 85 OFFCURVE",
"41 88 CURVE SMOOTH",
"41 92 OFFCURVE",
"43 95 OFFCURVE",
"47 98 CURVE",
"52 101 OFFCURVE",
"59 103 OFFCURVE",
"67 103 CURVE SMOOTH",
"78 103 OFFCURVE",
"90 101 OFFCURVE",
"103 97 CURVE",
"103 97 OFFCURVE",
"103 114 OFFCURVE",
"103 114 CURVE",
"92 118 OFFCURVE",
"80 120 OFFCURVE",
"68 120 CURVE SMOOTH",
"51 120 OFFCURVE",
"39 117 OFFCURVE",
"32 111 CURVE",
"25 104 OFFCURVE",
"21 96 OFFCURVE",
"21 87 CURVE SMOOTH",
"21 67 OFFCURVE",
"37 60 OFFCURVE",
"54 54 CURVE SMOOTH",
"74 47 OFFCURVE",
"85 42 OFFCURVE",
"88 39 CURVE SMOOTH",
"91 36 OFFCURVE",
"92 33 OFFCURVE",
"92 29 CURVE SMOOTH",
"92 24 OFFCURVE",
"90 21 OFFCURVE",
"86 18 CURVE",
"81 15 OFFCURVE",
"73 13 OFFCURVE",
"64 13 CURVE SMOOTH",
"48 13 OFFCURVE",
"32 18 OFFCURVE",
"17 27 CURVE",
"17 27 OFFCURVE",
"17 6 OFFCURVE",
"17 6 CURVE"
);
}
);
width = 128;
}
);
note = sacute;
unicode = 015B;
},
{
glyphname = scedilla;
layers = (
{
hints = (
{
horizontal = 1;
place = "{-3, 16}";
type = Stem;
},
{
horizontal = 1;
place = "{103, 17}";
type = Stem;
},
{
place = "{21, 20}";
type = Stem;
},
{
place = "{92, 20}";
type = Stem;
}
);
layerId = "0835C59E-AAFD-4756-A43C-35DA64A2CD7E";
paths = (
{
closed = 1;
nodes = (
"35 -1 OFFCURVE",
"51 -3 OFFCURVE",
"70 -3 CURVE",
"70 -28 LINE",
"45 -28 LINE",
"45 -42 LINE",
"84 -42 LINE",
"84 -1 LINE",
"91 0 OFFCURVE",
"97 3 OFFCURVE",
"101 7 CURVE",
"108 13 OFFCURVE",
"112 21 OFFCURVE",
"112 31 CURVE SMOOTH",
"112 38 OFFCURVE",
"110 45 OFFCURVE",
"106 50 CURVE",
"101 55 OFFCURVE",
"92 60 OFFCURVE",
"79 65 CURVE SMOOTH",
"60 72 OFFCURVE",
"49 77 OFFCURVE",
"46 80 CURVE",
"43 82 OFFCURVE",
"41 85 OFFCURVE",
"41 88 CURVE SMOOTH",
"41 92 OFFCURVE",
"43 95 OFFCURVE",
"47 98 CURVE",
"52 101 OFFCURVE",
"59 103 OFFCURVE",
"67 103 CURVE SMOOTH",
"78 103 OFFCURVE",
"90 101 OFFCURVE",
"103 97 CURVE",
"103 97 OFFCURVE",
"103 114 OFFCURVE",
"103 114 CURVE",
"92 118 OFFCURVE",
"80 120 OFFCURVE",
"68 120 CURVE SMOOTH",
"51 120 OFFCURVE",
"39 117 OFFCURVE",
"32 111 CURVE",
"25 104 OFFCURVE",
"21 96 OFFCURVE",
"21 87 CURVE SMOOTH",
"21 67 OFFCURVE",
"37 60 OFFCURVE",
"54 54 CURVE SMOOTH",
"74 47 OFFCURVE",
"85 42 OFFCURVE",
"88 39 CURVE SMOOTH",
"91 36 OFFCURVE",
"92 33 OFFCURVE",
"92 29 CURVE SMOOTH",
"92 24 OFFCURVE",
"90 21 OFFCURVE",
"86 18 CURVE",
"81 15 OFFCURVE",
"73 13 OFFCURVE",
"64 13 CURVE SMOOTH",
"48 13 OFFCURVE",
"32 18 OFFCURVE",
"17 27 CURVE",
"17 27 OFFCURVE",
"17 6 OFFCURVE",
"17 6 CURVE"
);
}
);
width = 128;
}
);
note = scedilla;
unicode = 015F;
},
